<?xml version="1.0" encoding="UTF-8"?>
<svg width="283px" height="235px" viewBox="0 0 283 235" version="1.1" xmlns="http://www.w3.org/2000/svg" xmlns:xlink="http://www.w3.org/1999/xlink">
    <!-- Generator: Sketch 49.3 (51167) - http://www.bohemiancoding.com/sketch -->
    <title>boston</title>
    <desc>Created with Sketch.</desc>
    <defs>
        <linearGradient x1="50%" y1="0%" x2="50%" y2="100%" id="linearGradient-1">
            <stop stop-color="#2FB8EB" offset="0%"/>
            <stop stop-color="#1582D2" offset="100%"/>
        </linearGradient>
    </defs>
    <g id="Page-1" stroke="none" stroke-width="1" fill="none" fill-rule="evenodd">
        <g id="180424_Artyllect_Home_v2" transform="translate(-811.000000, -3440.000000)">
            <g id="boston" transform="translate(811.000000, 3440.000000)">
                <rect id="Rectangle-8-Copy-10" fill="url(#linearGradient-1)" x="0" y="0" width="283" height="235"/>
                <text id="Boston" font-family="GorditaBold, Gordita" font-size="24" font-weight="bold" letter-spacing="2.0999999" fill="#F9F9F0">
                    <tspan x="79.0574222" y="160">BOSTON</tspan>
                </text>
                <text id="MEETUPS-IN-Copy-7" font-family="GorditaMedium, Gordita" font-size="9" font-weight="400" line-spacing="13" letter-spacing="1.00800014" fill="#F9F9F0">
                    <tspan x="107.272743" y="130">MEETUPS IN</tspan>
                </text>
                <g id="Group-3" transform="translate(115.000000, 59.000000)" fill="#F9F9F0" fill-rule="nonzero" stroke="#1582D2" stroke-width="0.5">
                    <path d="M47.5855072,6.79275362 C47.5855072,5.22608696 46.3594203,4 44.7927536,4 C43.226087,4 42,5.22608696 42,6.79275362 C42,8.35942029 43.226087,9.58550725 44.7927536,9.58550725 C46.3594203,9.58550725 47.5855072,8.35942029 47.5855072,6.79275362 Z M44.7927536,8.22318841 C43.9753623,8.22318841 43.3623188,7.61014493 43.3623188,6.79275362 C43.3623188,5.97536232 43.9753623,5.36231884 44.7927536,5.36231884 C45.6101449,5.36231884 46.2231884,5.97536232 46.2231884,6.79275362 C46.2231884,7.61014493 45.6101449,8.22318841 44.7927536,8.22318841 Z" id="Shape"/>
                    <path d="M44.6811594,2.99710145 C45.0898551,2.99710145 45.3623188,2.72463768 45.3623188,2.31594203 L45.3623188,0.68115942 C45.3623188,0.272463768 45.0898551,0 44.6811594,0 C44.2724638,0 44,0.272463768 44,0.68115942 L44,2.31594203 C44,2.72463768 44.2724638,2.99710145 44.6811594,2.99710145 Z" id="Shape"/>
                    <path d="M47.3259082,3.75253388 C47.4621401,3.82064982 47.530256,3.82064982 47.6664879,3.82064982 C47.8708357,3.82064982 48.1432995,3.68441794 48.2795314,3.48007011 L49.0969227,2.04963533 C49.3012705,1.70905562 49.1650386,1.30035997 48.8244589,1.09601214 C48.4838792,0.891664316 48.0751836,1.0278962 47.8708357,1.36847591 L47.0534444,2.79891069 C46.9172125,3.1394904 47.0534444,3.54818606 47.3259082,3.75253388 Z" id="Shape"/>
                    <path d="M48.0960121,4.83679715 C48.232244,5.04114498 48.4365919,5.17737686 48.7090556,5.17737686 C48.8452875,5.17737686 48.9134034,5.17737686 49.0496353,5.10926092 L50.4800701,4.29186961 C50.8206498,4.08752179 50.8887658,3.67882614 50.7525339,3.33824642 C50.5481861,2.99766671 50.1394904,2.92955077 49.7989107,3.06578266 L48.3684759,3.88317396 C48.0278962,4.15563773 47.8916643,4.56433338 48.0960121,4.83679715 Z" id="Shape"/>
                    <path d="M49,6.68115942 C49,7.02173913 49.3405797,7.36231884 49.6811594,7.36231884 C49.6811594,7.36231884 49.6811594,7.36231884 49.6811594,7.36231884 L51.315942,7.36231884 C51.7246377,7.36231884 51.9971014,7.02173913 51.9971014,6.68115942 C51.9971014,6.34057971 51.6565217,6 51.315942,6 C51.315942,6 51.315942,6 51.315942,6 L49.6811594,6 C49.3405797,6 49,6.27246377 49,6.68115942 Z" id="Shape"/>
                    <path d="M50.1394904,10.2076063 C50.4119542,10.2076063 50.616302,10.0713745 50.7525339,9.86702664 C50.9568817,9.52644693 50.8206498,9.11775127 50.4800701,8.91340345 L49.0496353,8.09601214 C48.7090556,7.89166432 48.30036,8.0278962 48.0960121,8.36847591 C47.8916643,8.70905562 48.0278962,9.11775127 48.3684759,9.3220991 L49.7989107,10.1394904 C49.9351426,10.1394904 50.0032585,10.2076063 50.1394904,10.2076063 Z" id="Shape"/>
                    <path d="M48.0004529,12.4308877 C48.1366848,12.6352355 48.3410326,12.7714674 48.6134964,12.7714674 C48.7497283,12.7714674 48.8859601,12.7714674 48.9540761,12.7033514 C49.2946558,12.4990036 49.3627717,12.090308 49.1584239,11.7497283 L48.2729167,10.3192935 C48.0685688,9.97871377 47.6598732,9.91059783 47.3192935,10.1149457 C46.9787138,10.3192935 46.9105978,10.7279891 47.1149457,11.0685688 L48.0004529,12.4308877 Z" id="Shape"/>
                    <path d="M44.6811594,11 C44.2724638,11 44,11.3405797 44,11.6811594 L44.0681159,13.315942 C44.0681159,13.6565217 44.4086957,13.9971014 44.7492754,13.9971014 C44.7492754,13.9971014 44.7492754,13.9971014 44.7492754,13.9971014 C45.157971,13.9971014 45.4304348,13.6565217 45.4304348,13.315942 L45.3623188,11.6811594 C45.3623188,11.2724638 45.0217391,11 44.6811594,11 Z" id="Shape"/>
                    <path d="M41.3684759,12.7525339 C41.4365919,12.8206498 41.5728237,12.8206498 41.7090556,12.8206498 C41.9815194,12.8206498 42.1858672,12.6844179 42.3220991,12.4800701 L43.0713745,11.0496353 C43.2757223,10.7090556 43.1394904,10.30036 42.7989107,10.0960121 C42.458331,9.89166432 42.0496353,10.0278962 41.8452875,10.3684759 L41.0960121,11.8670266 C40.8916643,12.2076063 41.0278962,12.616302 41.3684759,12.7525339 Z" id="Shape"/>
                    <path d="M41.6352355,8.31929348 C41.4308877,7.97871377 41.022192,7.91059783 40.6816123,8.11494565 L39.3192935,9.0004529 C38.9787138,9.20480072 38.9105978,9.61349638 39.1149457,9.95407609 C39.2511775,10.1584239 39.4555254,10.2946558 39.6598732,10.2946558 C39.7961051,10.2946558 39.932337,10.2265399 40.0004529,10.1584239 L41.3627717,9.27291667 C41.7033514,9.06856884 41.8395833,8.59175725 41.6352355,8.31929348 Z" id="Shape"/>
                    <path d="M38.623475,7.37275037 C38.6915909,7.37275037 38.6915909,7.37275037 38.623475,7.37275037 L40.3263736,7.30463443 C40.7350692,7.30463443 41.007533,6.96405472 40.939417,6.62347501 C40.939417,6.21477935 40.5988373,5.94231559 40.2582576,6.01043153 L38.623475,6.07854747 C38.2147794,6.07854747 37.9423156,6.41912718 38.0104315,6.75970689 C38.0104315,7.1002866 38.2828953,7.37275037 38.623475,7.37275037 Z" id="Shape"/>
                    <path d="M38.3492911,5.22375367 L39.8478418,5.97302903 C39.9159578,6.04114498 40.0521896,6.04114498 40.1884215,6.04114498 C40.4608853,6.04114498 40.6652331,5.90491309 40.801465,5.70056527 C40.9376969,5.35998556 40.869581,4.9512899 40.5290012,4.81505802 L39.0304505,4.06578266 C38.6898708,3.92955077 38.2811752,3.99766671 38.1449433,4.33824642 C37.8724795,4.67882614 38.0087114,5.08752179 38.3492911,5.22375367 Z" id="Shape"/>
                    <path d="M41.0004529,3.49900362 C41.1366848,3.70335145 41.3410326,3.77146739 41.5453804,3.77146739 C41.6816123,3.77146739 41.8178442,3.70335145 41.9540761,3.63523551 C42.2946558,3.43088768 42.3627717,3.02219203 42.1584239,2.68161232 L41.2729167,1.31929348 C41.0685688,0.978713768 40.6598732,0.910597826 40.3192935,1.11494565 C39.9787138,1.31929348 39.9105978,1.72798913 40.1149457,2.06856884 L41.0004529,3.49900362 Z" id="Shape"/>
                    <path d="M0.749275362,46.4115942 L51.9043478,46.4115942 C52.3130435,46.4115942 52.5855072,46.1391304 52.5855072,45.7304348 C52.5855072,45.3217391 52.3130435,45.0492754 51.9043478,45.0492754 L50.9507246,45.0492754 L50.9507246,17.326087 C50.9507246,16.9173913 50.6782609,16.6449275 50.2695652,16.6449275 L39.1666667,16.6449275 C38.757971,16.6449275 38.4855072,16.9173913 38.4855072,17.326087 L38.4855072,20.7318841 L36.373913,20.7318841 L36.373913,2.68115942 C36.373913,2.27246377 36.1014493,2 35.6927536,2 L24.5898551,2 C24.1811594,2 23.9086957,2.27246377 23.9086957,2.68115942 L23.9086957,23.184058 L22.2057971,23.184058 L21.5927536,10.9231884 C21.5927536,10.5826087 21.2521739,10.3101449 20.9115942,10.3101449 L17.4376812,10.3101449 C17.0971014,10.3101449 16.7565217,10.5826087 16.7565217,10.9231884 L16.1434783,23.184058 L14.7130435,23.184058 L14.7130435,14.942029 C14.7130435,14.5333333 14.4405797,14.2608696 14.0318841,14.2608696 L13.0101449,14.2608696 C12.8057971,12.557971 11.6478261,10.9231884 10.4217391,10.9231884 L9.19565217,10.9231884 L9.19565217,6.42753623 C9.19565217,6.01884058 8.92318841,5.74637681 8.51449275,5.74637681 C8.1057971,5.74637681 7.83333333,6.01884058 7.83333333,6.42753623 L7.83333333,10.9231884 L6.53913043,10.9231884 C5.31304348,10.9231884 4.08695652,12.4898551 3.95072464,14.2608696 L2.79275362,14.2608696 C2.38405797,14.2608696 2.1115942,14.5333333 2.1115942,14.942029 L2.1115942,45.0492754 L0.68115942,45.0492754 C0.272463768,45.0492754 0,45.3217391 0,45.7304348 C0,46.1391304 0.408695652,46.4115942 0.749275362,46.4115942 Z M49.5884058,18.0072464 L49.5884058,45.0492754 L39.8478261,45.0492754 L39.8478261,18.0072464 L49.5884058,18.0072464 Z M38.2130435,45.0492754 L29.0173913,45.0492754 L28.9492754,22.0942029 L38.2130435,22.0942029 L38.2130435,45.0492754 Z M25.2710145,3.36231884 L35.0115942,3.36231884 L35.0115942,20.7318841 L28.2681159,20.7318841 C28.0637681,20.7318841 27.9275362,20.8 27.7913043,20.9362319 C27.6550725,21.0724638 27.5869565,21.2086957 27.5869565,21.4130435 L27.6550725,45.0492754 L25.2710145,45.0492754 L25.2710145,3.36231884 Z M18.0507246,11.6724638 L20.2985507,11.6724638 L20.9115942,23.184058 L17.5057971,23.184058 L18.0507246,11.6724638 Z M23.9086957,24.5463768 L23.9086957,45.0492754 L14.7130435,45.0492754 L14.6449275,24.5463768 L23.9086957,24.5463768 Z M6.53913043,12.2855072 L10.3536232,12.2855072 C10.626087,12.2855072 11.4434783,13.0347826 11.5797101,14.2608696 L5.31304348,14.2608696 C5.5173913,13.1028986 6.26666667,12.2855072 6.53913043,12.2855072 Z M3.54202899,15.6231884 L13.3507246,15.6231884 L13.3507246,45.0492754 L3.54202899,45.0492754 L3.54202899,15.6231884 Z" id="Shape"/>
                    <path d="M4.68115942,17 C4.27246377,17 4,17.2724638 4,17.6811594 L4,19.384058 C4,19.7927536 4.27246377,20.0652174 4.68115942,20.0652174 C5.08985507,20.0652174 5.36231884,19.7927536 5.36231884,19.384058 L5.36231884,17.6811594 C5.36231884,17.2724638 5.08985507,17 4.68115942,17 Z" id="Shape"/>
                    <path d="M7.68115942,17 C7.27246377,17 7,17.2724638 7,17.6811594 L7,19.384058 C7,19.7927536 7.27246377,20.0652174 7.68115942,20.0652174 C8.08985507,20.0652174 8.36231884,19.7927536 8.36231884,19.384058 L8.36231884,17.6811594 C8.36231884,17.2724638 8.08985507,17 7.68115942,17 Z" id="Shape"/>
                    <path d="M10.6811594,17 C10.2724638,17 10,17.2724638 10,17.6811594 L10,19.384058 C10,19.7927536 10.2724638,20.0652174 10.6811594,20.0652174 C11.0898551,20.0652174 11.3623188,19.7927536 11.3623188,19.384058 L11.3623188,17.6811594 C11.3623188,17.2724638 11.0217391,17 10.6811594,17 Z" id="Shape"/>
                    <path d="M4.68115942,21 C4.27246377,21 4,21.2724638 4,21.6811594 L4,23.384058 C4,23.7927536 4.27246377,24.0652174 4.68115942,24.0652174 C5.08985507,24.0652174 5.36231884,23.7927536 5.36231884,23.384058 L5.36231884,21.6811594 C5.36231884,21.2724638 5.08985507,21 4.68115942,21 Z" id="Shape"/>
                    <path d="M7.68115942,21 C7.27246377,21 7,21.2724638 7,21.6811594 L7,23.384058 C7,23.7927536 7.27246377,24.0652174 7.68115942,24.0652174 C8.08985507,24.0652174 8.36231884,23.7927536 8.36231884,23.384058 L8.36231884,21.6811594 C8.36231884,21.2724638 8.08985507,21 7.68115942,21 Z" id="Shape"/>
                    <path d="M10.6811594,21 C10.2724638,21 10,21.2724638 10,21.6811594 L10,23.384058 C10,23.7927536 10.2724638,24.0652174 10.6811594,24.0652174 C11.0898551,24.0652174 11.3623188,23.7927536 11.3623188,23.384058 L11.3623188,21.6811594 C11.3623188,21.2724638 11.0217391,21 10.6811594,21 Z" id="Shape"/>
                    <path d="M4.68115942,26 C4.27246377,26 4,26.2724638 4,26.6811594 L4,28.384058 C4,28.7927536 4.27246377,29.0652174 4.68115942,29.0652174 C5.08985507,29.0652174 5.36231884,28.7927536 5.36231884,28.384058 L5.36231884,26.6811594 C5.36231884,26.3405797 5.08985507,26 4.68115942,26 Z" id="Shape"/>
                    <path d="M7.68115942,26 C7.27246377,26 7,26.2724638 7,26.6811594 L7,28.384058 C7,28.7927536 7.27246377,29.0652174 7.68115942,29.0652174 C8.08985507,29.0652174 8.36231884,28.7927536 8.36231884,28.384058 L8.36231884,26.6811594 C8.36231884,26.3405797 8.08985507,26 7.68115942,26 Z" id="Shape"/>
                    <path d="M10.6811594,26 C10.2724638,26 10,26.2724638 10,26.6811594 L10,28.384058 C10,28.7927536 10.2724638,29.0652174 10.6811594,29.0652174 C11.0898551,29.0652174 11.3623188,28.7927536 11.3623188,28.384058 L11.3623188,26.6811594 C11.3623188,26.3405797 11.0217391,26 10.6811594,26 Z" id="Shape"/>
                    <path d="M4.68115942,30 C4.27246377,30 4,30.2724638 4,30.6811594 L4,32.384058 C4,32.7927536 4.27246377,33.0652174 4.68115942,33.0652174 C5.08985507,33.0652174 5.36231884,32.7927536 5.36231884,32.384058 L5.36231884,30.6811594 C5.36231884,30.3405797 5.08985507,30 4.68115942,30 Z" id="Shape"/>
                    <path d="M7.68115942,30 C7.27246377,30 7,30.2724638 7,30.6811594 L7,32.384058 C7,32.7927536 7.27246377,33.0652174 7.68115942,33.0652174 C8.08985507,33.0652174 8.36231884,32.7927536 8.36231884,32.384058 L8.36231884,30.6811594 C8.36231884,30.3405797 8.08985507,30 7.68115942,30 Z" id="Shape"/>
                    <path d="M10.6811594,30 C10.2724638,30 10,30.2724638 10,30.6811594 L10,32.384058 C10,32.7927536 10.2724638,33.0652174 10.6811594,33.0652174 C11.0898551,33.0652174 11.3623188,32.7927536 11.3623188,32.384058 L11.3623188,30.6811594 C11.3623188,30.3405797 11.0217391,30 10.6811594,30 Z" id="Shape"/>
                    <path d="M4.68115942,35 C4.27246377,35 4,35.2724638 4,35.6811594 L4,37.384058 C4,37.7927536 4.27246377,38.0652174 4.68115942,38.0652174 C5.08985507,38.0652174 5.36231884,37.7927536 5.36231884,37.384058 L5.36231884,35.6811594 C5.36231884,35.3405797 5.08985507,35 4.68115942,35 Z" id="Shape"/>
                    <path d="M7.68115942,35 C7.27246377,35 7,35.2724638 7,35.6811594 L7,37.384058 C7,37.7927536 7.27246377,38.0652174 7.68115942,38.0652174 C8.08985507,38.0652174 8.36231884,37.7927536 8.36231884,37.384058 L8.36231884,35.6811594 C8.36231884,35.3405797 8.08985507,35 7.68115942,35 Z" id="Shape"/>
                    <path d="M10.6811594,35 C10.2724638,35 10,35.2724638 10,35.6811594 L10,37.384058 C10,37.7927536 10.2724638,38.0652174 10.6811594,38.0652174 C11.0898551,38.0652174 11.3623188,37.7927536 11.3623188,37.384058 L11.3623188,35.6811594 C11.3623188,35.3405797 11.0217391,35 10.6811594,35 Z" id="Shape"/>
                    <path d="M4.68115942,39 C4.27246377,39 4,39.2724638 4,39.6811594 L4,41.384058 C4,41.7927536 4.27246377,42.0652174 4.68115942,42.0652174 C5.08985507,42.0652174 5.36231884,41.7927536 5.36231884,41.384058 L5.36231884,39.6811594 C5.36231884,39.3405797 5.08985507,39 4.68115942,39 Z" id="Shape"/>
                    <path d="M7.68115942,39 C7.27246377,39 7,39.2724638 7,39.6811594 L7,41.384058 C7,41.7927536 7.27246377,42.0652174 7.68115942,42.0652174 C8.08985507,42.0652174 8.36231884,41.7927536 8.36231884,41.384058 L8.36231884,39.6811594 C8.36231884,39.3405797 8.08985507,39 7.68115942,39 Z" id="Shape"/>
                    <path d="M10.6811594,39 C10.2724638,39 10,39.2724638 10,39.6811594 L10,41.384058 C10,41.7927536 10.2724638,42.0652174 10.6811594,42.0652174 C11.0898551,42.0652174 11.3623188,41.7927536 11.3623188,41.384058 L11.3623188,39.6811594 C11.3623188,39.3405797 11.0217391,39 10.6811594,39 Z" id="Shape"/>
                    <path d="M15.6811594,29.0652174 C16.0898551,29.0652174 16.3623188,28.7927536 16.3623188,28.384058 L16.3623188,26.6811594 C16.3623188,26.2724638 16.0898551,26 15.6811594,26 C15.2724638,26 15,26.2724638 15,26.6811594 L15,28.384058 C15,28.7246377 15.3405797,29.0652174 15.6811594,29.0652174 Z" id="Shape"/>
                    <path d="M18.6811594,29.0652174 C19.0898551,29.0652174 19.3623188,28.7927536 19.3623188,28.384058 L19.3623188,26.6811594 C19.3623188,26.2724638 19.0898551,26 18.6811594,26 C18.2724638,26 18,26.2724638 18,26.6811594 L18,28.384058 C18,28.7246377 18.2724638,29.0652174 18.6811594,29.0652174 Z" id="Shape"/>
                    <path d="M21.6811594,29.0652174 C22.0898551,29.0652174 22.3623188,28.7927536 22.3623188,28.384058 L22.3623188,26.6811594 C22.3623188,26.2724638 22.0898551,26 21.6811594,26 C21.2724638,26 21,26.2724638 21,26.6811594 L21,28.384058 C21,28.7246377 21.3405797,29.0652174 21.6811594,29.0652174 Z" id="Shape"/>
                    <path d="M15.6811594,33.0652174 C16.0898551,33.0652174 16.3623188,32.7927536 16.3623188,32.384058 L16.3623188,30.6811594 C16.3623188,30.2724638 16.0898551,30 15.6811594,30 C15.2724638,30 15,30.2724638 15,30.6811594 L15,32.384058 C15,32.7246377 15.3405797,33.0652174 15.6811594,33.0652174 Z" id="Shape"/>
                    <path d="M18.6811594,33.0652174 C19.0898551,33.0652174 19.3623188,32.7927536 19.3623188,32.384058 L19.3623188,30.6811594 C19.3623188,30.2724638 19.0898551,30 18.6811594,30 C18.2724638,30 18,30.2724638 18,30.6811594 L18,32.384058 C18,32.7246377 18.2724638,33.0652174 18.6811594,33.0652174 Z" id="Shape"/>
                    <path d="M21.6811594,33.0652174 C22.0898551,33.0652174 22.3623188,32.7927536 22.3623188,32.384058 L22.3623188,30.6811594 C22.3623188,30.2724638 22.0898551,30 21.6811594,30 C21.2724638,30 21,30.2724638 21,30.6811594 L21,32.384058 C21,32.7246377 21.3405797,33.0652174 21.6811594,33.0652174 Z" id="Shape"/>
                    <path d="M15.6811594,38.0652174 C16.0898551,38.0652174 16.3623188,37.7927536 16.3623188,37.384058 L16.3623188,35.6811594 C16.3623188,35.2724638 16.0898551,35 15.6811594,35 C15.2724638,35 15,35.2724638 15,35.6811594 L15,37.384058 C15,37.7246377 15.3405797,38.0652174 15.6811594,38.0652174 Z" id="Shape"/>
                    <path d="M18.6811594,38.0652174 C19.0898551,38.0652174 19.3623188,37.7927536 19.3623188,37.384058 L19.3623188,35.6811594 C19.3623188,35.2724638 19.0898551,35 18.6811594,35 C18.2724638,35 18,35.2724638 18,35.6811594 L18,37.384058 C18,37.7246377 18.2724638,38.0652174 18.6811594,38.0652174 Z" id="Shape"/>
                    <path d="M21.6811594,38.0652174 C22.0898551,38.0652174 22.3623188,37.7927536 22.3623188,37.384058 L22.3623188,35.6811594 C22.3623188,35.2724638 22.0898551,35 21.6811594,35 C21.2724638,35 21,35.2724638 21,35.6811594 L21,37.384058 C21,37.7246377 21.3405797,38.0652174 21.6811594,38.0652174 Z" id="Shape"/>
                    <path d="M15.6811594,42.0652174 C16.0898551,42.0652174 16.3623188,41.7927536 16.3623188,41.384058 L16.3623188,39.6811594 C16.3623188,39.2724638 16.0898551,39 15.6811594,39 C15.2724638,39 15,39.2724638 15,39.6811594 L15,41.384058 C15,41.7246377 15.3405797,42.0652174 15.6811594,42.0652174 Z" id="Shape"/>
                    <path d="M18.6811594,42.0652174 C19.0898551,42.0652174 19.3623188,41.7927536 19.3623188,41.384058 L19.3623188,39.6811594 C19.3623188,39.2724638 19.0898551,39 18.6811594,39 C18.2724638,39 18,39.2724638 18,39.6811594 L18,41.384058 C18,41.7246377 18.2724638,42.0652174 18.6811594,42.0652174 Z" id="Shape"/>
                    <path d="M21.6811594,42.0652174 C22.0898551,42.0652174 22.3623188,41.7927536 22.3623188,41.384058 L22.3623188,39.6811594 C22.3623188,39.2724638 22.0898551,39 21.6811594,39 C21.2724638,39 21,39.2724638 21,39.6811594 L21,41.384058 C21,41.7246377 21.3405797,42.0652174 21.6811594,42.0652174 Z" id="Shape"/>
                    <path d="M40.6811594,33.3347826 C41.0898551,33.3347826 41.3623188,33.0623188 41.3623188,32.6536232 L41.3623188,27.6811594 C41.3623188,27.2724638 41.0898551,27 40.6811594,27 C40.2724638,27 40,27.2724638 40,27.6811594 L40,32.6536232 C40,33.0623188 40.2724638,33.3347826 40.6811594,33.3347826 Z" id="Shape"/>
                    <path d="M43.6811594,33.3347826 C44.0898551,33.3347826 44.3623188,33.0623188 44.3623188,32.6536232 L44.3623188,27.6811594 C44.3623188,27.2724638 44.0898551,27 43.6811594,27 C43.2724638,27 43,27.2724638 43,27.6811594 L43,32.6536232 C43,33.0623188 43.2724638,33.3347826 43.6811594,33.3347826 Z" id="Shape"/>
                    <path d="M46.6811594,33.3347826 C47.0898551,33.3347826 47.3623188,33.0623188 47.3623188,32.6536232 L47.3623188,27.6811594 C47.3623188,27.2724638 47.0898551,27 46.6811594,27 C46.2724638,27 46,27.2724638 46,27.6811594 L46,32.6536232 C46,33.0623188 46.3405797,33.3347826 46.6811594,33.3347826 Z" id="Shape"/>
                    <path d="M40.6811594,26.2666667 C41.0898551,26.2666667 41.3623188,25.9942029 41.3623188,25.5855072 L41.3623188,20.6811594 C41.3623188,20.2724638 41.0898551,20 40.6811594,20 C40.2724638,20 40,20.2724638 40,20.6811594 L40,25.5855072 C40,25.9942029 40.2724638,26.2666667 40.6811594,26.2666667 Z" id="Shape"/>
                    <path d="M43.6811594,26.2666667 C44.0898551,26.2666667 44.3623188,25.9942029 44.3623188,25.5855072 L44.3623188,20.6811594 C44.3623188,20.2724638 44.0898551,20 43.6811594,20 C43.2724638,20 43,20.2724638 43,20.6811594 L43,25.5855072 C43,25.9942029 43.2724638,26.2666667 43.6811594,26.2666667 Z" id="Shape"/>
                    <path d="M46.6811594,26.2666667 C47.0898551,26.2666667 47.3623188,25.9942029 47.3623188,25.5855072 L47.3623188,20.6811594 C47.3623188,20.2724638 47.0898551,20 46.6811594,20 C46.2724638,20 46,20.2724638 46,20.6811594 L46,25.5855072 C46,25.9942029 46.3405797,26.2666667 46.6811594,26.2666667 Z" id="Shape"/>
                    <path d="M40.6811594,42.2666667 C41.0898551,42.2666667 41.3623188,41.9942029 41.3623188,41.5855072 L41.3623188,36.6811594 C41.3623188,36.2724638 41.0898551,36 40.6811594,36 C40.2724638,36 40,36.2724638 40,36.6811594 L40,41.5855072 C40,41.9942029 40.2724638,42.2666667 40.6811594,42.2666667 Z" id="Shape"/>
                    <path d="M43.6811594,36 C43.2724638,36 43,36.2724638 43,36.6811594 L43,41.5855072 C43,41.9942029 43.2724638,42.2666667 43.6811594,42.2666667 C44.0898551,42.2666667 44.3623188,41.9942029 44.3623188,41.5855072 L44.3623188,36.6811594 C44.3623188,36.2724638 44.0217391,36 43.6811594,36 Z" id="Shape"/>
                    <path d="M46.6811594,42.2666667 C47.0898551,42.2666667 47.3623188,41.9942029 47.3623188,41.5855072 L47.3623188,36.6811594 C47.3623188,36.2724638 47.0898551,36 46.6811594,36 C46.2724638,36 46,36.2724638 46,36.6811594 L46,41.5855072 C46,41.9942029 46.3405797,42.2666667 46.6811594,42.2666667 Z" id="Shape"/>
                    <path d="M26.6811594,19.2666667 C27.0898551,19.2666667 27.3623188,18.9942029 27.3623188,18.5855072 L27.3623188,13.6811594 C27.3623188,13.2724638 27.0898551,13 26.6811594,13 C26.2724638,13 26,13.2724638 26,13.6811594 L26,18.5855072 C26,18.926087 26.3405797,19.2666667 26.6811594,19.2666667 Z" id="Shape"/>
                    <path d="M29.6811594,19.2666667 C30.0898551,19.2666667 30.3623188,18.9942029 30.3623188,18.5855072 L30.3623188,13.6811594 C30.3623188,13.2724638 30.0898551,13 29.6811594,13 C29.2724638,13 29,13.2724638 29,13.6811594 L29,18.5855072 C29,18.926087 29.2724638,19.2666667 29.6811594,19.2666667 Z" id="Shape"/>
                    <path d="M32.6811594,19.2666667 C33.0898551,19.2666667 33.3623188,18.9942029 33.3623188,18.5855072 L33.3623188,13.6811594 C33.3623188,13.2724638 33.0898551,13 32.6811594,13 C32.2724638,13 32,13.2724638 32,13.6811594 L32,18.5855072 C32,18.926087 32.3405797,19.2666667 32.6811594,19.2666667 Z" id="Shape"/>
                    <path d="M26.6811594,11.2666667 C27.0898551,11.2666667 27.3623188,10.9942029 27.3623188,10.5855072 L27.3623188,5.68115942 C27.3623188,5.27246377 27.0898551,5 26.6811594,5 C26.2724638,5 26,5.27246377 26,5.68115942 L26,10.5855072 C26,10.926087 26.3405797,11.2666667 26.6811594,11.2666667 Z" id="Shape"/>
                    <path d="M29.6811594,11.2666667 C30.0898551,11.2666667 30.3623188,10.9942029 30.3623188,10.5855072 L30.3623188,5.68115942 C30.3623188,5.27246377 30.0898551,5 29.6811594,5 C29.2724638,5 29,5.27246377 29,5.68115942 L29,10.5855072 C29,10.926087 29.2724638,11.2666667 29.6811594,11.2666667 Z" id="Shape"/>
                    <path d="M32.6811594,11.2666667 C33.0898551,11.2666667 33.3623188,10.9942029 33.3623188,10.5855072 L33.3623188,5.68115942 C33.3623188,5.27246377 33.0898551,5 32.6811594,5 C32.2724638,5 32,5.27246377 32,5.68115942 L32,10.5855072 C32,10.926087 32.3405797,11.2666667 32.6811594,11.2666667 Z" id="Shape"/>
                    <path d="M29.6811594,29.0652174 C30.0898551,29.0652174 30.3623188,28.7927536 30.3623188,28.384058 L30.3623188,26.6811594 C30.3623188,26.2724638 30.0898551,26 29.6811594,26 C29.2724638,26 29,26.2724638 29,26.6811594 L29,28.384058 C29,28.7246377 29.3405797,29.0652174 29.6811594,29.0652174 Z" id="Shape"/>
                    <path d="M32.6811594,29.0652174 C33.0898551,29.0652174 33.3623188,28.7927536 33.3623188,28.384058 L33.3623188,26.6811594 C33.3623188,26.2724638 33.0898551,26 32.6811594,26 C32.2724638,26 32,26.2724638 32,26.6811594 L32,28.384058 C32,28.7246377 32.2724638,29.0652174 32.6811594,29.0652174 Z" id="Shape"/>
                    <path d="M35.6811594,29.0652174 C36.0898551,29.0652174 36.3623188,28.7927536 36.3623188,28.384058 L36.3623188,26.6811594 C36.3623188,26.2724638 36.0898551,26 35.6811594,26 C35.2724638,26 35,26.2724638 35,26.6811594 L35,28.384058 C35,28.7246377 35.2724638,29.0652174 35.6811594,29.0652174 Z" id="Shape"/>
                    <path d="M29.6811594,33.0652174 C30.0898551,33.0652174 30.3623188,32.7927536 30.3623188,32.384058 L30.3623188,30.6811594 C30.3623188,30.2724638 30.0898551,30 29.6811594,30 C29.2724638,30 29,30.2724638 29,30.6811594 L29,32.384058 C29,32.7246377 29.3405797,33.0652174 29.6811594,33.0652174 Z" id="Shape"/>
                    <path d="M32.6811594,33.0652174 C33.0898551,33.0652174 33.3623188,32.7927536 33.3623188,32.384058 L33.3623188,30.6811594 C33.3623188,30.2724638 33.0898551,30 32.6811594,30 C32.2724638,30 32,30.2724638 32,30.6811594 L32,32.384058 C32,32.7246377 32.2724638,33.0652174 32.6811594,33.0652174 Z" id="Shape"/>
                    <path d="M35.6811594,33.0652174 C36.0898551,33.0652174 36.3623188,32.7927536 36.3623188,32.384058 L36.3623188,30.6811594 C36.3623188,30.2724638 36.0898551,30 35.6811594,30 C35.2724638,30 35,30.2724638 35,30.6811594 L35,32.384058 C35,32.7246377 35.2724638,33.0652174 35.6811594,33.0652174 Z" id="Shape"/>
                    <path d="M29.6811594,38.0652174 C30.0898551,38.0652174 30.3623188,37.7927536 30.3623188,37.384058 L30.3623188,35.6811594 C30.3623188,35.2724638 30.0898551,35 29.6811594,35 C29.2724638,35 29,35.2724638 29,35.6811594 L29,37.384058 C29,37.7246377 29.3405797,38.0652174 29.6811594,38.0652174 Z" id="Shape"/>
                    <path d="M32.6811594,38.0652174 C33.0898551,38.0652174 33.3623188,37.7927536 33.3623188,37.384058 L33.3623188,35.6811594 C33.3623188,35.2724638 33.0898551,35 32.6811594,35 C32.2724638,35 32,35.2724638 32,35.6811594 L32,37.384058 C32,37.7246377 32.2724638,38.0652174 32.6811594,38.0652174 Z" id="Shape"/>
                    <path d="M35.6811594,38.0652174 C36.0898551,38.0652174 36.3623188,37.7927536 36.3623188,37.384058 L36.3623188,35.6811594 C36.3623188,35.2724638 36.0898551,35 35.6811594,35 C35.2724638,35 35,35.2724638 35,35.6811594 L35,37.384058 C35,37.7246377 35.2724638,38.0652174 35.6811594,38.0652174 Z" id="Shape"/>
                    <path d="M29.6811594,42.0652174 C30.0898551,42.0652174 30.3623188,41.7927536 30.3623188,41.384058 L30.3623188,39.6811594 C30.3623188,39.2724638 30.0898551,39 29.6811594,39 C29.2724638,39 29,39.2724638 29,39.6811594 L29,41.384058 C29,41.7246377 29.3405797,42.0652174 29.6811594,42.0652174 Z" id="Shape"/>
                    <path d="M32.6811594,42.0652174 C33.0898551,42.0652174 33.3623188,41.7927536 33.3623188,41.384058 L33.3623188,39.6811594 C33.3623188,39.2724638 33.0898551,39 32.6811594,39 C32.2724638,39 32,39.2724638 32,39.6811594 L32,41.384058 C32,41.7246377 32.2724638,42.0652174 32.6811594,42.0652174 Z" id="Shape"/>
                    <path d="M35.6811594,42.0652174 C36.0898551,42.0652174 36.3623188,41.7927536 36.3623188,41.384058 L36.3623188,39.6811594 C36.3623188,39.2724638 36.0898551,39 35.6811594,39 C35.2724638,39 35,39.2724638 35,39.6811594 L35,41.384058 C35,41.7246377 35.2724638,42.0652174 35.6811594,42.0652174 Z" id="Shape"/>
                    <path d="M16.5202899,5.04057971 C17.8826087,5.04057971 19.0405797,3.8826087 19.0405797,2.52028986 C19.0405797,1.15797101 17.8826087,0 16.5202899,0 C15.157971,0 14,1.15797101 14,2.52028986 C14,3.8826087 15.157971,5.04057971 16.5202899,5.04057971 Z M16.5202899,1.36231884 C17.1333333,1.36231884 17.6782609,1.90724638 17.6782609,2.52028986 C17.6782609,3.13333333 17.1333333,3.67826087 16.5202899,3.67826087 C15.9072464,3.67826087 15.3623188,3.13333333 15.3623188,2.52028986 C15.3623188,1.90724638 15.9072464,1.36231884 16.5202899,1.36231884 Z" id="Shape"/>
                    <path d="M17,6.77101449 C17,7.79275362 17.8173913,8.54202899 18.7710145,8.54202899 C19.7246377,8.54202899 20.542029,7.72463768 20.542029,6.77101449 C20.542029,5.8173913 19.7246377,5 18.7710145,5 C17.8173913,5 17,5.8173913 17,6.77101449 Z M19.1797101,6.77101449 C19.1797101,6.97536232 18.9753623,7.17971014 18.7710145,7.17971014 C18.5666667,7.17971014 18.3623188,6.97536232 18.3623188,6.77101449 C18.3623188,6.56666667 18.5666667,6.36231884 18.7710145,6.36231884 C18.9753623,6.36231884 19.1797101,6.56666667 19.1797101,6.77101449 Z" id="Shape"/>
                </g>
            </g>
        </g>
    </g>
</svg>