<?xml version="1.0" encoding="UTF-8"?>
<svg width="283px" height="235px" viewBox="0 0 283 235" version="1.1" xmlns="http://www.w3.org/2000/svg" xmlns:xlink="http://www.w3.org/1999/xlink">
    <!-- Generator: Sketch 49.3 (51167) - http://www.bohemiancoding.com/sketch -->
    <title>chicago</title>
    <desc>Created with Sketch.</desc>
    <defs>
        <linearGradient x1="50%" y1="0%" x2="50%" y2="100%" id="linearGradient-1">
            <stop stop-color="#F8E24D" offset="0%"/>
            <stop stop-color="#E4CB1F" offset="100%"/>
        </linearGradient>
    </defs>
    <g id="Page-1" stroke="none" stroke-width="1" fill="none" fill-rule="evenodd">
        <g id="180424_Artyllect_Home_v2" transform="translate(-200.000000, -3183.000000)">
            <g id="chicago" transform="translate(200.000000, 3183.000000)">
                <rect id="Rectangle-8-Copy-4" fill="url(#linearGradient-1)" x="0" y="0" width="283" height="235"/>
                <text id="CHICAGO-Copy" font-family="GorditaBold, Gordita" font-size="24" font-weight="bold" letter-spacing="2.0999999" fill="#F9F9F0">
                    <tspan x="70.003516" y="160">CHICAGO</tspan>
                </text>
                <text id="MEETUPS-IN-Copy-2" font-family="GorditaMedium, Gordita" font-size="9" font-weight="400" line-spacing="13" letter-spacing="1.00800014" fill="#F9F9F0">
                    <tspan x="107.272743" y="130">MEETUPS IN</tspan>
                </text>
                <path d="M145.875096,74.7442568 L142.854892,69.9550318 L142.854892,66.8259382 C142.854892,66.3698474 142.472195,66 142.000007,66 C141.527819,66 141.145122,66.3698474 141.145122,66.8259382 L141.145122,69.9550318 L138.12503,74.7442568 C137.879268,75.1337642 138.006983,75.6418835 138.410142,75.8792158 C138.813188,76.1164395 139.339115,75.993157 139.585103,75.6036496 L142.000007,71.7742899 L144.415023,75.6036496 C144.576129,75.8590127 144.857531,76 145.145903,76 C145.297452,76 145.451026,75.9610058 145.589984,75.8793244 C145.99303,75.6419921 146.120633,75.1337642 145.875096,74.7442568 Z" id="Shape-Copy" stroke="#F8E24D" stroke-width="0.6" fill="#FAFAF0" fill-rule="nonzero"/>
                <path d="M142,84 C141.447659,84 141,84.3959855 141,84.8843094 L141,88.1156906 C141,88.6040145 141.447659,89 142,89 C142.552341,89 143,88.6040145 143,88.1156906 L143,84.8843094 C143,84.3959855 142.552341,84 142,84 Z" id="Shape-Copy-2" stroke="#F8E24D" stroke-width="0.6" fill="#FAFAF0" fill-rule="nonzero"/>
                <path d="M142,84 C141.447659,84 141,84.3959855 141,84.8843094 L141,88.1156906 C141,88.6040145 141.447659,89 142,89 C142.552341,89 143,88.6040145 143,88.1156906 L143,84.8843094 C143,84.3959855 142.552341,84 142,84 Z" id="Shape-Copy-3" stroke="#F8E24D" stroke-width="0.6" fill="#FAFAF0" fill-rule="nonzero"/>
                <path d="M160.156321,88.9613537 L159.234188,88.9613537 L159.234188,79.6909856 C159.234188,79.2235206 158.856458,78.8444498 158.390398,78.8444498 C157.924338,78.8444498 157.546607,79.2235206 157.546607,79.6909856 L157.546607,81.3424205 L151.559847,81.3424205 L151.559847,73.0832419 L152.079281,73.9783165 C152.240072,74.2554111 152.544232,74.4173929 152.861596,74.3971313 C153.180403,74.3768696 153.460483,74.1778157 153.58521,73.8827973 L154.553171,71.5930094 L155.521133,73.8827973 C155.645749,74.1778157 155.92594,74.3769809 156.244747,74.3971313 C156.561224,74.4173929 156.866382,74.2552998 157.027062,73.9783165 L157.546496,73.0832419 L157.546496,76.8690513 C157.546496,77.3365163 157.924227,77.715587 158.390287,77.715587 C158.856347,77.715587 159.234077,77.3365163 159.234077,76.8690513 L159.234077,69.9468068 C159.234077,69.9466955 159.234077,69.9464729 159.234077,69.9462502 C159.234077,69.9460276 159.234077,69.9459162 159.234077,69.9456936 C159.234077,69.9453596 159.233855,69.9439123 159.233633,69.9425764 C159.233189,69.9249866 159.229305,69.9075082 159.223424,69.8901411 C159.000714,68.7946766 155.377543,51.8689712 155.377543,51.8689712 C155.293985,51.478879 154.95021,51.2004484 154.552617,51.2004484 C154.155023,51.2004484 153.81136,51.478879 153.727691,51.8689712 C153.727691,51.8689712 150.075668,68.9291604 149.879479,69.9008285 C149.87726,69.9089554 149.875706,69.9171937 149.874596,69.9253206 C149.872377,69.936676 149.871156,69.9435783 149.871156,69.9445803 L149.871156,69.9456936 C149.871156,69.9530412 149.872044,69.9601662 149.872266,69.9675138 L149.872266,79.6122769 L133.306057,79.6122769 L133.306057,69.5587185 C133.306057,69.5587185 133.305281,69.5581619 133.305059,69.5580506 C133.305059,69.5036113 133.30062,69.4489494 133.289967,69.3946215 L131.944386,62.5644451 C131.944386,62.5643337 131.944386,62.5642224 131.944386,62.5641111 L129.344549,48.6901204 C129.269535,48.2900086 128.9211,48 128.515295,48 C128.10949,48 127.761055,48.2900086 127.686041,48.6901204 L125.086204,62.5641111 C125.086204,62.5642224 125.086204,62.5643337 125.086204,62.5644451 L123.740623,69.3946215 C123.72997,69.4489494 123.725531,69.5036113 123.725531,69.5580506 C123.72542,69.5581619 123.724532,69.5587185 123.724532,69.5587185 L123.724532,79.6122769 L123.706112,79.6122769 C123.240052,79.6122769 122.862322,79.9913477 122.862322,80.4588127 L122.862322,89.7169347 L122.019419,93.6009352 C122.006547,93.6600502 122.000111,93.7205011 122.000111,93.7810634 L122.000111,97.4114593 C122.000111,97.8789243 122.377841,98.2579951 122.843901,98.2579951 C123.309961,98.2579951 123.687692,97.8789243 123.687692,97.4114593 L123.687692,93.8722407 L124.386005,90.6545365 L131.618588,90.6545365 L131.618588,93.517662 C131.618588,93.5191093 131.618366,93.5204452 131.618366,93.5221151 C131.618366,93.5237851 131.618588,103.306928 131.618588,103.306928 L123.687581,103.306928 L123.687581,100.233616 C123.687581,99.7661513 123.30985,99.3870805 122.84379,99.3870805 C122.37773,99.3870805 122,99.7661513 122,100.233616 L122,104.153464 C122,104.620929 122.37773,105 122.84379,105 L160.15621,105 C160.62227,105 161,104.620929 161,104.153464 L161,89.8078894 C161.000111,89.3404245 160.622381,88.9613537 160.156321,88.9613537 Z M154.552728,56.0721482 L157.497005,69.8038621 L156.416856,71.6652611 L155.33016,69.0944821 C155.197999,68.7817626 154.892064,68.5784782 154.553393,68.5784782 C154.214723,68.5784782 153.908899,68.7816512 153.776627,69.0944821 L152.689931,71.6652611 L151.608783,69.8023035 L154.552728,56.0721482 Z M131.435493,68.7122941 L129.846673,68.7122941 L130.875111,65.867649 L131.435493,68.7122941 Z M128.515295,53.4282268 L130.243267,62.6494994 L128.515295,67.4292425 L126.787212,62.6494994 L128.515295,53.4282268 Z M126.155478,65.8675376 L127.184028,68.7121828 L125.595097,68.7121828 L126.155478,65.8675376 Z M131.618588,88.9613537 L124.549902,88.9613537 L124.549902,81.3053484 L124.568323,81.3053484 L131.618588,81.3053484 L131.618588,88.9613537 Z M131.618588,79.6122769 L125.412113,79.6122769 L125.412113,70.4052543 L131.618588,70.4052543 L131.618588,79.6122769 Z M149.872377,92.6752454 L146.497105,92.6752454 C146.031045,92.6752454 145.653315,93.0543162 145.653315,93.5217812 C145.653315,93.9892461 146.031045,94.3683169 146.497105,94.3683169 L149.872377,94.3683169 L149.872377,103.306706 L133.306168,103.306706 L133.306168,94.3683169 L136.682217,94.3683169 C137.148277,94.3683169 137.526007,93.9892461 137.526007,93.5217812 C137.526007,93.0543162 137.148277,92.6752454 136.682217,92.6752454 L133.306168,92.6752454 L133.306168,81.3053484 L149.872377,81.3053484 L149.872377,92.6752454 Z M151.559847,83.035492 L157.546607,83.035492 L157.546607,88.9613537 L151.559847,88.9613537 L151.559847,83.035492 Z M159.31253,103.306706 L151.559958,103.306706 L151.559958,90.6544252 L159.31253,90.6544252 L159.31253,103.306706 Z" id="Shape-Copy-4" stroke="#F8E24D" stroke-width="0.6" fill="#FAFAF0" fill-rule="nonzero"/>
                <path d="M142,76 C141.447659,76 141,76.3816409 141,76.8522753 L141,80.1477247 C141,80.6183591 141.447659,81 142,81 C142.552341,81 143,80.6183591 143,80.1477247 L143,76.8522753 C143,76.3815288 142.552472,76 142,76 Z" id="Shape-Copy-5" stroke="#F8E24D" stroke-width="0.6" fill="#FAFAF0" fill-rule="nonzero"/>
                <path d="M149.137104,77 L134.862896,77 C134.386283,77 134,77.4477906 134,78 C134,78.5522094 134.386283,79 134.862896,79 L149.137104,79 C149.613717,79 150,78.5522094 150,78 C150,77.4477906 149.613717,77 149.137104,77 Z" id="Shape-Copy-6" stroke="#F8E24D" stroke-width="0.6" fill="#FAFAF0" fill-rule="nonzero"/>
                <path d="M142,83 C138.691683,83 136,85.6916829 136,89 C136,92.3083171 138.691683,95 142,95 C145.308317,95 148,92.3083171 148,89 C148,85.6916829 145.308317,83 142,83 Z M142,93.2600389 C139.650955,93.2600389 137.739847,91.3489303 137.739847,88.9998856 C137.739847,86.6508409 139.650841,84.7397323 142,84.7397323 C144.349159,84.7397323 146.260153,86.6508409 146.260153,88.9998856 C146.260153,91.3489303 144.349045,93.2600389 142,93.2600389 Z" id="Shape-Copy-7" stroke="#F8E24D" stroke-width="0.6" fill="#FAFAF0" fill-rule="nonzero"/>
                <path d="M142.86647,86.5005056 C142.590561,86.0219715 141.978936,85.8580341 141.500466,86.13398 C141.021866,86.4099259 140.858082,87.0203198 141.133991,87.4988539 C141.3192,87.8200239 141.654917,88 142.001545,88 C142.170849,88 142.342651,87.9559591 142.499994,87.8653794 C142.977017,87.589565 143.142115,86.9790396 142.86647,86.5005056 Z" id="Shape-Copy-8" stroke="#F8E24D" stroke-width="0.6" fill="#FAFAF0" fill-rule="nonzero"/>
                <path d="M142.867262,90.5021999 C142.591328,90.0233669 141.981093,89.8580117 141.502448,90.1328145 C141.023935,90.4076172 140.857376,91.0197079 141.13331,91.4985408 C141.317222,91.8199114 141.654416,92 142.000943,92 C142.168817,92 142.340766,91.9573786 142.496809,91.8679263 C142.976636,91.5931235 143.142013,90.9810329 142.867262,90.5021999 Z" id="Shape-Copy-9" stroke="#F8E24D" stroke-width="0.6" fill="#FAFAF0" fill-rule="nonzero"/>
                <path d="M142.50246,90.1365587 C142.026611,89.8579563 141.413058,90.0192801 141.135677,90.4964147 C140.858296,90.9735493 141.019674,91.5854491 141.497101,91.8640515 C141.654534,91.9560863 141.827749,92 141.998465,92 C142.343975,92 142.6787,91.8213211 142.863884,91.5027492 C143.142318,91.0256147 142.979756,90.4138463 142.50246,90.1365587 Z" id="Shape-Copy-10" stroke="#F8E24D" stroke-width="0.6" fill="#FAFAF0" fill-rule="nonzero"/>
                <path d="M142.501714,86.1352377 C142.023096,85.8579687 141.412595,86.0205964 141.135286,86.4991451 C140.857977,86.9762476 141.020497,87.5881063 141.499246,87.8653753 C141.656506,87.9559577 141.828493,88 141.999165,88 C142.344454,88 142.680275,87.8213331 142.865674,87.501468 C143.141536,87.024234 142.979017,86.4123753 142.501714,86.1352377 Z" id="Shape-Copy-11" stroke="#F8E24D" stroke-width="0.6" fill="#FAFAF0" fill-rule="nonzero"/>
                <path d="M142.001446,88.0000029 C141.44937,87.9986878 141.00145,88.4466093 141.000003,88.9986863 C140.998688,89.5506319 141.445162,89.9988164 141.99737,90 C141.998685,90 141.998685,90 142,90 C142.550629,90 142.998681,89.5547087 142.999996,89.0026316 C143.001443,88.4506861 142.554574,88.001318 142.001446,88.0000029 Z" id="Shape-Copy-12" stroke="#F8E24D" stroke-width="0.6" fill="#FAFAF0" fill-rule="nonzero"/>
                <path d="M142.000006,88 C141.454638,88.0001307 141.010664,88.4334924 141.000012,88.972874 C141.000012,88.983463 141.000012,88.9927446 141.000012,89.0020263 C140.997381,89.5506896 141.443986,89.9973855 141.996061,90 C141.997507,90 141.998822,90 142.000006,90 C142.545373,90 142.989348,89.5652003 143,89.0232041 C143,89.0139225 143,89.0033336 143,88.9940519 C143,88.4453886 142.552212,88 142.000006,88 Z" id="Shape-Copy-13" stroke="#F8E24D" stroke-width="0.6" fill="#FAFAF0" fill-rule="nonzero"/>
                <path d="M141.999949,97 C140.897195,97 140,97.9112298 140,99.0312339 L140,101.21874 C140,101.650159 140.344351,102 140.769227,102 L143.230773,102 C143.655649,102 144,101.650159 144,101.21874 L144,99.0312339 C143.999899,97.9112298 143.102704,97 141.999949,97 Z M142.461445,100.437481 L141.538353,100.437481 L141.538353,99.0312339 C141.538353,98.7728347 141.745429,98.5625193 141.999848,98.5625193 C142.254268,98.5625193 142.461344,98.7728347 142.461344,99.0312339 L142.461344,100.437481 L142.461445,100.437481 Z" id="Shape-Copy-14" stroke="#F8E24D" stroke-width="0.6" fill="#FAFAF0" fill-rule="nonzero"/>
                <path d="M141.999949,83 C140.897195,83 140,83.9112298 140,85.0312339 L140,87.2187404 C140,87.6501593 140.344351,88 140.769227,88 L143.230773,88 C143.655649,88 144,87.6501593 144,87.2187404 L144,85.0312339 C143.999899,83.9111271 143.102704,83 141.999949,83 Z M142.461445,86.4374807 L141.538353,86.4374807 L141.538353,85.0312339 C141.538353,84.7728347 141.745429,84.5625193 141.999848,84.5625193 C142.254268,84.5625193 142.461344,84.7728347 142.461344,85.0312339 L142.461344,86.4374807 L142.461445,86.4374807 Z" id="Shape-Copy-15" stroke="#F8E24D" stroke-width="0.6" fill="#FAFAF0" fill-rule="nonzero"/>
                <path d="M141.999949,96 C140.897195,96 140,96.9956698 140,98.2194602 L140,102.146344 C140,102.617741 140.344351,103 140.769227,103 L143.230773,103 C143.655649,103 144,102.617741 144,102.146344 L144,98.2194602 C143.999899,96.9957821 143.102704,96 141.999949,96 Z M142.461445,101.292801 L141.538353,101.292801 L141.538353,98.2195724 C141.538353,97.9372284 141.745429,97.7074239 141.999848,97.7074239 C142.254268,97.7074239 142.461344,97.9372284 142.461344,98.2195724 L142.461344,101.292801 L142.461445,101.292801 Z" id="Shape-Copy-16" stroke="#F8E24D" stroke-width="0.6" fill="#FAFAF0" fill-rule="nonzero"/>
                <path d="M141.999949,97 C140.897195,97 140,97.9112298 140,99.0312339 L140,101.21874 C140,101.650159 140.344351,102 140.769227,102 L143.230773,102 C143.655649,102 144,101.650159 144,101.21874 L144,99.0312339 C143.999899,97.9112298 143.102704,97 141.999949,97 Z M142.461445,100.437481 L141.538353,100.437481 L141.538353,99.0312339 C141.538353,98.7728347 141.745429,98.5625193 141.999848,98.5625193 C142.254268,98.5625193 142.461344,98.7728347 142.461344,99.0312339 L142.461344,100.437481 L142.461445,100.437481 Z" id="Shape-Copy-17" stroke="#F8E24D" stroke-width="0.6" fill="#FAFAF0" fill-rule="nonzero"/>
                <path d="M141.999949,94 C140.897195,94 140,95.0199528 140,96.2735898 L140,101.125525 C140,101.608418 140.344351,102 140.769227,102 L143.230773,102 C143.655649,102 144,101.608418 144,101.125525 L144,96.2735898 C143.999899,95.0198378 143.102704,94 141.999949,94 Z M142.461445,100.251049 L141.538353,100.251049 L141.538353,96.2735898 C141.538353,95.9843597 141.745429,95.7489506 141.999848,95.7489506 C142.254268,95.7489506 142.461344,95.9843597 142.461344,96.2735898 L142.461344,100.251049 L142.461445,100.251049 Z" id="Shape-Copy-18" stroke="#F8E24D" stroke-width="0.6" fill="#FAFAF0" fill-rule="nonzero"/>
                <path d="M141.999949,94 C140.897195,94 140,95.0199528 140,96.2735898 L140,101.125525 C140,101.608418 140.344351,102 140.769227,102 L143.230773,102 C143.655649,102 144,101.608418 144,101.125525 L144,96.2735898 C143.999899,95.0199528 143.102704,94 141.999949,94 Z M142.461445,100.251049 L141.538353,100.251049 L141.538353,96.2735898 C141.538353,95.9843597 141.745429,95.7489506 141.999848,95.7489506 C142.254268,95.7489506 142.461344,95.9843597 142.461344,96.2735898 L142.461344,100.251049 L142.461445,100.251049 Z" id="Shape-Copy-19" stroke="#F8E24D" stroke-width="0.6" fill="#FAFAF0" fill-rule="nonzero"/>
                <path d="M141.999949,72 C140.897195,72 140,73.0199528 140,74.2735898 L140,79.1255247 C140,79.6084181 140.344351,80 140.769227,80 L143.230773,80 C143.655649,80 144,79.6084181 144,79.1255247 L144,74.2735898 C143.999899,73.0200679 143.102704,72 141.999949,72 Z M142.461546,78.2512794 L141.538454,78.2512794 L141.538454,74.2738198 C141.538454,73.9845897 141.74553,73.7491806 141.999949,73.7491806 C142.254369,73.7491806 142.461445,73.9845897 142.461445,74.2738198 L142.461445,78.2512794 L142.461546,78.2512794 Z" id="Shape-Copy-20" stroke="#F8E24D" stroke-width="0.6" fill="#FAFAF0" fill-rule="nonzero"/>
            </g>
        </g>
    </g>
</svg>