<?xml version="1.0" encoding="UTF-8"?>
<svg width="283px" height="235px" viewBox="0 0 283 235" version="1.1" xmlns="http://www.w3.org/2000/svg" xmlns:xlink="http://www.w3.org/1999/xlink">
    <!-- Generator: Sketch 49.3 (51167) - http://www.bohemiancoding.com/sketch -->
    <title>sanfransisco</title>
    <desc>Created with Sketch.</desc>
    <defs>
        <linearGradient x1="50%" y1="100%" x2="50%" y2="3.061617e-15%" id="linearGradient-1">
            <stop stop-color="#20A6C5" offset="0%"/>
            <stop stop-color="#5EE1FF" offset="100%"/>
        </linearGradient>
    </defs>
    <g id="Page-1" stroke="none" stroke-width="1" fill="none" fill-rule="evenodd">
        <g id="180424_Artyllect_Home_v2" transform="translate(-505.000000, -3183.000000)">
            <g id="sanfransisco" transform="translate(505.000000, 3183.000000)">
                <g id="Group-6-Copy" transform="translate(99.000000, 48.000000)"/>
                <rect id="Rectangle-8-Copy-5" fill="url(#linearGradient-1)" x="0" y="0" width="283" height="235"/>
                <text id="SAN-FRANSISCO-Copy" font-family="GorditaBold, Gordita" font-size="24" font-weight="bold" letter-spacing="2.0999999" fill="#F9F9F0">
                    <tspan x="19.4769537" y="160">SAN FRANSISCO</tspan>
                </text>
                <text id="MEETUPS-IN-Copy-3" font-family="GorditaMedium, Gordita" font-size="9" font-weight="400" line-spacing="13" letter-spacing="1.00800014" fill="#F9F9F0">
                    <tspan x="107.272743" y="130">MEETUPS IN</tspan>
                </text>
                <path d="M183.227915,75.0319961 C183.654299,75.0319961 184,74.6886591 184,74.2651908 C184,73.8417226 183.654299,73.4983855 183.227915,73.4983855 L178.869492,73.4983855 L178.869492,71.3885207 C180.272758,71.7013773 181.731034,71.8675823 183.227915,71.8675823 C183.654299,71.8675823 184,71.5242452 184,71.100777 C184,70.6773088 183.654299,70.3339717 183.227915,70.3339717 C173.113595,70.3339717 164.885288,62.161744 164.885288,52.116786 C164.885288,51.6933178 164.539587,51.3499807 164.113202,51.3499807 L163.385898,51.3499807 L163.385898,48.7668053 C163.385898,48.3433371 163.040197,48 162.613813,48 C162.187428,48 161.841727,48.3433371 161.841727,48.7668053 L161.841727,51.3501724 L161.114616,51.3501724 C160.688231,51.3501724 160.34253,51.6935095 160.34253,52.1169777 C160.34253,62.1619357 152.11403,70.3341634 141.999903,70.3341634 C131.885777,70.3341634 123.657277,62.1619357 123.657277,52.1169777 C123.657277,51.6935095 123.311576,51.3501724 122.885191,51.3501724 L122.15808,51.3501724 L122.15808,48.7668053 C122.15808,48.3433371 121.812379,48 121.385994,48 C120.95961,48 120.613909,48.3433371 120.613909,48.7668053 L120.613909,51.3501724 L119.886798,51.3501724 C119.460413,51.3501724 119.114712,51.6935095 119.114712,52.1169777 C119.114712,62.1619357 110.886212,70.3341634 100.772085,70.3341634 C100.345701,70.3341634 100,70.6775005 100,71.1009687 C100,71.5244369 100.345701,71.867774 100.772085,71.867774 C102.269738,71.867774 103.728594,71.7013773 105.132438,71.388329 L105.132438,73.4985772 L100.772085,73.4985772 C100.345701,73.4985772 100,73.8419143 100,74.2653825 C100,74.6888508 100.345701,75.0321878 100.772085,75.0321878 L119.114712,75.0321878 L119.114712,76.6616491 L100.772085,76.6616491 C100.345701,76.6616491 100,77.0049862 100,77.4284545 C100,77.8519227 100.345701,78.1952598 100.772085,78.1952598 L119.114712,78.1952598 L119.114712,88.2020692 L118.57599,88.2020692 C118.149605,88.2020692 117.803904,88.5454063 117.803904,88.9688745 L117.803904,94.4647599 C117.10092,94.4799043 116.393304,94.23491 115.845509,93.7253679 C114.189386,92.1846643 111.594793,92.1846643 109.938477,93.7251762 C108.874157,94.7155052 107.206838,94.7151218 106.142712,93.7251762 C105.831561,93.4357072 105.343024,93.4516184 105.051369,93.7608326 C104.759907,94.0698552 104.775927,94.5552429 105.087078,94.8447119 C106.743201,96.3852238 109.337794,96.3850321 110.994111,94.8445202 C112.058237,93.8545746 113.725556,93.8543829 114.789876,94.8447119 C116.446192,96.3852238 119.040785,96.3850321 120.696908,94.8445202 C121.761228,93.8545746 123.428353,93.8543829 124.49248,94.8447119 C126.14899,96.3852238 128.74339,96.3850321 130.399513,94.8445202 C131.463833,93.8545746 133.130958,93.8543829 134.195278,94.8447119 C135.851594,96.3852238 138.446187,96.3850321 140.102117,94.8445202 C141.166244,93.8547663 142.833563,93.8541912 143.897883,94.8447119 C145.554392,96.3850321 148.148599,96.3852238 149.804915,94.8445202 C150.869235,93.8543829 152.53636,93.8545746 153.60068,94.8447119 C155.256996,96.3852238 157.85159,96.3850321 159.50752,94.8445202 C160.572033,93.8543829 162.239158,93.8545746 163.303285,94.8447119 C164.959601,96.3852238 167.554194,96.3850321 169.210317,94.8445202 C170.27483,93.8543829 171.941956,93.8545746 173.006082,94.8447119 C173.834144,95.6149679 174.89692,95.9999041 175.959695,95.9999041 C177.022278,95.9999041 178.085053,95.6147762 178.913115,94.8447119 C179.224266,94.5550512 179.240286,94.0698552 178.948824,93.7608326 C178.657362,93.4520018 178.168825,93.4362823 177.857481,93.7251762 C176.793548,94.7155052 175.126422,94.7153135 174.061716,93.7253679 C172.405786,92.1846643 169.810807,92.1844726 168.154684,93.7251762 C167.606889,94.2351017 166.899273,94.4802877 166.196289,94.4651433 L166.196289,88.9688745 C166.196289,88.5454063 165.850588,88.2020692 165.424203,88.2020692 L164.885288,88.2020692 L164.885288,78.1952598 L183.227915,78.1952598 C183.654299,78.1952598 184,77.8519227 184,77.4284545 C184,77.0049862 183.654299,76.6616491 183.227915,76.6616491 L164.885288,76.6616491 L164.885288,75.0321878 L183.227915,75.0321878 L183.227915,75.0319961 Z M177.325128,73.4983855 L173.736861,73.4983855 L173.736861,69.4693987 C174.871055,70.0838014 176.071648,70.59181 177.325128,70.97943 L177.325128,73.4983855 Z M172.192883,68.5398389 L172.192883,73.4983855 L168.60423,73.4983855 L168.60423,65.4868036 C169.673183,66.6391202 170.877636,67.6652975 172.192883,68.5398389 Z M167.06006,63.6041048 L167.06006,73.4983855 L164.885288,73.4983855 L164.885288,59.7461156 C165.46551,61.1173552 166.197447,62.4103806 167.06006,63.6041048 Z M160.34253,76.6614574 L123.657277,76.6614574 L123.657277,75.0319961 L160.34253,75.0319961 L160.34253,76.6614574 Z M120.658883,52.8835914 L122.113106,52.8835914 L122.113106,88.2013024 L120.658883,88.2013024 L120.658883,52.8835914 Z M147.903655,73.4983855 L147.903655,70.9790466 C149.157135,70.5914266 150.357728,70.0832263 151.491922,69.4688236 L151.491922,73.4983855 L147.903655,73.4983855 Z M146.359484,73.4983855 L142.771217,73.4983855 L142.771217,71.8512877 C143.998833,71.8045126 145.198074,71.6473175 146.359484,71.388329 L146.359484,73.4983855 Z M141.227046,73.4983855 L137.640709,73.4983855 L137.640709,71.388329 C138.801347,71.6473175 140.000202,71.8045126 141.227046,71.8512877 L141.227046,73.4983855 Z M136.096538,73.4983855 L132.508271,73.4983855 L132.508271,69.4688236 C133.642465,70.0832263 134.843058,70.5912349 136.096538,70.9792383 L136.096538,73.4983855 Z M161.886701,52.8835914 L163.340924,52.8835914 L163.340924,88.2013024 L161.886701,88.2013024 L161.886701,52.8835914 Z M160.34253,73.4983855 L158.168338,73.4983855 L158.168338,63.6031463 C159.030564,62.4094221 159.762308,61.1169718 160.34253,59.7461156 L160.34253,73.4983855 Z M156.624167,65.4860368 L156.624167,73.4985772 L153.0359,73.4985772 L153.0359,68.5392638 C154.351147,67.6645307 155.555407,66.6383534 156.624167,65.4860368 Z M130.963907,68.5392638 L130.963907,73.4983855 L127.375447,73.4983855 L127.375447,65.4858451 C128.4444,66.6383534 129.648853,67.6647224 130.963907,68.5392638 Z M125.831276,63.6029546 L125.831276,73.4983855 L123.657277,73.4983855 L123.657277,59.7461156 C124.237499,61.1169718 124.969243,62.4094221 125.831276,63.6029546 Z M115.397314,65.4850782 L115.397314,73.4985772 L111.809047,73.4985772 L111.809047,68.5386887 C113.124101,67.6637639 114.328555,66.6373949 115.397314,65.4850782 Z M106.676609,70.9790466 C107.93009,70.5912349 109.130682,70.0830346 110.264876,69.4684402 L110.264876,73.4983855 L106.676609,73.4983855 L106.676609,70.9790466 Z M116.941485,73.4983855 L116.941485,63.6018044 C117.803325,62.4084636 118.534683,61.1163967 119.114712,59.7461156 L119.114712,73.4983855 L116.941485,73.4983855 Z M119.641081,93.7249845 C119.548238,93.8114418 119.449218,93.8875472 119.347882,93.9588601 L119.347882,89.7356798 L123.424493,89.7356798 L123.424493,92.6503068 C122.104034,92.3961109 120.686099,92.7532504 119.641081,93.7249845 Z M164.358919,93.7251762 C163.314287,92.7532504 161.896159,92.3957275 160.575507,92.6503068 L160.575507,89.7356798 L164.651925,89.7356798 L164.651925,93.9590518 C164.550589,93.8877389 164.451762,93.8116335 164.358919,93.7251762 Z M159.803422,88.2020692 C159.377037,88.2020692 159.031336,88.5454063 159.031336,88.9688745 L159.031336,93.27602 C158.82905,93.4081022 158.633905,93.5557122 158.451886,93.7251762 C157.387952,94.7155052 155.720634,94.7153135 154.656121,93.7253679 C153.000384,92.1846643 150.405405,92.1844726 148.749088,93.7251762 C147.684769,94.7155052 146.017643,94.7149301 144.953323,93.7253679 C143.297393,92.1844726 140.702607,92.184856 139.046484,93.7251762 C137.982164,94.7155052 136.314845,94.7149301 135.250719,93.7253679 C133.594788,92.1846643 131.000002,92.1846643 129.343686,93.7251762 C128.279559,94.7151218 126.612241,94.7151218 125.547921,93.7253679 C125.365902,93.5559039 125.170757,93.4084856 124.968664,93.2764034 L124.968664,88.9688745 C124.968664,88.5454063 124.622963,88.2020692 124.196578,88.2020692 L123.657277,88.2020692 L123.657277,78.1952598 L160.34253,78.1952598 L160.34253,88.2020692 L159.803422,88.2020692 Z" id="Shape" stroke="#30BCDC" stroke-width="0.5" fill="#F9F9F0" fill-rule="nonzero"/>
                <path d="M177.706002,100.010506 C176.646571,100.876451 174.986502,100.876619 173.926303,100.010674 C172.277381,98.6630527 169.693385,98.6632204 168.044272,100.010506 C166.984841,100.876451 165.324772,100.876619 164.264572,100.010674 C162.615843,98.6630527 160.031655,98.6632204 158.382541,100.010506 C157.323111,100.876451 155.662849,100.876619 154.602842,100.010674 C152.954113,98.6630527 150.370117,98.6632204 148.720811,100.010506 C147.660996,100.876619 146.000927,100.876116 144.941112,100.010674 C143.29219,98.6630527 140.708386,98.6635557 139.059273,100.010506 C137.999458,100.876451 136.339196,100.876284 135.279573,100.010674 C133.630652,98.6632204 131.046848,98.6633881 129.397542,100.010506 C128.33792,100.876284 126.677658,100.876116 125.617843,100.010674 C123.968922,98.6632204 121.38531,98.6633881 119.735812,100.010506 C118.676189,100.876284 117.015928,100.876116 115.956113,100.010674 C114.306999,98.6632204 111.723388,98.6633881 110.074082,100.010506 C109.014267,100.876451 107.354005,100.876451 106.294382,100.010506 C105.984549,99.7573454 105.49808,99.7712609 105.207659,100.041691 C104.91743,100.311952 104.933383,100.736291 105.243217,100.989619 C106.89233,102.336738 109.475942,102.336905 111.125248,100.989452 C112.18487,100.123842 113.845132,100.123339 114.904947,100.989619 C116.554253,102.336738 119.137864,102.336905 120.786978,100.989452 C121.846793,100.123507 123.506862,100.123674 124.566485,100.989619 C126.215983,102.336738 128.799402,102.336905 130.448516,100.989452 C131.508331,100.123842 133.1684,100.123339 134.228215,100.989619 C135.877521,102.336738 138.461133,102.336905 140.110054,100.989452 C141.169677,100.123674 142.829939,100.123507 143.889754,100.989619 C145.539059,102.33657 148.122286,102.337073 149.771785,100.989452 C150.8316,100.123674 152.491669,100.123507 153.551484,100.989619 C155.20079,102.336905 157.784401,102.336738 159.433323,100.989452 C160.49333,100.123674 162.153399,100.123507 163.213022,100.989619 C164.862328,102.336905 167.445939,102.336738 169.095053,100.989452 C170.15506,100.123674 171.81513,100.123507 172.874752,100.989619 C173.699309,101.663095 174.757587,101.999916 175.815864,101.999916 C176.873949,101.999916 177.932227,101.663095 178.756783,100.989619 C179.066617,100.736291 179.08257,100.311952 178.792341,100.041691 C178.502689,99.7715962 178.01622,99.7578484 177.706002,100.010506 Z" id="Shape" stroke="#30BCDC" stroke-width="0.5" fill="#F9F9F0" fill-rule="nonzero"/>
            </g>
        </g>
    </g>
</svg>