<?xml version="1.0" encoding="UTF-8"?>
<svg width="283px" height="235px" viewBox="0 0 283 235" version="1.1" xmlns="http://www.w3.org/2000/svg" xmlns:xlink="http://www.w3.org/1999/xlink">
    <!-- Generator: Sketch 49.3 (51167) - http://www.bohemiancoding.com/sketch -->
    <title>seattle</title>
    <desc>Created with Sketch.</desc>
    <defs>
        <linearGradient x1="50%" y1="0%" x2="50%" y2="100%" id="linearGradient-1">
            <stop stop-color="#00BACC" offset="0%"/>
            <stop stop-color="#00849D" offset="100%"/>
        </linearGradient>
    </defs>
    <g id="Page-1" stroke="none" stroke-width="1" fill="none" fill-rule="evenodd">
        <g id="180424_Artyllect_Home_v2" transform="translate(-200.000000, -3440.000000)">
            <g id="seattle" transform="translate(200.000000, 3440.000000)">
                <rect id="Rectangle-8-Copy-8" fill="url(#linearGradient-1)" x="0" y="0" width="283" height="235"/>
                <text id="Seattle" font-family="GorditaBold, Gordita" font-size="24" font-weight="bold" letter-spacing="2.0999999" fill="#F9F9F0">
                    <tspan x="78.0113285" y="160">SEATTLE</tspan>
                </text>
                <text id="MEETUPS-IN-Copy-5" font-family="GorditaMedium, Gordita" font-size="9" font-weight="400" line-spacing="13" letter-spacing="1.00800014" fill="#F9F9F0">
                    <tspan x="107.272743" y="130">MEETUPS IN</tspan>
                </text>
                <g id="Group-4" transform="translate(127.000000, 53.000000)" fill="#F9F9F0" fill-rule="nonzero">
                    <path d="M24.9144118,11.8787879 L22.1764706,11.8787879 L22.1764706,10.3515152 C22.1764706,9.36812455 21.7837685,8.42501108 21.0847542,7.72964892 C20.3857399,7.03428676 19.4376731,6.64363636 18.4491176,6.64363636 L15.0373529,6.64363636 L15.0373529,0.848484848 C15.0373529,0.576693808 14.8158656,0.356363636 14.5426471,0.356363636 C14.2694285,0.356363636 14.0479412,0.576693808 14.0479412,0.848484848 L14.0479412,6.61818182 L10.6361765,6.61818182 C9.63292657,6.59533808 8.66279904,6.97588045 7.94522729,7.67373395 C7.22765554,8.37158745 6.82326663,9.32779097 6.82352941,10.3260606 L6.82352941,11.8787879 L4.08558824,11.8787879 C1.83361099,11.8972982 0.0139110399,13.71127 0,15.9515152 L0,16.1636364 C-6.06051157e-15,18.4269997 1.84445515,20.2618182 4.11970588,20.2618182 L8.78529412,20.2618182 C8.89617647,21.110303 9.15205882,23.0448485 9.34823529,25.7090909 C9.50176471,27.7624242 9.57852941,29.68 9.59558824,31.5721212 C9.59558824,33.6169697 9.59558824,35.5854545 9.45911765,37.4351515 C9.33970588,39.4630303 9.14352941,41.4315152 8.86205882,43.289697 C8.58250776,45.2570386 8.18662511,47.2062777 7.67647059,49.1272727 C7.13891975,51.1255599 6.41947571,53.070974 5.52705882,54.9393939 C5.44173539,55.0864063 5.44173539,55.2675331 5.52705882,55.4145455 C5.61880684,55.5559382 5.77583293,55.6420108 5.945,55.6436364 L23.0294118,55.6436364 C23.1981796,55.6405111 23.3545438,55.5548014 23.4473529,55.4145455 C23.5277267,55.266252 23.5277267,55.0876874 23.4473529,54.9393939 C22.5636951,53.0700986 21.8528242,51.1247073 21.3235294,49.1272727 C20.7923289,47.2019924 20.3764993,45.247038 20.0782353,43.2727273 C19.8052941,41.3975758 19.6005882,39.4290909 19.4897059,37.4181818 C19.3702941,35.5684848 19.3276471,33.5915152 19.3447059,31.5551515 C19.3447059,29.6206061 19.4470588,27.6436364 19.5920588,25.6921212 C19.7882353,23.0278788 20.0441176,21.0593939 20.155,20.2448485 L24.9144118,20.2448485 C27.1696935,20.2262871 28.9907382,18.4071929 29,16.1636364 L29,15.9515152 C28.986089,13.71127 27.166389,11.8972982 24.9144118,11.8787879 Z M10.5679412,7.63636364 L18.4320588,7.63636364 C19.9488926,7.63636364 21.1785294,8.85957597 21.1785294,10.3684848 L7.82147059,10.3684848 C7.82147059,8.85957597 9.05110735,7.63636364 10.5679412,7.63636364 Z M7.82147059,11.3781818 L21.1785294,11.3781818 L21.1785294,11.8787879 L7.82147059,11.8787879 L7.82147059,11.3781818 Z M10.3802941,26.2012121 L12.7002941,26.2012121 L12.7002941,31.1224242 L10.5764706,31.1224242 C10.5508824,29.4848485 10.4826471,27.8727273 10.3632353,26.1587879 L10.3802941,26.2012121 Z M10.6020588,32.1406061 L12.7002941,32.1406061 L12.7002941,37.0618182 L10.4826471,37.0618182 C10.5508824,35.4072727 10.5935294,33.7612121 10.585,32.0557576 L10.6020588,32.1406061 Z M10.4314706,38.0375758 L12.7002941,38.0375758 L12.7002941,42.9587879 L9.91117647,42.9587879 C10.1329412,41.2957576 10.3035294,39.649697 10.4144118,37.9527273 L10.4314706,38.0375758 Z M12.7002941,25.310303 L10.3120588,25.310303 C10.1329412,22.9854545 9.91117647,21.2375758 9.79176471,20.3890909 L12.7002941,20.3890909 L12.7002941,25.310303 Z M9.78323529,43.9769697 L12.7002941,43.9769697 L12.7002941,48.889697 L8.77676471,48.889697 C9.19364719,47.2277784 9.52389174,45.5455339 9.76617647,43.849697 L9.78323529,43.9769697 Z M8.52941176,49.7381818 L12.7173529,49.7381818 L12.7173529,54.6593939 L6.74676471,54.6593939 C7.46035001,53.0642396 8.05614321,51.4194806 8.52941176,49.7381818 Z M13.6470588,49.2545455 L13.6470588,20.2618182 L15.3529412,20.2618182 L15.3529412,54.6593939 L13.6470588,54.6593939 L13.6470588,49.2545455 Z M18.4576471,36.9769697 L16.3252941,36.9769697 L16.3252941,32.0557576 L18.3638235,32.0557576 C18.3552941,33.7527273 18.3894118,35.4072727 18.4747059,36.9769697 L18.4576471,36.9769697 Z M16.3082353,37.9527273 L18.5173529,37.9527273 C18.6282353,39.649697 18.7902941,41.2872727 19.0120588,42.8739394 L16.3252941,42.8739394 L16.3082353,37.9527273 Z M18.3552941,31.08 L16.3082353,31.08 L16.3082353,26.1587879 L18.56,26.1587879 C18.4661765,27.8048485 18.3979412,29.4509091 18.3723529,31.08 L18.3552941,31.08 Z M16.3082353,54.6593939 L16.3082353,49.7381818 L20.4705882,49.7381818 C20.9424871,51.4199159 21.538316,53.0647734 22.2532353,54.6593939 L16.3082353,54.6593939 Z M20.1720588,48.72 L16.3252941,48.72 L16.3252941,43.849697 L19.1741176,43.849697 C19.4297241,45.5031144 19.7684824,47.1427474 20.1891176,48.7624242 L20.1720588,48.72 Z M18.6452941,25.1830303 L16.3252941,25.1830303 L16.3252941,20.2618182 L19.1655882,20.2618182 C19.0461765,21.110303 18.8244118,22.8581818 18.6452941,25.1830303 Z M28.0276471,16.1636364 C28.0276471,17.8881037 26.6223479,19.2860606 24.8888235,19.2860606 L4.08558824,19.2860606 C2.35206387,19.2860606 0.946764706,17.8881037 0.946764706,16.1636364 L0.946764706,15.9515152 C0.946764706,14.2270479 2.35206387,12.8290909 4.08558824,12.8290909 L24.9144118,12.8290909 C26.6479361,12.8290909 28.0532353,14.2270479 28.0532353,15.9515152 L28.0276471,16.1636364 Z" id="Shape"/>
                    <path d="M24.4367647,13.5757576 L4.56323529,13.5757576 C3.64020555,13.5219544 2.76317818,13.9812493 2.28533854,14.7686807 C1.8074989,15.5561121 1.8074989,16.5420697 2.28533854,17.3295011 C2.76317818,18.1169325 3.64020555,18.5762274 4.56323529,18.5224242 L24.4367647,18.5224242 C25.8089545,18.5224322 26.9226537,17.4183459 26.9273529,16.0533333 C26.9273529,15.3962394 26.6649524,14.7660583 26.1978765,14.3014227 C25.7308006,13.8367871 25.0973098,13.5757576 24.4367647,13.5757576 Z M4.56323529,14.56 L24.4367647,14.56 C25.0771245,14.5527389 25.6490928,14.9571945 25.8526471,15.5612121 L3.14735294,15.5612121 C3.35386704,14.9605491 3.92513547,14.5600118 4.56323529,14.5684848 L4.56323529,14.56 Z M24.4367647,17.5466667 L4.56323529,17.5466667 C3.92314686,17.5448052 3.35465246,17.1393993 3.14735294,16.5369697 L25.8526471,16.5369697 C25.6482732,17.1427496 25.0790988,17.5520513 24.4367647,17.5551515 L24.4367647,17.5466667 Z" id="Shape"/>
                </g>
            </g>
        </g>
    </g>
</svg>