<?xml version="1.0" encoding="UTF-8"?>
<svg width="45px" height="45px" viewBox="0 0 45 45" version="1.1" xmlns="http://www.w3.org/2000/svg" xmlns:xlink="http://www.w3.org/1999/xlink">
    <!-- Generator: Sketch 49.3 (51167) - http://www.bohemiancoding.com/sketch -->
    <title>twitter_social</title>
    <desc>Created with Sketch.</desc>
    <defs/>
    <g id="Page-1" stroke="none" stroke-width="1" fill="none" fill-rule="evenodd" opacity="0.5">
        <g id="180424_Artyllect_Home_v2" transform="translate(-1005.000000, -6472.000000)">
            <g id="twitter_social" transform="translate(1005.000000, 6472.000000)">
                <circle id="Oval" stroke="#FFFFFF" cx="22.5" cy="22.5" r="22"/>
                <path d="M31.4083465,17.0038278 C32.3406703,16.4110212 33.0560545,15.4710386 33.3917943,14.3512928 C32.5188707,14.90156 31.5542642,15.2995089 30.5250924,15.5149502 C29.7038211,14.5818287 28.5300229,14 27.2309679,14 C24.7387451,14 22.7191407,16.1475516 22.7191407,18.79597 C22.7191407,19.171963 22.7565886,19.5383504 22.834067,19.888271 C19.0841111,19.6879243 15.7589951,17.7805142 13.5314903,14.8768597 C13.1428068,15.5876788 12.920702,16.4110212 12.920702,17.2892532 C12.920702,18.952405 13.7174385,20.4206991 14.9286846,21.2824642 C14.1887656,21.257764 13.4927511,21.0395782 12.8832541,20.6827965 L12.8832541,20.7418027 C12.8832541,23.066373 14.4379879,25.0053445 16.5053707,25.4444605 C16.1257264,25.556984 15.7280038,25.6132457 15.3147855,25.6132457 C15.0242414,25.6132457 14.7401538,25.5844287 14.4663967,25.528167 C15.039737,27.4328326 16.7068146,28.8215369 18.6825145,28.8585873 C17.1368199,30.1457461 15.19082,30.9114546 13.0769502,30.9114546 C12.7128015,30.9114546 12.3525269,30.890871 12,30.8455872 C13.9976522,32.2054745 16.3697834,33 18.9188237,33 C27.2219287,33 31.7595821,25.6914632 31.7595821,19.3530984 C31.7595821,19.1445183 31.7569995,18.9373104 31.7479603,18.732847 C32.6299231,18.056334 33.3969596,17.2110357 34,16.2490972 C33.1903504,16.6305792 32.3200094,16.8885599 31.4083465,17.0038278 Z" id="Shape" fill="#FFFFFF"/>
            </g>
        </g>
    </g>
</svg>