<?xml version="1.0" encoding="UTF-8"?>
<svg width="283px" height="235px" viewBox="0 0 283 235" version="1.1" xmlns="http://www.w3.org/2000/svg" xmlns:xlink="http://www.w3.org/1999/xlink">
    <!-- Generator: Sketch 49.3 (51167) - http://www.bohemiancoding.com/sketch -->
    <title>atlanta</title>
    <desc>Created with Sketch.</desc>
    <defs>
        <linearGradient x1="50%" y1="0%" x2="50%" y2="100%" id="linearGradient-1">
            <stop stop-color="#0064A3" offset="0%"/>
            <stop stop-color="#00346A" offset="100%"/>
        </linearGradient>
        <path d="M159.010159,88.7433029 L155.846606,88.7433029 L155.846606,91.9208142 L159.010159,91.9208142 L159.010159,88.7433029 Z M157.205415,91.4752594 L156.292278,91.4752594 L156.292278,89.188864 L157.205396,89.188864 L157.205415,91.4752594 Z M158.5645,91.4752594 L157.651074,91.4752594 L157.651074,89.188864 L158.5645,89.188864 L158.5645,91.4752594 Z M125.819693,88.7334866 L122.656171,88.7334866 L122.656171,91.9109979 L125.819693,91.9109979 L125.819693,88.7334866 Z M124.015257,91.4654431 L123.10183,91.4654431 L123.10183,89.1790414 L124.015257,89.1790414 L124.015257,91.4654431 Z M125.374034,91.4654431 L124.460916,91.4654431 L124.460916,89.1790414 L125.374034,89.1790414 L125.374034,91.4654431 Z M164.695726,70.3232459 C164.495993,70.3229705 164.297072,70.3486545 164.103963,70.3996522 C163.454023,69.1428303 162.009353,68.5166326 160.64751,68.9014397 C157.374367,64.0032935 152.399472,60.4938814 146.686396,59.0529301 C145.805498,58.3431932 144.797462,57.8076741 143.716159,57.4749932 L143.716159,55.7910753 L142.854297,55.7910753 L142.854297,53.4635545 L143.493323,53.4635545 L143.493323,53.0179871 L142.793336,53.0179871 C142.631057,52.148891 141.919026,51.4883381 141.040035,51.3914462 L141.040035,49 L140.594363,49 L140.594363,51.3914588 C139.715428,51.488356 139.003479,52.1489344 138.841333,53.0179997 L138.165596,53.0179997 L138.165596,53.463567 L138.804623,53.463567 L138.804623,55.7910816 L137.94281,55.7910816 L137.94281,57.4749995 C136.839875,57.8148629 135.81359,58.3659584 134.921124,59.0975874 L134.914643,59.0723114 C130.53152,60.1964742 126.560562,62.5484461 123.468689,65.8516724 C123.114432,65.5318171 122.635578,65.3872694 122.16346,65.457674 C121.691343,65.5280786 121.275526,65.8060444 121.030053,66.2153346 C120.565576,66.126993 120.091126,66.309283 119.805366,66.685876 C119.519607,67.062469 119.471847,67.5683808 119.682086,67.9917754 C119.892325,68.4151701 120.324283,68.6829874 120.797091,68.6830866 L121.183046,68.6830866 C115.099638,77.535962 115.703269,89.3659588 122.656196,97.553961 L122.751805,97.6642782 C130.718711,106.991137 144.474966,108.727787 154.510847,101.673681 L154.585776,101.620364 C156.186242,100.486714 157.641866,99.1614322 158.920164,97.6740946 L159.010172,97.5702629 C164.331694,91.3137165 166.05067,82.756218 163.557861,74.9307142 L164.695726,74.9307142 C165.968341,74.9307142 167,73.8992973 167,72.62698 C167,71.3546628 165.968341,70.3232459 164.695726,70.3232459 Z M149.320562,65.2542602 L146.905812,65.2542602 C146.849145,61.9952397 145.561153,59.2265757 143.527054,57.8811571 C146.851943,58.8245672 149.190948,61.8012999 149.320562,65.2542602 Z M152.412072,97.2819324 L152.704575,87.5514699 L153.908656,87.5514699 L154.155429,97.2819324 L152.412091,97.2819324 L152.412072,97.2819324 Z M154.148684,97.7274872 L154.148684,99.1141884 L152.40534,99.1141884 L152.40534,97.7274872 L154.148684,97.7274872 Z M152.490646,85.9140883 L154.123515,85.9140883 L153.935365,87.1059214 L152.678809,87.1059214 L152.490646,85.9140883 Z M127.506256,85.468521 L127.506256,83.7602445 L154.160055,83.7602445 L154.160055,85.468521 L127.506256,85.468521 Z M149.612316,97.2819324 L149.360163,87.3436495 L149.585375,85.9140758 L152.039663,85.9140758 L152.264699,87.3426502 L151.966306,97.2819324 L149.612316,97.2819324 Z M151.959681,97.7274872 L151.959681,99.1141884 L149.617804,99.1141884 L149.617804,97.7274872 L151.959681,97.7274872 Z M147.71542,87.5514825 L148.91952,87.5514825 L149.166293,97.281945 L147.422949,97.281945 L147.71542,87.5514825 Z M147.501491,85.9140883 L149.13436,85.9140883 L148.94621,87.1059214 L147.689365,87.1059214 L147.501491,85.9140883 Z M149.172138,97.7274872 L149.172138,99.1141759 L147.416198,99.1141759 L147.416198,97.7274872 L149.172138,97.7274872 Z M144.622866,97.2819199 L144.370725,87.3436369 L144.595937,85.9140632 L147.050087,85.9140632 L147.2756,87.3415253 L146.97717,97.2819324 L144.622866,97.2819199 Z M146.970532,97.7274872 L146.970532,99.1141759 L144.732706,99.1141759 L144.732706,97.7274872 L146.970532,97.7274872 Z M142.726001,87.5514699 L143.930088,87.5514699 L144.176861,97.2819324 L142.433498,97.2819324 L142.726001,87.5514699 Z M142.512072,85.9140758 L144.144941,85.9140758 L143.956784,87.1059151 L142.700229,87.1059151 L142.512072,85.9140758 Z M144.287047,97.7274872 L144.287047,99.1141759 L142.426747,99.1141759 L142.426747,97.7274872 L144.287047,97.7274872 Z M139.633723,97.2819199 L139.381274,87.3424366 L139.606908,85.9140506 L142.061076,85.9140506 L142.286112,87.3426251 L141.987719,97.2819324 L139.633723,97.2819199 Z M141.981088,97.7274872 L141.981088,99.1141759 L139.639211,99.1141759 L139.639211,97.7274872 L141.981088,97.7274872 Z M137.736865,87.5514699 L138.940619,87.5514699 L139.1877,97.2819324 L137.444356,97.2819324 L137.736865,87.5514699 Z M137.522936,85.9140758 L139.155497,85.9140758 L138.967648,87.1059151 L137.710766,87.1059151 L137.522936,85.9140758 Z M139.193545,97.7274872 L139.193545,99.1141759 L137.437598,99.1141759 L137.437598,97.7274872 L139.193545,97.7274872 Z M134.644273,97.2819199 L134.392126,87.3436495 L134.617338,85.9140758 L137.071512,85.9140758 L137.297026,87.3415379 L136.998577,97.2819261 L134.644273,97.2819199 Z M136.991939,97.7274872 L136.991939,99.1141759 L134.64976,99.1141759 L134.64976,97.7274872 L136.991939,97.7274872 Z M132.747408,87.5514699 L133.951483,87.5514699 L134.198255,97.2819324 L132.454905,97.2819324 L132.747408,87.5514699 Z M132.533479,85.9140758 L134.166348,85.9140758 L133.978198,87.1059088 L132.721642,87.1059088 L132.533479,85.9140758 Z M134.204095,97.7274872 L134.204095,99.1141759 L132.448148,99.1141759 L132.448148,97.7274872 L134.204095,97.7274872 Z M129.655124,97.2819199 L129.402675,87.3424366 L129.628308,85.9140506 L132.082483,85.9140506 L132.307519,87.3426251 L132.009133,97.2819324 L129.655124,97.2819199 Z M132.002488,97.7274872 L132.002488,99.1141759 L129.660612,99.1141759 L129.660612,97.7274872 L132.002488,97.7274872 Z M127.758228,87.5514699 L128.961982,87.5514699 L129.209062,97.2819324 L127.514252,97.2819324 L127.514252,97.2724178 L127.466027,97.2724178 L127.758228,87.5514699 Z M127.544299,85.9140758 L129.17686,85.9140758 L128.989017,87.1059088 L127.732191,87.1059088 L127.544299,85.9140758 Z M127.514252,97.7274872 L129.214952,97.7274872 L129.214952,99.1141759 L127.514252,99.1141759 L127.514252,97.7274872 Z M149.337879,76.3232348 L149.337879,77.8439959 L142.412893,77.8439959 L140.925858,77.1698317 L140.74168,77.1698317 L139.396141,77.7798631 L132.329086,77.7798631 L132.329086,76.3232348 L149.337879,76.3232348 Z M132.329086,75.87768 L132.329086,67.6176778 L133.785968,67.6176778 L133.906475,75.87768 L132.329086,75.87768 Z M134.231703,67.6176841 L135.896843,67.6176841 L135.775758,75.87768 L134.352229,75.87768 L134.231703,67.6176841 Z M136.221492,75.87768 L136.342616,67.6176841 L137.674766,67.6176841 L137.795582,75.87768 L136.221467,75.87768 L136.221492,75.87768 Z M138.120507,67.6176841 L139.786276,67.6176841 L139.664581,75.87768 L138.241297,75.87768 L138.120507,67.6176841 Z M140.110335,75.87768 L140.23203,67.6176841 L141.564425,67.6176841 L141.684361,75.87768 L140.110335,75.87768 Z M142.010229,67.6176841 L143.67537,67.6176841 L143.554284,75.87768 L142.130133,75.87768 L142.010229,67.6176841 Z M144.000019,75.87768 L144.121143,67.6176841 L145.453293,67.6176841 L145.574108,75.87768 L144.000019,75.87768 Z M145.899034,67.6176841 L147.564175,67.6176841 L147.443089,75.87768 L146.019824,75.87768 L145.899034,67.6176841 Z M147.888824,75.87768 L148.009947,67.6176841 L149.337917,67.6176841 L149.337917,75.87768 L147.888824,75.87768 Z M143.395684,78.2895632 L149.337886,78.2895632 L149.337886,80.3240277 L147.883191,80.3240277 L143.395684,78.2895632 Z M153.40071,83.3146646 L128.267123,83.3146646 L139.526536,78.2098953 L140.83375,77.6172404 L153.40071,83.3146646 Z M138.413406,78.2254619 L133.732343,80.34772 L133.732343,80.3240528 L132.329086,80.3240528 L132.329086,78.2254619 L138.413406,78.2254619 Z M132.801787,80.7696076 L127.506275,83.1704239 L127.506275,80.7696076 L132.801787,80.7696076 Z M148.865995,80.7696076 L154.1613,80.7696076 L154.1613,83.1703108 L148.865995,80.7696076 Z M149.337898,67.172123 L132.329086,67.172123 L132.329086,65.699815 L149.337898,65.699815 L149.337898,67.172123 Z M140.302778,57.863592 L141.355934,57.863592 C142.140367,58.934462 142.666907,61.8460469 142.689121,65.2542602 L138.969836,65.2542602 C138.992126,61.8564979 139.519162,58.9362908 140.302778,57.863592 Z M140.139797,57.4180309 L140.139797,56.2366301 L141.494589,56.2366301 L141.494589,57.4180309 L140.139797,57.4180309 Z M141.884806,57.863592 L142.578697,57.863592 C144.855923,58.8847772 146.395408,61.8288086 146.460052,65.2542602 L143.1348,65.2542602 C143.114,61.9566909 142.636489,59.1725295 141.884806,57.863592 Z M138.52417,65.2542602 L135.198917,65.2542602 C135.263606,61.8301472 136.802777,58.8852359 139.079431,57.863592 L139.774471,57.863592 C139.023392,59.1729003 138.545039,61.9641693 138.52417,65.2542602 Z M143.270494,56.2366301 L143.270494,57.4180309 L141.940261,57.4180309 L141.940261,56.2366301 L143.270494,56.2366301 Z M140.817205,51.8145027 C141.541253,51.8162943 142.169791,52.3138088 142.337619,53.0179745 L139.297031,53.0179745 C139.464717,52.3138185 140.0932,51.8162696 140.817205,51.8145027 Z M139.250326,53.4635419 L142.408631,53.4635419 L142.408631,55.7843258 L141.052311,55.7843258 L141.052311,54.3786078 L140.60664,54.3786078 L140.60664,55.7843258 L139.250326,55.7843258 L139.250326,53.4635419 Z M138.38847,56.2366175 L139.69415,56.2366175 L139.69415,57.4180309 L138.38847,57.4180309 L138.38847,56.2366175 Z M138.133299,57.8806857 C136.098508,59.2259913 134.809863,61.9954219 134.753158,65.2542288 L132.338383,65.2542288 C132.468038,61.800733 134.807724,58.8236805 138.133299,57.8806857 Z M120.797097,68.2375318 C120.355601,68.2375318 119.997698,67.8797123 119.997698,67.4383197 C119.997698,66.996927 120.355601,66.6391075 120.797097,66.6391075 C120.889528,66.6389326 120.981269,66.655032 121.068115,66.6866682 L121.263324,66.7578585 L121.348039,66.5682189 C121.548017,66.1178995 122.013014,65.8452764 122.503743,65.8906422 C122.994471,65.936008 123.401583,66.2892538 123.515576,66.7685986 L123.574815,67.0205295 L123.815138,66.9244843 C124.025126,66.8479259 124.259099,66.8766839 124.444286,67.0018137 C124.629473,67.1269435 124.74341,67.3332669 124.750659,67.5566118 C124.750004,67.9327699 124.444884,68.2373972 124.068637,68.2375318 L120.797097,68.2375318 Z M121.725905,68.6830992 L124.068668,68.6830992 C124.690911,68.682646 125.195368,68.1787205 125.196331,67.5566244 C125.190681,67.2267599 125.042797,66.9154107 124.790671,66.7025616 C124.538545,66.4897125 124.20675,66.3961091 123.880524,66.4457979 C123.845665,66.3592556 123.803221,66.275964 123.753687,66.196896 C126.604139,63.144955 130.22211,60.9143635 134.229572,59.7381864 C132.782742,61.2164834 131.948042,63.1867417 131.892686,65.2542602 L131.883414,65.2542602 L131.883414,67.172123 L131.425799,67.172123 L131.425799,67.6176904 L131.883414,67.6176904 L131.883414,77.7798945 L131.155058,77.7798945 L131.155058,78.2254619 L131.883414,78.2254619 L131.883414,80.3240654 L127.06061,80.3240654 L127.06061,81.0798582 L117.48732,81.0798582 C117.67898,76.6261895 119.15058,72.3221377 121.725905,68.6830866 L121.725905,68.6830992 Z M117.445726,82.1648871 C117.445726,81.950468 117.464528,81.7389712 117.470242,81.5253942 L127.06061,81.5253942 L127.06061,83.3051499 L121.203388,83.3051499 C120.690317,82.7045166 119.868498,82.4675106 119.11428,82.7026678 C118.360061,82.937825 117.818685,83.5998603 117.738072,84.3855974 L117.553964,84.3855974 C117.484712,83.6542196 117.445726,82.914119 117.445726,82.1648871 Z M127.06061,83.7507487 L127.06061,85.4587172 L121.406964,85.4587172 L121.406964,83.7507487 L127.06061,83.7507487 Z M120.961304,83.6965139 L120.961304,84.3856414 L118.183706,84.3856414 C118.271754,83.7627629 118.729264,83.2557178 119.339956,83.1042039 C119.950648,82.9526901 120.592191,83.187058 120.961304,83.6965139 Z M117.602227,84.8311962 L120.961304,84.8311962 L120.961304,85.462381 L119.93585,85.462381 L120.514488,86.5394538 L117.862232,86.5394538 C117.755241,85.976715 117.668573,85.4072895 117.602227,84.8311774 L117.602227,84.8311962 Z M120.961304,94.4765673 C119.826942,92.6521419 118.950726,90.6794675 118.357619,88.614742 L120.961304,88.614742 L120.961304,94.4765673 Z M120.961304,88.1691809 L118.230782,88.1691809 C118.126808,87.7781667 118.032519,87.3834447 117.947915,86.9850149 L120.753869,86.9850149 L120.961304,87.3711565 L120.961304,88.1691809 Z M120.681078,85.9079484 L127.06061,85.9079484 L127.06061,85.9140883 L127.092913,85.9140883 L127.279064,87.0924224 L121.317339,87.0924224 L120.681078,85.9079484 Z M122.656171,93.1028435 L122.656171,96.857707 C122.216075,96.3143411 121.797841,95.7527502 121.40697,95.1709109 L121.40697,87.5379709 L127.312531,87.5379709 L127.020235,97.2724241 L125.819693,97.2724241 L125.819693,93.1028372 L122.656171,93.1028435 Z M123.10183,93.5484109 L125.374047,93.5484109 L125.374047,97.218736 L123.10183,97.218736 L123.10183,93.5484109 Z M123.38767,97.7179977 L126.963323,97.7179977 L126.963323,99.114201 L124.744864,99.114201 C124.27401,98.6670583 123.821608,98.2016509 123.387658,97.7179789 L123.38767,97.7179977 Z M125.221688,99.5597558 L126.418679,99.5597558 L126.945867,100.967887 C126.348654,100.525617 125.773926,100.056234 125.221682,99.559737 L125.221688,99.5597558 Z M127.555733,101.401822 L129.66791,101.401822 C129.378603,101.663643 129.19263,102.020377 129.143664,102.407434 C128.600439,102.09247 128.071126,101.75726 127.555727,101.401803 L127.555733,101.401822 Z M131.966891,103.80118 C131.144686,103.466096 130.343393,103.081855 129.567354,102.650542 L129.568234,102.616059 C129.572503,101.956873 130.108208,101.42475 130.767563,101.42475 C131.426917,101.42475 131.962622,101.956873 131.966891,102.616059 L131.966891,103.80118 Z M134.126143,104.567173 C133.544817,104.392687 132.973621,104.19603 132.412557,103.977201 L132.412557,103.24385 L134.126143,103.24385 L134.126143,104.567173 Z M134.126143,102.798327 L132.412544,102.798327 L132.412544,102.616078 C132.411308,102.15232 132.21308,101.710918 131.867247,101.401841 L134.671434,101.401841 C134.325601,101.710918 134.127374,102.15232 134.126137,102.616078 L134.126143,102.798327 Z M136.97046,105.227794 C136.162033,105.092375 135.361357,104.914198 134.571802,104.694012 L134.571802,102.616034 C134.576072,101.956848 135.111777,101.424725 135.771131,101.424725 C136.430485,101.424725 136.966191,101.956848 136.97046,102.616034 L136.97046,105.227794 Z M139.129712,105.484325 C138.552878,105.442439 137.980683,105.38383 137.416126,105.300668 L137.416126,105.085633 L139.129712,105.085633 L139.129712,105.484325 Z M139.129712,104.640085 L137.416113,104.640085 L137.416113,103.24385 L139.129712,103.24385 L139.129712,104.640085 Z M139.129712,102.798327 L137.416113,102.798327 L137.416113,102.616078 C137.414879,102.152311 137.216636,101.710903 136.870778,101.401841 L139.675003,101.401841 C139.32917,101.710918 139.130942,102.15232 139.129706,102.616078 L139.129712,102.798327 Z M141.974029,105.524835 C141.598193,105.542865 141.220441,105.553605 140.840231,105.553605 C140.415786,105.553605 139.994334,105.540753 139.575371,105.518318 L139.575371,102.616034 C139.579641,101.956848 140.115346,101.424725 140.7747,101.424725 C141.434054,101.424725 141.969759,101.956848 141.974029,102.616034 L141.974029,105.524835 Z M144.133281,105.31736 C143.568298,105.397298 142.997102,105.456292 142.419694,105.494342 L142.419694,105.085633 L144.133281,105.085633 L144.133281,105.31736 Z M144.133281,104.640085 L142.419688,104.640085 L142.419688,103.24385 L144.133281,103.24385 L144.133281,104.640085 Z M144.133281,102.798327 L142.419688,102.798327 L142.419688,102.616078 C142.418454,102.152311 142.220211,101.710903 141.874353,101.401841 L144.678578,101.401841 C144.332745,101.710918 144.134517,102.15232 144.133281,102.616078 L144.133281,102.798327 Z M146.977283,104.731379 C146.187564,104.946832 145.386995,105.12036 144.578934,105.251235 L144.578934,102.616034 C144.578934,101.953903 145.115822,101.41714 145.778108,101.41714 C146.440394,101.41714 146.977283,101.953903 146.977283,102.616034 L146.977283,104.731379 Z M149.136535,104.029098 C148.575315,104.242673 148.00412,104.434498 147.422949,104.604571 L147.422949,103.24385 L149.136535,103.24385 L149.136535,104.029098 Z M149.136535,102.798327 L147.422949,102.798327 L147.422949,102.616078 C147.421712,102.15232 147.223485,101.710918 146.877651,101.401841 L149.681876,101.401841 C149.336019,101.710903 149.137775,102.152311 149.136541,102.616078 L149.136535,102.798327 Z M151.980852,102.72725 C151.203305,103.147703 150.402458,103.523585 149.582194,103.853071 L149.582194,102.616034 C149.586464,101.956848 150.122169,101.424725 150.781523,101.424725 C151.440877,101.424725 151.976582,101.956848 151.980852,102.616034 L151.980852,102.72725 Z M152.412626,102.478851 C152.378859,102.065359 152.188843,101.680246 151.881214,101.401816 L154.124716,101.401816 C153.571056,101.78515 153.000353,102.144158 152.412607,102.478838 L152.412626,102.478851 Z M154.152996,100.899493 L154.131857,100.956261 L127.402375,100.956261 L126.894561,99.5597495 L154.628583,99.5597495 L154.152996,100.899493 Z M154.556842,101.097146 L154.585757,101.013028 L155.10163,99.5597495 L156.447446,99.5597495 C155.853734,100.092363 155.202733,100.626528 154.556842,101.097146 Z M156.925301,99.1141947 L154.597738,99.1141947 L154.597738,97.7274872 L158.284576,97.7274872 C157.851463,98.2122067 157.396859,98.6669368 156.925301,99.1141821 L156.925301,99.1141947 Z M158.5645,97.2285523 L156.292278,97.2285523 L156.292278,93.5582146 L158.5645,93.5582146 L158.5645,97.2285523 Z M160.259059,95.1933966 C159.868263,95.7737026 159.449992,96.333716 159.010159,96.875668 L159.010159,93.1126535 L155.846606,93.1126535 L155.846606,97.2819324 L154.601428,97.2819324 L154.354498,87.5478123 L160.259059,87.5478123 L160.259059,95.1933966 Z M154.387335,87.102245 L154.573952,85.917771 L160.985253,85.917771 L160.348684,87.102245 L154.387335,87.102245 Z M154.606947,85.4685335 L154.606947,83.7602445 L160.259059,83.7602445 L160.259059,85.4685335 L154.606947,85.4685335 Z M160.704718,94.4990405 L160.704718,88.624552 L163.320026,88.624552 C162.724362,90.6942749 161.844192,92.6713069 160.704718,94.4990405 Z M163.44687,88.1789972 L160.704718,88.1789972 L160.704718,87.3810105 L160.912393,86.994517 L163.730371,86.994517 C163.646262,87.3933197 163.551761,87.7881464 163.44687,88.1789972 Z M163.816526,86.5489684 L161.151842,86.5489684 L161.73048,85.4722036 L160.704718,85.4722036 L160.704718,84.8409937 L164.076996,84.8409937 C164.011048,85.4169675 163.924225,85.9862925 163.816526,86.5489684 Z M160.704718,84.3954389 L160.704718,83.7063114 C161.073888,83.1968511 161.715465,82.962486 162.326197,83.1139929 C162.936928,83.2654998 163.394497,83.7725347 163.482624,84.3954389 L160.704718,84.3954389 Z M164.234716,82.1648871 C164.234716,82.917456 164.19558,83.660856 164.125718,84.3954389 L163.928246,84.3954389 C163.847617,83.6097424 163.306295,82.9477329 162.552134,82.7125215 C161.797972,82.4773102 160.976172,82.7141827 160.463006,83.3146834 L154.606947,83.3146834 L154.606947,81.5349277 L164.222213,81.5349277 C164.227776,81.7447529 164.234722,81.9544209 164.234722,82.1648871 L164.234716,82.1648871 Z M164.208208,81.089354 L154.606947,81.0893478 L154.606947,80.3240465 L149.783545,80.3240465 L149.783545,78.2895632 L150.448049,78.2895632 L150.448049,77.8439959 L149.783545,77.8439959 L149.783545,67.6176778 L150.208643,67.6176778 L150.208643,67.1721104 L149.783545,67.1721104 L149.783545,65.2542602 L149.766278,65.2542602 C149.710508,63.1744426 148.866213,61.1935437 147.40438,59.7127344 C152.633006,61.2376644 157.163583,64.5426961 160.21155,69.0554967 C159.428382,69.3989343 158.829834,70.0612638 158.567291,70.8749702 C157.792653,70.667798 156.968113,70.9280743 156.452912,71.5424002 C155.937711,72.156726 155.825166,73.0138322 156.164309,73.7402886 C156.503453,74.466745 157.232859,74.9309729 158.034735,74.9307142 L163.091288,74.9307142 C163.738967,76.9240251 164.114663,78.9955934 164.208208,81.089354 Z M164.695719,74.4851531 L158.034735,74.4851531 C157.141234,74.4851531 156.416909,73.7609973 156.416909,72.8677058 C156.416909,71.9744144 157.141234,71.2502585 158.034735,71.2502585 C158.240596,71.2501276 158.444547,71.289721 158.635399,71.3668665 L158.876338,71.4641435 L158.935885,71.2115966 C159.189948,70.1391078 160.100022,69.348177 161.197681,69.2459057 C162.29534,69.1436343 163.335927,69.7528177 163.783839,70.7599019 L163.868247,70.9489255 L164.06284,70.8786528 C164.760155,70.6266368 165.540582,70.8129959 166.048714,71.352862 C166.556846,71.8927282 166.695502,72.6828509 166.401538,73.363408 C166.107573,74.0439652 165.43721,74.4847988 164.695732,74.4851531 L164.695719,74.4851531 Z" id="path-2"/>
    </defs>
    <g id="Page-1" stroke="none" stroke-width="1" fill="none" fill-rule="evenodd">
        <g id="180424_Artyllect_Home_v2" transform="translate(-505.000000, -3440.000000)">
            <g id="atlanta" transform="translate(505.000000, 3440.000000)">
                <rect id="Rectangle-8-Copy-9" fill="url(#linearGradient-1)" x="0" y="0" width="283" height="235"/>
                <text id="Atlanta" font-family="GorditaBold, Gordita" font-size="24" font-weight="bold" letter-spacing="2.0999999" fill="#F9F9F0">
                    <tspan x="74.0582035" y="160">ATLANTA</tspan>
                </text>
                <text id="MEETUPS-IN-Copy-6" font-family="GorditaMedium, Gordita" font-size="9" font-weight="400" line-spacing="13" letter-spacing="1.00800014" fill="#F9F9F0">
                    <tspan x="107.272743" y="130">MEETUPS IN</tspan>
                </text>
                <g id="Shape" fill-rule="nonzero">
                    <use fill="#F9F9F0" fill-rule="evenodd" xlink:href="#path-2"/>
                    <path stroke="#FFFFFF" stroke-width="0.3" d="M159.010159,88.5933029 L159.160159,88.7433029 L159.160159,91.9208142 L159.010159,92.0708142 L155.846606,92.0708142 L155.696606,91.9208142 L155.696606,88.7433029 L155.846606,88.5933029 L159.010159,88.5933029 Z M157.055413,91.3252594 L157.055397,89.338864 L156.442278,89.338864 L156.442278,91.3252594 L157.055413,91.3252594 Z M158.4145,91.3252594 L158.4145,89.338864 L157.801074,89.338864 L157.801074,91.3252594 L158.4145,91.3252594 Z M125.819693,88.5834866 L125.969693,88.7334866 L125.969693,91.9109979 L125.819693,92.0609979 L122.656171,92.0609979 L122.506171,91.9109979 L122.506171,88.7334866 L122.656171,88.5834866 L125.819693,88.5834866 Z M123.865257,91.3154431 L123.865257,89.3290414 L123.25183,89.3290414 L123.25183,91.3154431 L123.865257,91.3154431 Z M125.224034,91.3154431 L125.224034,89.3290414 L124.610916,89.3290414 L124.610916,91.3154431 L125.224034,91.3154431 Z M164.695829,70.1732459 C166.051232,70.1733017 167.15,71.2718467 167.15,72.62698 C167.15,73.9821479 166.051176,75.0807142 164.695726,75.0807142 L163.762152,75.0807142 C166.180449,82.9022986 164.435201,91.4235427 159.123514,97.6685154 L159.033922,97.7718647 C157.747644,99.2684872 156.282934,100.602041 154.672742,101.74258 L154.597105,101.796399 C144.497923,108.894998 130.654911,107.147395 122.638452,97.7625182 L122.541858,97.6510526 C115.606422,89.4836489 114.948795,77.715246 120.899992,68.8330866 L120.797059,68.8330866 C120.267301,68.8329754 119.783307,68.5328956 119.547737,68.0584869 C119.312161,67.5840661 119.365677,67.0171801 119.685873,66.5952043 C119.985198,66.2007337 120.469285,65.9965331 120.956278,66.0524671 C121.229533,65.65174 121.658526,65.3813138 122.141336,65.3093146 C122.609058,65.2395654 123.082826,65.3626651 123.455935,65.6464063 C126.553215,62.3762968 130.512179,60.0465799 134.877378,58.9270141 L134.886521,58.9324252 C135.751001,58.2361038 136.736185,57.7048013 137.79281,57.3649726 L137.79281,55.7910816 L137.94281,55.6410816 L138.654623,55.6410816 L138.654623,53.613567 L138.165596,53.613567 L138.015596,53.463567 L138.015596,53.0179997 L138.165596,52.8679997 L138.720408,52.8679997 C138.925388,52.0383465 139.602788,51.4074507 140.444363,51.2612986 L140.444363,49 L140.594363,48.85 L141.040035,48.85 L141.190035,49 L141.190035,51.2612837 C142.031668,51.4074269 142.709148,52.0383051 142.914244,52.8679871 L143.493323,52.8679871 L143.643323,53.0179871 L143.643323,53.4635545 L143.493323,53.6135545 L143.004297,53.6135545 L143.004297,55.6410753 L143.716159,55.6410753 L143.866159,55.7910753 L143.866159,57.3649152 C144.925536,57.7050993 145.91175,58.2367379 146.72308,58.907485 C152.437541,60.3487857 157.418094,63.8465864 160.71251,68.7291656 C162.07329,68.3950387 163.491968,69.0081156 164.181128,70.2270991 C164.35021,70.1910891 164.522733,70.1730145 164.695829,70.1732459 Z M149.163286,65.1042602 C148.990007,62.082256 147.091691,59.454072 144.33146,58.3181776 C145.966418,59.8012607 146.970898,62.2737201 147.052388,65.1042602 L149.163286,65.1042602 Z M152.566649,97.1319324 L154.001576,97.1319324 L153.762412,87.7014699 L152.850134,87.7014699 L152.566649,97.1319324 Z M153.998684,97.8774872 L152.55534,97.8774872 L152.55534,98.9641884 L153.998684,98.9641884 L153.998684,97.8774872 Z M152.666186,86.0640883 L152.806986,86.9559214 L153.807187,86.9559214 L153.947978,86.0640883 L152.666186,86.0640883 Z M127.656256,85.318521 L154.010055,85.318521 L154.010055,83.9102445 L127.656256,83.9102445 L127.656256,85.318521 Z M149.758559,97.1319324 L151.82078,97.1319324 L152.116526,87.3659912 L151.911442,86.0640758 L149.713369,86.0640758 L149.510115,87.3398449 L149.758559,97.1319324 Z M151.809681,97.8774872 L149.767804,97.8774872 L149.767804,98.9641884 L151.809681,98.9641884 L151.809681,97.8774872 Z M147.860979,87.7014825 L147.577525,97.131945 L149.01244,97.131945 L148.773276,87.7014825 L147.860979,87.7014825 Z M147.676989,86.0640883 L147.817572,86.9559214 L148.818032,86.9559214 L148.958823,86.0640883 L147.676989,86.0640883 Z M149.022138,97.8774872 L147.566198,97.8774872 L147.566198,98.9641759 L149.022138,98.9641759 L149.022138,97.8774872 Z M144.769109,97.1319206 L146.831644,97.1319316 L147.127438,87.3649324 L146.921924,86.0640632 L144.723931,86.0640632 L144.520677,87.3398325 L144.769109,97.1319206 Z M146.820532,97.8774872 L144.882706,97.8774872 L144.882706,98.9641759 L146.820532,98.9641759 L146.820532,97.8774872 Z M142.87156,87.7014699 L142.588075,97.1319324 L144.023009,97.1319324 L143.783844,87.7014699 L142.87156,87.7014699 Z M142.687611,86.0640758 L142.828406,86.9559151 L143.828607,86.9559151 L143.969403,86.0640758 L142.687611,86.0640758 Z M144.137047,97.8774872 L142.576747,97.8774872 L142.576747,98.9641759 L144.137047,98.9641759 L144.137047,97.8774872 Z M139.779962,97.1319206 L141.842193,97.1319316 L142.137939,87.365966 L141.932855,86.0640506 L139.734846,86.0640506 L139.531226,87.338628 L139.779962,97.1319206 Z M141.831088,97.8774872 L139.789211,97.8774872 L139.789211,98.9641759 L141.831088,98.9641759 L141.831088,97.8774872 Z M137.882423,87.7014699 L137.598933,97.1319324 L139.033842,97.1319324 L138.794379,87.7014699 L137.882423,87.7014699 Z M137.698427,86.0640758 L137.838977,86.9559151 L138.839438,86.9559151 L138.980003,86.0640758 L137.698427,86.0640758 Z M139.043545,97.8774872 L137.587598,97.8774872 L137.587598,98.9641759 L139.043545,98.9641759 L139.043545,97.8774872 Z M134.790515,97.1319202 L136.853051,97.1319257 L137.148864,87.3649449 L136.943349,86.0640758 L134.745331,86.0640758 L134.542077,87.339845 L134.790515,97.1319202 Z M136.841939,97.8774872 L134.79976,97.8774872 L134.79976,98.9641759 L136.841939,98.9641759 L136.841939,97.8774872 Z M132.892967,87.7014699 L132.609482,97.1319324 L134.044403,97.1319324 L133.805238,87.7014699 L132.892967,87.7014699 Z M132.709019,86.0640758 L132.849818,86.9559088 L133.85002,86.9559088 L133.99081,86.0640758 L132.709019,86.0640758 Z M134.054095,97.8774872 L132.598148,97.8774872 L132.598148,98.9641759 L134.054095,98.9641759 L134.054095,97.8774872 Z M129.801363,97.1319206 L131.863606,97.1319316 L132.159346,87.365966 L131.954262,86.0640506 L129.756247,86.0640506 L129.552627,87.338628 L129.801363,97.1319206 Z M131.852488,97.8774872 L129.810612,97.8774872 L129.810612,98.9641759 L131.852488,98.9641759 L131.852488,97.8774872 Z M128.815742,87.7014699 L128.961982,87.7014699 L128.81203,87.5552775 L128.815742,87.7014699 Z M129.055205,97.1319324 L129.059111,97.2857401 L129.209062,97.1319324 L129.055205,97.1319324 Z M127.620317,97.1319324 L127.523767,97.1319324 L127.514252,97.1224178 L127.466027,97.1224178 L127.466027,97.2724178 L127.514252,97.2738674 L127.514252,97.2819324 L127.664252,97.2819324 L127.664252,97.2724178 L127.6175,97.2256653 L127.620317,97.1319324 Z M127.903787,87.7014699 L127.90816,87.5559767 L127.758228,87.7014699 L127.903787,87.7014699 Z M127.719799,86.0640758 L127.860396,86.9559088 L128.860807,86.9559088 L129.001367,86.0640758 L127.719799,86.0640758 Z M127.664252,97.8774872 L127.664252,98.9641759 L129.064952,98.9641759 L129.064952,97.8774872 L127.664252,97.8774872 Z M149.187879,76.4732348 L132.479086,76.4732348 L132.479086,77.6301497 L139.334203,77.6432478 L140.74168,77.0198317 L140.987794,77.0332158 L142.412893,77.6939959 L149.187879,77.6939959 L149.187879,76.4732348 Z M132.479086,75.72768 L133.754271,75.72768 L133.63814,67.7676778 L132.479086,67.7676778 L132.479086,75.72768 Z M134.383907,67.7676841 L134.500056,75.72768 L135.62794,75.72768 L135.744628,67.7676841 L134.383907,67.7676841 Z M136.373708,75.72768 L137.643372,75.72768 L137.526944,67.7676841 L136.490432,67.7676841 L136.373708,75.72768 Z M138.272717,67.7676841 L138.38912,75.72768 L139.516775,75.72768 L139.63405,67.7676841 L138.272717,67.7676841 Z M140.262561,75.72768 L141.532167,75.72768 L141.416588,67.7676841 L140.379836,67.7676841 L140.262561,75.72768 Z M142.162423,67.7676841 L142.277972,75.72768 L143.406467,75.72768 L143.523155,67.7676841 L142.162423,67.7676841 Z M144.152235,75.72768 L145.421898,75.72768 L145.305471,67.7676841 L144.268959,67.7676841 L144.152235,75.72768 Z M146.051243,67.7676841 L146.167647,75.72768 L147.295272,75.72768 L147.41196,67.7676841 L146.051243,67.7676841 Z M148.041039,75.72768 L149.187917,75.72768 L149.187917,67.7676841 L148.157764,67.7676841 L148.041039,75.72768 Z M144.085225,78.4395632 L147.883191,80.1740277 L149.187886,80.1740277 L149.187886,78.4395632 L144.085225,78.4395632 Z M152.706577,83.1646646 L140.83375,77.7819363 L139.588474,78.3465103 L128.961238,83.1646646 L152.706577,83.1646646 Z M133.738515,80.1802255 L133.670405,80.2111047 L133.732343,80.34772 L133.882343,80.34772 L133.882343,80.3240528 L133.738515,80.1802255 Z M132.479086,80.1740528 L132.329086,80.1740528 L132.479086,80.3240528 L132.479086,80.1740528 Z M132.479086,78.3754619 L132.479086,78.2254619 L132.329086,78.3754619 L132.479086,78.3754619 Z M137.719281,78.3754619 L138.413406,78.3754619 L138.351469,78.0888465 L137.719281,78.3754619 Z M132.107659,80.9196076 L127.656275,80.9196076 L127.656275,82.9377229 L132.107659,80.9196076 Z M149.560129,80.9196076 L154.0113,82.9376106 L154.0113,80.9196076 L149.560129,80.9196076 Z M149.187898,67.022123 L149.187898,65.849815 L132.479086,65.849815 L132.479086,67.022123 L149.187898,67.022123 Z M140.380696,58.013592 C139.655859,59.0858446 139.15692,61.8656281 139.121161,65.1042602 L142.537805,65.1042602 C142.502188,61.85773 142.004087,59.0843951 141.278142,58.013592 L140.380696,58.013592 Z M140.289797,57.2680309 L141.344589,57.2680309 L141.344589,56.3866301 L140.289797,56.3866301 L140.289797,57.2680309 Z M142.13447,58.013592 C142.824022,59.4075764 143.251302,62.0359113 143.283544,65.1042602 L146.306197,65.1042602 C146.200421,61.7933916 144.699733,58.9789103 142.578697,58.013592 L142.13447,58.013592 Z M138.375433,65.1042602 C138.407836,62.0378459 138.837075,59.4015668 139.527482,58.008467 L139.140843,58.0004443 C136.960115,58.9790417 135.458623,61.7943552 135.352777,65.1042602 L138.375433,65.1042602 Z M143.120494,56.3866301 L142.090261,56.3866301 L142.090261,57.2680309 L143.120494,57.2680309 L143.120494,56.3866301 Z M140.817203,51.9645032 C140.227987,51.9660927 139.7088,52.3308019 139.500453,52.8679745 L142.134158,52.8679745 C141.925698,52.3307984 141.40646,51.9661128 140.817203,51.9645032 Z M139.400326,53.6135419 L139.400326,55.6343258 L140.45664,55.6343258 L140.45664,54.3786078 L140.60664,54.2286078 L141.052311,54.2286078 L141.202311,54.3786078 L141.202311,55.6343258 L142.258631,55.6343258 L142.258631,53.6135419 L139.400326,53.6135419 Z M138.53847,56.3866175 L138.53847,57.2680309 L139.54415,57.2680309 L139.54415,56.3866175 L138.53847,56.3866175 Z M137.328769,58.3175887 C134.567889,59.4532148 132.668985,62.0817207 132.49566,65.1042288 L134.606585,65.1042288 C134.688128,62.2736921 135.693205,59.8006785 137.328769,58.3175887 Z M120.797097,68.0875318 L124.068583,68.0875318 C124.362118,68.0874268 124.600148,67.8497812 124.600738,67.5614782 C124.595049,67.3862129 124.505637,67.2243008 124.360306,67.1261009 C124.214964,67.0278942 124.031327,67.0053232 123.870805,67.0637726 L123.468681,67.2244815 L123.428797,67.0548638 L123.369646,66.8033024 C123.270541,66.3865653 122.916592,66.0794481 122.489935,66.0400054 C122.063273,66.0005623 121.65899,66.2375891 121.484995,66.6293996 L121.40028,66.8190391 L121.211932,66.8987799 L121.016773,66.8276081 C120.946471,66.8019984 120.872206,66.7889657 120.797097,66.7891075 C120.438436,66.7891075 120.147698,67.0797776 120.147698,67.4383197 C120.147698,67.7968617 120.438436,68.0875318 120.797097,68.0875318 Z M121.803665,68.8330992 C119.302677,72.3924405 117.860945,76.5865092 117.644447,80.9298582 L126.91061,80.9298582 L126.91061,80.3240654 L127.06061,80.1740654 L131.733414,80.1740654 L131.733414,78.3754619 L131.155058,78.3754619 L131.005058,78.2254619 L131.005058,77.7798945 L131.155058,77.6298945 L131.733414,77.6298945 L131.733414,67.7676904 L131.425799,67.7676904 L131.275799,67.6176904 L131.275799,67.172123 L131.425799,67.022123 L131.733414,67.022123 L131.733414,65.2542602 L131.742888,65.2447868 C131.795488,63.3270274 132.506557,61.4917485 133.747366,60.0428029 C130.009842,61.236511 126.634203,63.3605262 123.9394,66.2182031 C123.951241,66.2402804 123.962601,66.2626119 123.973474,66.2851819 C124.304234,66.2648528 124.631982,66.3722884 124.887433,66.5879443 C125.172632,66.8287142 125.339917,67.180911 125.346331,67.5568567 C125.345239,68.2616699 124.773721,68.8325857 124.068668,68.8330992 L121.803665,68.8330992 Z M123.866103,66.296291 C123.865172,66.2972878 123.864241,66.2982847 123.86331,66.2992817 L123.860927,66.2970564 C123.862652,66.2967977 123.864378,66.2965426 123.866103,66.296291 Z M117.690793,84.2355974 C117.691968,84.2487473 117.693154,84.2619026 117.69435,84.2750633 L117.645656,84.3190175 L117.600385,84.2778306 C117.60246,84.2637109 117.604673,84.2496326 117.607025,84.2355974 L117.690793,84.2355974 Z M117.668634,83.9721763 C117.869865,83.3065774 118.389266,82.7715973 119.069631,82.5594669 C119.858762,82.3134245 120.716672,82.5477772 121.271017,83.1551499 L126.91061,83.1551499 L126.91061,81.6753942 L117.614644,81.6753942 C117.613074,81.7085328 117.611114,81.7471074 117.608594,81.7954564 C117.608504,81.7971859 117.608504,81.7971859 117.608414,81.7989151 C117.598951,81.9805237 117.595726,82.0637003 117.595726,82.1648871 C117.595726,82.7587513 117.620359,83.3598179 117.668634,83.9721763 Z M126.91061,83.9007487 L121.556964,83.9007487 L121.556964,85.3087172 L126.91061,85.3087172 L126.91061,83.9007487 Z M120.811304,83.7465157 C120.474228,83.3130277 119.911995,83.1168276 119.376076,83.2497901 C118.881808,83.3724191 118.498693,83.7530109 118.367412,84.2356414 L120.811304,84.2356414 L120.811304,83.7465157 Z M117.771092,84.9811962 C117.82907,85.455215 117.900953,85.9246328 117.98674,86.3894538 L120.263628,86.3894538 L119.68499,85.312381 L120.811304,85.312381 L120.811304,84.9811962 L117.771092,84.9811962 Z M120.811304,93.9395013 L120.811304,88.764742 L118.557668,88.764742 C119.094803,90.5756021 119.851749,92.3134323 120.811304,93.9395013 Z M120.814989,88.0191809 L120.829164,87.4421422 L120.664175,87.1350149 L118.133839,87.1350149 C118.199255,87.4318263 118.270108,87.726548 118.346398,88.0191809 L120.814989,88.0191809 Z M120.931924,86.0579484 L121.407035,86.9424224 L127.103507,86.9424224 L126.96378,86.0579484 L120.931924,86.0579484 Z M126.946765,85.9502431 L126.944751,85.9374948 L127.06061,85.9191916 L127.06061,86.0579484 L127.05447,86.0579484 L126.946765,85.9502431 Z M125.969693,97.1224241 L126.874672,97.1224241 L127.157959,87.6879709 L121.556463,87.6879709 L121.531482,95.0872651 C121.834819,95.5388025 122.159651,95.9853791 122.506171,96.4284317 L122.506171,93.1028435 L122.656171,92.9528435 L125.819693,92.9528372 L125.969693,93.1028372 L125.969693,97.1224241 Z M123.25183,93.6984109 L123.25183,97.068736 L125.224047,97.068736 L125.224047,93.6984109 L123.25183,93.6984109 Z M123.726946,97.8679977 C124.074673,98.2448574 124.433972,98.6102573 124.804846,98.964201 L126.813323,98.964201 L126.813323,97.8679977 L123.726946,97.8679977 Z M125.617901,99.7097558 C125.945496,99.9944035 126.280828,100.269721 126.623897,100.535711 L126.314669,99.7097558 L125.617901,99.7097558 Z M128.046308,101.551822 C128.370909,101.765979 128.700912,101.972281 129.036319,102.170727 C129.093535,101.946974 129.193619,101.736821 129.330548,101.551822 L128.046308,101.551822 Z M131.816892,103.576843 L131.816894,102.61703 C131.813159,102.040314 131.344461,101.57475 130.767563,101.57475 C130.209475,101.57475 129.752647,102.010448 129.720025,102.563568 C130.40061,102.938143 131.100549,103.276373 131.816892,103.576843 Z M133.976143,104.364602 L133.976143,103.39385 L132.562557,103.39385 L132.562557,103.874446 C133.026784,104.053045 133.497978,104.21643 133.976143,104.364602 Z M133.976138,102.648327 L133.976137,102.615678 C133.977169,102.229003 134.103633,101.856566 134.331515,101.551841 L132.207163,101.551841 C132.435047,101.856584 132.561513,102.229096 132.562544,102.616078 L132.562544,102.648327 L133.976138,102.648327 Z M136.82046,105.049886 L136.820463,102.617005 C136.816728,102.040289 136.34803,101.574725 135.771131,101.574725 C135.194233,101.574725 134.725535,102.040289 134.721802,102.616034 L134.721802,104.579827 C135.413666,104.769092 136.113982,104.925948 136.82046,105.049886 Z M138.074585,105.235633 C137.902169,105.215734 137.732825,105.194127 137.566126,105.170707 L137.566126,105.085633 L137.49166,105.160099 C137.473739,105.157511 137.455847,105.154901 137.437985,105.15227 L137.466485,105.185274 L137.416126,105.235633 L137.509969,105.235633 L137.566126,105.300668 L137.566126,105.235633 L138.074585,105.235633 Z M138.979712,105.235633 L139.129712,105.235633 L138.979712,105.085633 L138.979712,105.235633 Z M138.979712,105.322587 L138.979712,105.484325 L139.140575,105.334719 C139.086629,105.330802 139.033012,105.326759 138.979712,105.322587 Z M138.979712,104.490085 L138.979712,103.39385 L137.566113,103.39385 L137.566113,104.490085 L138.979712,104.490085 Z M138.979707,102.648327 L138.979706,102.615678 C138.980737,102.229003 139.107202,101.856566 139.335083,101.551841 L137.210715,101.551841 C137.438611,101.856578 137.565084,102.229092 137.566113,102.616078 L137.566113,102.648327 L138.979707,102.648327 Z M141.824029,105.381495 L141.824032,102.617005 C141.820297,102.040289 141.351598,101.574725 140.7747,101.574725 C140.197802,101.574725 139.729103,102.040289 139.725371,102.616034 L139.725371,105.375757 C140.107575,105.394177 140.477648,105.403605 140.840231,105.403605 C141.157374,105.403605 141.482985,105.396103 141.824029,105.381495 Z M143.983281,105.186708 C143.855012,105.204099 143.72642,105.220408 143.597505,105.235633 L143.983281,105.235633 L143.983281,105.31736 L144.054258,105.235633 L144.133281,105.235633 L144.090988,105.193341 L144.112267,105.168839 C144.098891,105.170732 144.085511,105.172612 144.072128,105.174481 L143.983281,105.085633 L143.983281,105.186708 Z M142.569694,105.333582 C142.51646,105.337457 142.463172,105.341152 142.409831,105.344667 L142.569694,105.494342 L142.569694,105.333582 Z M142.569694,105.235633 L142.569694,105.085633 L142.419694,105.235633 L142.569694,105.235633 Z M143.983281,104.490085 L143.983281,103.39385 L142.569688,103.39385 L142.569688,104.490085 L143.983281,104.490085 Z M143.983281,102.648327 L143.983281,102.615678 C143.984312,102.229003 144.110777,101.856566 144.338658,101.551841 L142.21429,101.551841 C142.442186,101.856578 142.568659,102.229092 142.569688,102.616078 L142.569688,102.648327 L143.983281,102.648327 Z M146.827283,104.616526 L146.827283,102.616034 C146.827283,102.036754 146.357559,101.56714 145.778108,101.56714 C145.198657,101.56714 144.728934,102.036754 144.728934,102.616034 L144.728934,105.074303 C145.435105,104.954381 146.135315,104.801624 146.827283,104.616526 Z M148.986535,103.925433 L148.986535,103.39385 L147.572949,103.39385 L147.572949,104.403477 C148.051007,104.25905 148.522201,104.099703 148.986535,103.925433 Z M148.986541,102.648327 L148.986542,102.615679 C148.98757,102.229 149.114042,101.85656 149.341936,101.551841 L147.217567,101.551841 C147.445451,101.856584 147.571917,102.229096 147.572949,102.616078 L147.572949,102.648327 L148.986541,102.648327 Z M151.830854,102.637638 L151.830855,102.617005 C151.82712,102.040289 151.358421,101.574725 150.781523,101.574725 C150.204625,101.574725 149.735926,102.040289 149.732194,102.616034 L149.732194,103.630019 C150.44788,103.334529 151.148315,103.003321 151.830854,102.637638 Z M152.528626,102.238955 C152.904661,102.020056 153.273576,101.79101 153.635377,101.551816 L152.218538,101.551816 C152.369437,101.755741 152.475374,101.990004 152.528626,102.238955 Z M154.026922,100.806261 L154.416165,99.7097495 L127.108715,99.7097495 L127.50744,100.806261 L154.026922,100.806261 Z M154.012024,100.848227 L154.012426,100.847147 L154.011638,100.849314 L154.012024,100.848227 Z M154.862627,100.681435 C155.258742,100.378278 155.659818,100.050076 156.051074,99.7097495 L155.207554,99.7097495 L154.862627,100.681435 Z M156.865397,98.9641947 C157.269351,98.5797927 157.621251,98.2267691 157.945155,97.8774872 L154.747738,97.8774872 L154.747738,98.9641947 L156.865397,98.9641947 Z M158.4145,97.0785523 L158.4145,93.7082146 L156.442278,93.7082146 L156.442278,97.0785523 L158.4145,97.0785523 Z M160.109059,95.1475104 L160.109059,87.6978123 L154.508351,87.6978123 L154.747671,97.1319324 L155.696606,97.1319324 L155.696606,93.1126535 L155.846606,92.9626535 L159.010159,92.9626535 L159.160159,93.1126535 L159.160159,96.4471189 C159.497336,96.0170062 159.813531,95.5843348 160.109059,95.1475104 Z M154.562818,86.952245 L160.259008,86.952245 L160.734349,86.067771 L154.702169,86.067771 L154.562818,86.952245 Z M154.756947,85.3185335 L160.109059,85.3185335 L160.109059,83.9102445 L154.756947,83.9102445 L154.756947,85.3185335 Z M160.854718,93.9632485 C161.819304,92.3333481 162.580154,90.5907571 163.119872,88.774552 L160.854718,88.774552 L160.854718,93.9632485 Z M163.331507,88.0289972 C163.408395,87.7364127 163.479445,87.4415864 163.544658,87.144517 L160.996997,87.144517 L160.854718,87.3810105 L160.854718,88.0289972 L163.331507,88.0289972 Z M163.692166,86.3989684 C163.778471,85.9342161 163.850493,85.4648927 163.908229,84.9909937 L160.854718,84.9909937 L160.854718,85.3222036 L161.981375,85.3222036 L161.402737,86.3989684 L163.692166,86.3989684 Z M160.854718,84.2454389 L163.298896,84.2454389 C163.16755,83.7627902 162.784386,83.3822044 162.29008,83.25958 C161.738697,83.122796 161.159469,83.3343855 160.854718,83.7063114 L160.854718,84.2454389 Z M164.076252,81.6849277 L154.756947,81.6849277 L154.756947,83.1646834 L160.395394,83.1646834 C160.94983,82.5574436 161.807722,82.3232248 162.596795,82.5693245 C163.289424,82.7853448 163.815209,83.3359482 164.008298,84.0183157 C164.058901,83.390842 164.084716,82.7743426 164.084716,82.1648871 C164.084722,82.0283171 164.08258,81.9173308 164.076252,81.6849277 Z M164.05929,84.2454389 C164.062237,84.2630264 164.064968,84.2806815 164.06748,84.2984011 L164.027351,84.3348944 L163.984348,84.2960787 C163.985898,84.2791904 163.98743,84.2623105 163.988944,84.2454389 L164.05929,84.2454389 Z M164.050825,80.9393539 C163.948361,78.9486814 163.589143,76.9795041 162.982038,75.0807142 L158.034784,75.0807142 C157.174623,75.0809917 156.392194,74.5830173 156.028391,73.8037415 C155.664583,73.0244535 155.785314,72.1050115 156.33798,71.4460128 C156.860545,70.8229057 157.679779,70.5393602 158.46991,70.6982045 C158.744649,69.9596772 159.287279,69.3517516 159.988866,68.9949679 C157.065817,64.7366377 152.806271,61.5788749 147.889685,60.0173408 C149.141944,61.4679053 149.861035,63.3101825 149.915846,65.2365609 L149.933545,65.2542602 L149.933545,67.0221104 L150.208643,67.0221104 L150.358643,67.1721104 L150.358643,67.6176778 L150.208643,67.7676778 L149.933545,67.7676778 L149.933545,77.6939959 L150.448049,77.6939959 L150.598049,77.8439959 L150.598049,78.2895632 L150.448049,78.4395632 L149.933545,78.4395632 L149.933545,80.1740465 L154.606947,80.1740465 L154.756947,80.3240465 L154.756947,80.9393479 L164.050825,80.9393539 Z M164.695719,74.3351531 L164.69566,74.3351531 C165.377319,74.3348274 165.993594,73.9295627 166.263835,73.3039277 C166.53407,72.678305 166.406607,71.9519627 165.939487,71.4556691 C165.472353,70.9593623 164.754885,70.7880372 164.113789,71.0197353 L163.919195,71.090008 L163.731282,71.0100863 L163.646784,70.820859 C163.225025,69.8725781 162.245185,69.2989571 161.211597,69.3952588 C160.178013,69.4915601 159.321072,70.2363132 159.081882,71.2460203 L158.98223,71.6686602 L158.820182,71.6032348 L158.579185,71.5059349 C158.406225,71.4360216 158.221393,71.4001399 158.034735,71.4002585 C157.224069,71.4002585 156.566909,72.057265 156.566909,72.8677058 C156.566909,73.6781467 157.224069,74.3351531 158.034735,74.3351531 L164.695719,74.3351531 Z"/>
                </g>
            </g>
        </g>
    </g>
</svg>