<?xml version="1.0" encoding="UTF-8"?>
<svg width="45px" height="45px" viewBox="0 0 45 45" version="1.1" xmlns="http://www.w3.org/2000/svg" xmlns:xlink="http://www.w3.org/1999/xlink">
    <!-- Generator: Sketch 49.3 (51167) - http://www.bohemiancoding.com/sketch -->
    <title>linkedin_social</title>
    <desc>Created with Sketch.</desc>
    <defs/>
    <g id="Page-1" stroke="none" stroke-width="1" fill="none" fill-rule="evenodd" opacity="0.5">
        <g id="180424_Artyllect_Home_v2" transform="translate(-1060.000000, -6472.000000)">
            <g id="linkedin_social" transform="translate(1060.000000, 6472.000000)">
                <circle id="Oval" stroke="#FFFFFF" cx="22.5" cy="22.5" r="22"/>
                <path d="M12.5044685,18.7337687 L16.4026341,18.7337687 L16.4026341,32.9986554 L12.5044685,32.9986554 L12.5044685,18.7337687 Z M14.3541863,16.9494814 L14.3259643,16.9494814 C12.9148636,16.9494814 12,15.8590088 12,14.4781022 C12,13.0689589 12.9419097,12 14.3812324,12 C15.8193791,12 16.7036689,13.0662697 16.7318909,14.4740684 C16.7318909,15.854975 15.8193791,16.9494814 14.3541863,16.9494814 L14.3541863,16.9494814 Z M32,33 L27.5797272,33 L27.5797272,25.6167883 C27.5797272,23.6845947 26.8882879,22.3668844 25.3678269,22.3668844 C24.2048448,22.3668844 23.5580903,23.2556665 23.2570555,24.1148675 C23.1441675,24.4214368 23.1618062,24.850365 23.1618062,25.2806377 L23.1618062,33 L18.7826905,33 C18.7826905,33 18.8391345,19.9223972 18.7826905,18.7337687 L23.1618062,18.7337687 L23.1618062,20.9725317 C23.420508,19.9936612 24.8198495,18.5966193 27.0529163,18.5966193 C29.8233772,18.5966193 32,20.6498271 32,25.0668459 L32,33 L32,33 Z" id="Shape" fill="#FFFFFF"/>
            </g>
        </g>
    </g>
</svg>