<?xml version="1.0" encoding="UTF-8"?>
<svg width="283px" height="235px" viewBox="0 0 283 235" version="1.1" xmlns="http://www.w3.org/2000/svg" xmlns:xlink="http://www.w3.org/1999/xlink">
    <!-- Generator: Sketch 49.3 (51167) - http://www.bohemiancoding.com/sketch -->
    <title>nyc</title>
    <desc>Created with Sketch.</desc>
    <defs>
        <linearGradient x1="50%" y1="0%" x2="50%" y2="100%" id="linearGradient-1">
            <stop stop-color="#FD1E00" offset="0%"/>
            <stop stop-color="#F90D00" offset="100%"/>
        </linearGradient>
    </defs>
    <g id="Page-1" stroke="none" stroke-width="1" fill="none" fill-rule="evenodd">
        <g id="180424_Artyllect_Home_v2" transform="translate(-811.000000, -3183.000000)">
            <g id="nyc" transform="translate(811.000000, 3183.000000)">
                <g id="Group-5-Copy" transform="translate(126.000000, 47.000000)"/>
                <rect id="Rectangle-8-Copy-6" fill="url(#linearGradient-1)" x="0" y="0" width="283" height="235"/>
                <path d="M155.875211,83.9592187 L155.875211,79.6979688 C155.875211,77.0579844 155.156757,74.5827187 153.905982,72.455375 L153.905982,69.7421094 C153.905982,64.3999063 150.500611,59.8368906 145.743347,58.1028594 L145.743347,54.6746094 C145.743347,54.0012969 145.196564,53.4555156 144.522261,53.4555156 L142.721196,53.4555156 L142.721196,49.2190937 C142.721087,48.5457812 142.174304,48 141.5,48 C140.825587,48 140.278913,48.5457812 140.278913,49.2190937 L140.278913,53.4554063 L138.477849,53.4554063 C137.803436,53.4554063 137.256762,54.0011875 137.256762,54.6745 L137.256762,58.1029688 C132.499498,59.837 129.094128,64.4000156 129.094128,69.7422188 L129.094128,72.455375 C127.843352,74.5827187 127.124898,77.0579844 127.124898,79.6979688 L127.124898,83.9389844 C126.387492,85.7593125 126.000219,87.722375 126,89.7450469 L126,91.30025 L126,102.780906 C126,103.454219 126.546673,104 127.221087,104 L132.413389,104 L150.586611,104 L155.778913,104 C156.453217,104 157,103.454219 157,102.780906 L157,91.3001406 L157,89.7449375 C157.000219,87.7005 156.599909,85.7477188 155.875211,83.9592187 Z M139.698936,55.8937031 L143.301174,55.8937031 L143.301174,57.48675 C143.279592,57.4835781 143.257681,57.4815 143.236099,57.4784375 C143.129394,57.4634531 143.02225,57.4497813 142.914668,57.4376406 C142.883774,57.4341406 142.85288,57.4303125 142.821876,57.4270312 C142.689097,57.4129219 142.55577,57.4006719 142.421895,57.3908281 C142.399108,57.3890781 142.376102,57.3879844 142.353314,57.3864531 C142.240145,57.3787969 142.126429,57.3726719 142.012383,57.3680781 C141.976559,57.3666562 141.940844,57.365125 141.90502,57.3639219 C141.770488,57.3596563 141.635628,57.3565938 141.5,57.3565938 C141.364482,57.3565938 141.229512,57.3595469 141.095089,57.3639219 C141.059265,57.365125 141.023441,57.3666563 140.987617,57.3680781 C140.873681,57.3726719 140.760074,57.3787969 140.647014,57.3864531 C140.624008,57.3880938 140.601001,57.3891875 140.577995,57.3908281 C140.44412,57.4006719 140.310903,57.4129219 140.178343,57.4270312 C140.14723,57.4303125 140.116226,57.43425 140.085222,57.43775 C139.97775,57.4498906 139.870825,57.4635625 139.76412,57.4785469 C139.742538,57.4816094 139.720627,57.4836875 139.699045,57.4868594 L139.699045,55.8937031 L139.698936,55.8937031 Z M139.520363,59.9926406 C139.54797,59.9871719 139.575687,59.98225 139.603405,59.977 C139.711425,59.9561094 139.820321,59.9375156 139.929546,59.9202344 C139.983009,59.9118125 140.036471,59.9031719 140.090262,59.8957344 C140.187107,59.8819531 140.28461,59.8703594 140.382332,59.8595313 C140.482574,59.8484844 140.583035,59.8390781 140.683715,59.830875 C140.746818,59.8257344 140.809921,59.8208125 140.873352,59.8167656 C140.955408,59.811625 141.037464,59.8074688 141.11952,59.8042969 C141.174844,59.8022188 141.230388,59.8013438 141.285932,59.8001406 C141.428461,59.7970781 141.570881,59.7970781 141.713411,59.8001406 C141.769283,59.8013438 141.825265,59.8022188 141.880809,59.8042969 C141.962646,59.8073594 142.044263,59.811625 142.125881,59.8166563 C142.190079,59.8207031 142.254168,59.825625 142.318038,59.830875 C142.416746,59.83875 142.515235,59.8480469 142.613505,59.858875 C142.71276,59.8699219 142.811907,59.881625 142.910176,59.8957344 C142.96331,59.9031719 143.016334,59.9117031 143.069139,59.9200156 C143.179241,59.9374063 143.288904,59.9562188 143.397691,59.9773281 C143.424532,59.9824688 143.451701,59.9871719 143.478542,59.9925313 C147.899147,60.8854688 151.268145,64.709 151.454934,69.3367656 C150.881311,68.78475 150.265618,68.2845781 149.61454,67.8393125 C149.21193,66.1313125 148.27163,64.5797188 146.924118,63.4247188 C145.414138,62.1301563 143.487525,61.4173594 141.499452,61.4173594 C139.511379,61.4173594 137.584766,62.1302656 136.074786,63.4247188 C134.727384,64.5797188 133.786974,66.1313125 133.384364,67.8393125 C132.733286,68.2845781 132.117594,68.7848594 131.54397,69.3367656 C131.731416,64.7091094 135.100196,60.8859063 139.520363,59.9926406 Z M146.146615,66.108125 C145.04527,65.7350469 143.891012,65.4942031 142.704215,65.3966406 C142.695889,65.395875 142.687563,65.3952187 142.679127,65.3945625 C142.544595,65.3837344 142.409625,65.3744375 142.274326,65.3673281 C142.260413,65.3665625 142.246609,65.3654688 142.232805,65.3649219 C142.196653,65.3630625 142.160281,65.3618594 142.124128,65.3604375 C142.099807,65.3593438 142.075377,65.3586875 142.051056,65.3579219 C142.011835,65.3565 141.972615,65.3548594 141.933395,65.3536563 C141.910388,65.3528906 141.887492,65.3516875 141.864485,65.35125 C141.743209,65.3481875 141.621605,65.3466563 141.49989,65.3466563 C141.378176,65.3466563 141.256571,65.3482969 141.135295,65.35125 C141.11218,65.3519063 141.089392,65.3531094 141.066386,65.3536563 C141.027056,65.35475 140.987946,65.3565 140.948835,65.3579219 C140.924514,65.3589063 140.900083,65.3594531 140.875762,65.3604375 C140.8395,65.3619688 140.803238,65.3632812 140.767085,65.3649219 C140.753172,65.3656875 140.739258,65.3666719 140.725345,65.3674375 C140.590046,65.3745469 140.455185,65.3837344 140.320653,65.3946719 C140.312327,65.3954375 140.303892,65.3960938 140.295675,65.39675 C139.108879,65.4943125 137.95462,65.7351563 136.853385,66.1082344 C137.93742,64.7228906 139.623343,63.8554375 141.5,63.8554375 C143.376876,63.8554375 145.062689,64.7227812 146.146615,66.108125 Z M129.567072,79.6979688 C129.567072,74.4689688 132.958857,70.0163125 137.661235,68.4170313 C137.667808,68.4148438 137.674381,68.4124375 137.681064,68.41025 C137.756437,68.3847656 137.832248,68.3604844 137.908169,68.3365313 C137.950676,68.3230781 137.993183,68.3101719 138.03569,68.2972656 C138.101093,68.2773594 138.166497,68.2575625 138.232448,68.23875 C138.334443,68.209875 138.436876,68.1822031 138.539528,68.1559531 C138.585759,68.1441406 138.632429,68.1332031 138.67899,68.1219375 C138.757868,68.1027969 138.836857,68.0844219 138.916174,68.0668125 C138.957695,68.057625 138.999106,68.0484375 139.040846,68.0395781 C139.159274,68.0148594 139.27803,67.9910156 139.397115,67.9700156 C139.408399,67.9680469 139.419683,67.9664063 139.431076,67.9644375 C139.544465,67.9445313 139.658401,67.9265937 139.772665,67.9100781 C139.804984,67.905375 139.837521,67.9008906 139.869949,67.8964062 C139.976654,67.88175 140.083469,67.8685156 140.190723,67.8568125 C140.210552,67.854625 140.230271,67.8521094 140.250101,67.8500313 C140.36557,67.838 140.481478,67.8282656 140.597496,67.8194063 C140.613929,67.8182031 140.630362,67.8165625 140.646685,67.8154688 C140.668268,67.8139375 140.690069,67.8127344 140.71176,67.8113125 C140.80762,67.8049688 140.903699,67.8000469 140.999887,67.7961094 C141.008213,67.7957813 141.016539,67.7952344 141.024865,67.7949062 C141.056526,67.7937031 141.087968,67.7923906 141.119629,67.7912969 C141.246273,67.78725 141.373137,67.784625 141.50011,67.784625 C141.627192,67.784625 141.753946,67.7873594 141.88059,67.7912969 C141.91236,67.7922813 141.943802,67.7935937 141.975463,67.7949062 C141.98379,67.7952344 141.992116,67.7957813 142.000332,67.7961094 C142.09652,67.8001563 142.19249,67.8049688 142.288349,67.8113125 C142.310041,67.8127344 142.331951,67.8138281 142.353643,67.8154688 C142.369967,67.8165625 142.38629,67.8182031 142.402614,67.8194063 C142.518631,67.8280469 142.634539,67.8378906 142.750009,67.8500313 C142.770057,67.8521094 142.789996,67.854625 142.809825,67.8568125 C142.91675,67.8685156 143.023565,67.8818594 143.129832,67.8962969 C143.162479,67.9007812 143.195126,67.9052656 143.227773,67.9100781 C143.34149,67.9264844 143.454878,67.9444219 143.567937,67.9642188 C143.57966,67.9662969 143.591492,67.9680469 143.603214,67.9700156 C143.722299,67.9912344 143.840726,68.01475 143.958825,68.0394687 C144.000784,68.0482188 144.042744,68.057625 144.084593,68.0669219 C144.163362,68.0843125 144.241912,68.1026875 144.320134,68.1216094 C144.367023,68.1330938 144.414131,68.1440312 144.46091,68.1559531 C144.563343,68.1820938 144.665447,68.2097656 144.767113,68.2385312 C144.833612,68.2574531 144.899564,68.2775781 144.965625,68.2977031 C145.007365,68.3103906 145.049105,68.3231875 145.090954,68.3362031 C145.167423,68.360375 145.243891,68.384875 145.319703,68.4104688 C145.32518,68.4123281 145.330548,68.4142969 145.335917,68.4160469 C150.039718,70.0145625 153.432709,74.4679844 153.432709,79.6979688 L153.432709,79.8601719 C152.652796,78.9206406 151.767382,78.0828281 150.799255,77.3585469 C149.735268,73.1365625 145.902529,70.12175 141.499781,70.12175 C137.096814,70.12175 133.264184,73.1366719 132.200197,77.3586562 C131.23207,78.0830469 130.346656,78.9208594 129.566743,79.8601719 L129.566743,79.6979688 L129.567072,79.6979688 Z M147.151114,75.32975 C147.098747,75.3092969 147.045942,75.2900469 146.993356,75.2701406 C146.98262,75.2660938 146.971883,75.2619375 146.961257,75.258 C145.841398,74.8369063 144.674431,74.5476094 143.478213,74.3960156 C143.47405,74.3955781 143.469887,74.3949219 143.465614,74.3944844 C143.391446,74.3850781 143.317388,74.3761094 143.24311,74.3677969 C143.242891,74.3677969 143.242672,74.3677969 143.242344,74.3676875 C143.199946,74.3629844 143.157549,74.3588281 143.115261,74.3544531 C143.097404,74.3525938 143.079766,74.350625 143.061908,74.348875 C142.989712,74.3416563 142.917626,74.3350938 142.845211,74.3288594 C142.816727,74.3264531 142.788134,74.3242656 142.759759,74.3218594 C142.756363,74.3216406 142.753076,74.3212031 142.74968,74.3209844 C142.721415,74.3186875 142.69326,74.3162813 142.664885,74.3142031 C142.590937,74.3087344 142.516769,74.30425 142.442601,74.2996563 C142.40842,74.2975781 142.37413,74.2953906 142.339949,74.2934219 C142.31771,74.2922188 142.29547,74.2909063 142.273121,74.2898125 C142.190189,74.2857656 142.107147,74.2830313 142.023996,74.2801875 C141.989596,74.2790938 141.955415,74.2772344 141.920906,74.2763594 C141.909074,74.2760313 141.897352,74.2755938 141.88552,74.275375 C141.75789,74.2723125 141.63004,74.2704531 141.501972,74.2704531 C141.501315,74.2704531 141.500767,74.2704531 141.50011,74.2704531 C141.499124,74.2705625 141.498795,74.2705625 141.497699,74.2705625 C141.483457,74.2705625 141.469215,74.271 141.454973,74.271 C141.344872,74.2713281 141.234661,74.2724219 141.124888,74.2750469 C141.109112,74.275375 141.093555,74.2760313 141.077889,74.2763594 C141.048091,74.2772344 141.018511,74.2786563 140.988822,74.2796406 C140.972498,74.2800781 140.956175,74.2808438 140.939851,74.2815 C140.877734,74.2836875 140.815398,74.2854375 140.753281,74.2882813 C140.718991,74.2898125 140.684701,74.2921094 140.650301,74.2938594 C140.622474,74.2952813 140.594647,74.29725 140.566821,74.299 C140.554879,74.2997656 140.543048,74.3004219 140.530997,74.3011875 C140.482355,74.30425 140.433713,74.3066563 140.385071,74.3100469 C140.327117,74.3142031 140.269273,74.319125 140.211428,74.3238281 C140.194447,74.3251406 140.177576,74.3267813 140.160705,74.3282031 C140.153365,74.3288594 140.146025,74.3294063 140.138684,74.3300625 C140.099136,74.3334531 140.059477,74.3365156 140.019928,74.3402344 C139.930204,74.3486563 139.840808,74.3583906 139.751412,74.3682344 C139.720737,74.371625 139.690062,74.3747969 139.659496,74.3782969 C139.562431,74.3897813 139.465586,74.4023594 139.36885,74.4154844 C139.346939,74.4185469 139.325138,74.4211719 139.303227,74.4243438 C139.198494,74.4391094 139.094089,74.4550781 138.989903,74.4719219 C138.977305,74.474 138.964596,74.4759688 138.951998,74.4780469 C138.839157,74.4965313 138.726536,74.5164375 138.614353,74.5374375 C138.611724,74.537875 138.609094,74.5384219 138.606465,74.5388594 C137.661564,74.7160469 136.740107,74.9793125 135.851844,75.3259219 C137.173392,73.6294063 139.235633,72.5600469 141.49989,72.5600469 C143.766011,72.5600469 145.829676,73.6309375 147.151114,75.32975 Z M131.192302,101.561922 L128.442173,101.561922 L128.442173,92.5194531 L131.192302,92.5194531 L131.192302,101.561922 Z M149.365634,91.3003594 L149.365634,101.561922 L142.721196,101.561922 L142.721196,89.8577031 C142.721196,89.1843906 142.174413,88.6386094 141.50011,88.6386094 C140.825696,88.6386094 140.279023,89.1843906 140.279023,89.8577031 L140.279023,101.561922 L133.634585,101.561922 L133.634585,91.3003594 L133.634585,89.7451563 C133.634585,85.4151094 137.163094,81.8924688 141.50011,81.8924688 C145.837235,81.8924688 149.365634,85.4152188 149.365634,89.7451563 L149.365634,91.3003594 Z M154.558046,101.561812 L151.807917,101.561812 L151.807917,92.5193437 L154.558046,92.5193437 L154.558046,101.561812 Z M154.558374,90.0812656 L151.808136,90.0811562 L151.808136,89.7450469 C151.807807,84.0707813 147.183761,79.4542813 141.50011,79.4542813 C135.816458,79.4542813 131.192412,84.0707813 131.192412,89.7451563 L131.192412,90.0812656 L128.442283,90.0812656 L128.442283,89.745375 C128.442502,87.9899063 128.788254,86.2875937 129.446562,84.7153281 C129.45445,84.6985938 129.463215,84.6824063 129.470336,84.6653438 C129.724281,84.066625 130.019529,83.4942656 130.351586,82.9506719 C130.359255,82.9380938 130.367143,82.9255156 130.374921,82.9128281 C130.439668,82.8076094 130.506386,82.7040312 130.573871,82.601 C130.62569,82.5224688 130.678385,82.4444844 130.731848,82.3669375 C130.760551,82.3251563 130.789144,82.2832656 130.818286,82.2418125 C131.247408,81.6356563 131.731307,81.0616562 132.267682,80.5260469 C132.795841,79.99875 133.361577,79.5226406 133.958317,79.09925 C133.969162,79.0921406 133.980337,79.0855781 133.991073,79.0781406 C134.400037,78.7905937 134.822477,78.5285313 135.256639,78.2918437 C135.26847,78.2853906 135.280412,78.2790469 135.292463,78.2725937 C135.413301,78.2070781 135.535453,78.1441875 135.658153,78.0828281 C135.698907,78.0624844 135.739771,78.0423594 135.780744,78.0223438 C135.874193,77.9767344 135.96819,77.932875 136.062626,77.8895625 C136.128577,77.8594844 136.194748,77.8295156 136.261137,77.8004219 C136.330814,77.7697969 136.401038,77.7404844 136.471262,77.7110625 C136.558905,77.6746406 136.646657,77.6385469 136.735177,77.6039844 C136.785133,77.5845156 136.835418,77.5657031 136.885594,77.5467812 C136.991861,77.50675 137.098347,77.4675937 137.205601,77.4301875 C137.239124,77.4184844 137.272867,77.4075469 137.306609,77.3961719 C137.428433,77.3550469 137.550695,77.3150156 137.673943,77.2773906 C137.694649,77.2710469 137.715574,77.26525 137.736389,77.2590156 C137.870702,77.2187656 138.005782,77.1800469 138.141628,77.1440625 C138.153351,77.141 138.165073,77.1382656 138.176795,77.1352031 C138.32053,77.0976875 138.464922,77.0620313 138.610299,77.0292187 C138.616763,77.0277969 138.623336,77.0264844 138.6298,77.0250625 C138.779341,76.9914844 138.929649,76.9604219 139.080833,76.9322031 C139.087187,76.931 139.093541,76.930125 139.099895,76.9289219 C139.250751,76.9010313 139.402154,76.8753281 139.554434,76.8525781 C139.567471,76.8506094 139.580617,76.8492969 139.593654,76.8473281 C139.739251,76.826 139.885287,76.8066406 140.031979,76.790125 C140.061778,76.7868438 140.091795,76.7847656 140.121594,76.7815938 C140.252401,76.7678125 140.383428,76.7549063 140.515002,76.7450625 C140.577995,76.7404688 140.641427,76.7379531 140.704639,76.7342344 C140.792063,76.7289844 140.879487,76.7231875 140.96724,76.7195781 C140.992766,76.7185937 141.018292,76.7176094 141.043927,76.7167344 C141.19566,76.7114844 141.34783,76.7080938 141.500329,76.7080938 C141.649541,76.7080938 141.798315,76.7115938 141.94687,76.7165156 C141.981708,76.7177188 142.016327,76.7190313 142.051056,76.7205625 C142.131687,76.7239531 142.211881,76.7292031 142.292183,76.7340156 C142.35189,76.7375156 142.411707,76.7399219 142.471304,76.7442969 C142.47711,76.7447344 142.483136,76.7450625 142.489161,76.7453906 C142.619202,76.755125 142.748694,76.7679219 142.877858,76.7814844 C142.891005,76.7827969 142.90448,76.7837813 142.917626,76.7853125 C142.955641,76.7894687 142.993328,76.7938437 143.031233,76.7983281 C143.144402,76.8116719 143.257243,76.8262188 143.369755,76.8425156 C143.402621,76.8472187 143.435816,76.851375 143.468572,76.8564063 C143.598722,76.8759844 143.728215,76.8981875 143.857269,76.9215937 C143.911498,76.9314375 143.965399,76.9420469 144.019409,76.9526563 C144.099273,76.9682969 144.178919,76.9848125 144.258236,77.001875 C144.320462,77.0153281 144.383018,77.0282344 144.445025,77.0425625 C144.551731,77.0670625 144.657888,77.0933125 144.763608,77.1204375 C144.853551,77.143625 144.942947,77.168125 145.032124,77.1930625 C145.056883,77.2000625 145.081752,77.2070625 145.106401,77.2141719 C150.558346,78.7803125 154.558374,83.8048906 154.558374,89.7448281 L154.558374,90.0812656 Z" id="Shape" stroke="#F90D00" stroke-width="1.4" fill="#F9F9F0" fill-rule="nonzero"/>
                <path d="M142.980078,84.80464 C142.968053,84.7406493 142.948041,84.6775561 142.923094,84.6176042 C142.898057,84.5565752 142.867097,84.4985977 142.831112,84.4445691 C142.795217,84.3895533 142.753219,84.3385761 142.707094,84.2925352 C142.661058,84.2464942 142.610087,84.2044919 142.555077,84.1685028 C142.501054,84.1325136 142.443083,84.1014607 142.382061,84.0765106 C142.322026,84.0514708 142.25912,84.0314568 142.195136,84.0195203 C142.067079,83.9934932 141.934087,83.9934932 141.805043,84.0195203 C141.74106,84.0315466 141.677974,84.0515605 141.618028,84.0765106 C141.557006,84.1015504 141.499035,84.1325136 141.445013,84.1685028 C141.390003,84.2044919 141.339032,84.2464942 141.292996,84.2925352 C141.24696,84.3385761 141.204963,84.3895533 141.168977,84.4445691 C141.132992,84.4985977 141.101943,84.5565752 141.076996,84.6176042 C141.051959,84.6776459 141.031947,84.7406493 141.020012,84.80464 C141.007,84.8686307 141,84.9346855 141,84.9997532 C141,85.0647311 141.007,85.130786 141.020012,85.1958536 C141.032037,85.2588571 141.052048,85.3218605 141.076996,85.3828895 C141.102033,85.4429312 141.132992,85.5009087 141.168977,85.5549373 C141.204963,85.6099531 141.24696,85.6609302 141.292996,85.7069712 C141.339032,85.7530122 141.390003,85.7950145 141.445013,85.8319908 C141.499035,85.86798 141.557006,85.899033 141.618028,85.923983 C141.678063,85.9490229 141.74106,85.9679598 141.805043,85.9809733 C141.869027,85.9939869 141.935074,86 142.000045,86 C142.065015,86 142.131063,85.9939869 142.195046,85.9809733 C142.25903,85.9679598 142.322116,85.9489331 142.381972,85.923983 C142.442994,85.8989432 142.500965,85.86798 142.554987,85.8319908 C142.609997,85.7950145 142.660968,85.7530122 142.707004,85.7069712 C142.75313,85.6609302 142.795127,85.6099531 142.831023,85.5549373 C142.867008,85.5009087 142.898057,85.4429312 142.923004,85.3828895 C142.948041,85.3218605 142.968053,85.2588571 142.979988,85.1958536 C142.993,85.1308757 143,85.0648208 143,84.9997532 C143,84.9346855 142.99309,84.8686307 142.980078,84.80464 Z" id="Shape" stroke="#F90D00" stroke-width="1.4" fill="#F9F9F0" fill-rule="nonzero"/>
                <text id="NEW-YORK-CITY-Copy" font-family="GorditaBold, Gordita" font-size="24" font-weight="bold" letter-spacing="2.0999999" fill="#F9F9F0">
                    <tspan x="22.2191412" y="160">NEW YORK CITY</tspan>
                </text>
                <text id="MEETUPS-IN-Copy-4" font-family="GorditaMedium, Gordita" font-size="9" font-weight="400" line-spacing="13" letter-spacing="1.00800014" fill="#F9F9F0">
                    <tspan x="107.272743" y="130">MEETUPS IN</tspan>
                </text>
            </g>
        </g>
    </g>
</svg>