<?xml version="1.0" encoding="UTF-8"?>
<svg width="283px" height="235px" viewBox="0 0 283 235" version="1.1" xmlns="http://www.w3.org/2000/svg" xmlns:xlink="http://www.w3.org/1999/xlink">
    <!-- Generator: Sketch 49.3 (51167) - http://www.bohemiancoding.com/sketch -->
    <title>washington</title>
    <desc>Created with Sketch.</desc>
    <defs>
        <linearGradient x1="50%" y1="0%" x2="50%" y2="100%" id="linearGradient-1">
            <stop stop-color="#ED3B58" offset="0%"/>
            <stop stop-color="#D51B2D" offset="100%"/>
        </linearGradient>
    </defs>
    <g id="Page-1" stroke="none" stroke-width="1" fill="none" fill-rule="evenodd">
        <g id="180424_Artyllect_Home_v2" transform="translate(-1117.000000, -3440.000000)">
            <g id="washington" transform="translate(1117.000000, 3440.000000)">
                <rect id="Rectangle-8-Copy-10" fill="url(#linearGradient-1)" x="0" y="0" width="283" height="235"/>
                <path d="M132.666072,88.0013823 L130.472168,88.0013823 L130.472168,90.171345 L132.666072,90.171345 L132.666072,88.0013823 Z M132.216382,89.7265622 L130.921858,89.7265622 L130.921858,88.4461651 L132.216382,88.4461651 L132.216382,89.7265622 Z M153.535925,88.0013823 L151.342021,88.0013823 L151.342021,90.171345 L153.535925,90.171345 L153.535925,88.0013823 Z M153.086235,89.7265622 L151.791711,89.7265622 L151.791711,88.4461651 L153.086235,88.4461651 L153.086235,89.7265622 Z M159.448651,88.0013823 L157.254747,88.0013823 L157.254747,90.171345 L159.448651,90.171345 L159.448651,88.0013823 Z M158.998961,89.7265622 L157.704437,89.7265622 L157.704437,88.4461651 L158.998961,88.4461651 L158.998961,89.7265622 Z M138.575677,88.0013823 L136.382091,88.0013823 L136.382091,90.171345 L138.575677,90.171345 L138.575677,88.0013823 Z M138.125987,89.7265622 L136.831819,89.7265622 L136.831819,88.4461651 L138.126044,88.4461651 L138.125987,89.7265622 Z M147.619438,88.0013823 L145.425534,88.0013823 L145.425534,90.171345 L147.619438,90.171345 L147.619438,88.0013823 Z M147.169748,89.7265622 L145.875224,89.7265622 L145.875224,88.4461651 L147.169748,88.4461651 L147.169748,89.7265622 Z M143.097542,88.0013823 L140.903638,88.0013823 L140.903638,90.171345 L143.097542,90.171345 L143.097542,88.0013823 Z M142.647852,89.7265622 L141.353328,89.7265622 L141.353328,88.4461651 L142.647852,88.4461651 L142.647852,89.7265622 Z M126.627845,88.0013823 L124.434018,88.0013823 L124.434018,90.171345 L126.627921,90.171345 L126.627845,88.0013823 Z M126.178155,89.7265622 L124.883708,89.7265622 L124.883708,88.4461651 L126.178231,88.4461651 L126.178155,89.7265622 Z M161.761504,76.998461 C161.660059,76.9984398 161.55888,77.0087044 161.459552,77.0290939 C161.096901,76.4065038 160.403668,76.0467067 159.679634,76.1052918 C158.955599,76.1638769 158.330706,76.6303299 158.075181,77.3029396 C157.991411,77.2867678 157.906269,77.2785624 157.820919,77.2784357 C157.09485,77.2784357 156.506254,77.8606081 156.506254,78.578754 C156.506254,79.2969 157.09485,79.8790723 157.820919,79.8790723 L161.761504,79.8790723 C162.565739,79.8790723 163.2177,79.2342255 163.2177,78.4387666 C163.2177,77.6433078 162.565739,76.998461 161.761504,76.998461 Z M161.761504,79.4342958 L157.820919,79.4342958 C157.343201,79.4342958 156.955935,79.0512553 156.955935,78.5787509 C156.955935,78.1062465 157.343201,77.7232059 157.820919,77.7232059 C157.930316,77.7230013 158.038691,77.744023 158.139907,77.7850803 L158.38333,77.8837167 L158.444028,77.6300839 C158.585337,77.0407092 159.090954,76.6061326 159.700719,76.5499613 C160.310483,76.4937899 160.888542,76.8285384 161.137462,77.3819654 L161.222009,77.5706561 L161.418667,77.5014294 C161.796449,77.3662793 162.219304,77.4661239 162.494626,77.7554854 C162.769948,78.0448469 162.84507,78.4683713 162.685774,78.8331488 C162.526478,79.1979263 162.163238,79.4341761 161.761504,79.4342895 L161.761504,79.4342958 Z M147.111631,58.9579412 C146.407034,58.4581471 145.630509,58.0659061 144.808064,57.7943544 L144.808064,56.0138746 L144.096386,56.0138746 L144.096386,53.992679 L144.929169,52.3441912 L144.346202,52.3441912 C144.242978,51.3437301 143.444808,50.5518402 142.433631,50.4466689 L142.433631,48 L141.983941,48 L141.983941,50.4466689 C140.972695,50.5518145 140.174417,51.3436789 140.071052,52.3441912 L139.582856,52.3441912 L140.322403,53.9876979 L140.322403,56.0138746 L139.534843,56.0138746 L139.534843,57.794574 C138.784072,58.0412671 138.071178,58.3889343 137.416206,58.8277999 C131.409938,59.9557417 126.067211,63.3129664 122.482858,68.2115113 C122.2478,68.1538573 122.006614,68.1242142 121.764438,68.1232134 C120.809594,68.1239084 119.931887,68.6419847 119.477933,69.4728499 C118.729278,69.2878415 117.939897,69.5465882 117.451122,70.137207 C116.962346,70.7278258 116.861889,71.5443268 117.19319,72.233652 C117.52449,72.9229771 118.228093,73.361423 118.999758,73.3594042 L119.611717,73.3438211 C116.001184,82.2465635 118.147913,92.4230012 125.056583,99.1548738 C131.965254,105.886746 142.284912,107.857672 151.230893,104.15384 C160.176875,100.450008 165.999841,91.7956829 166,82.203404 C165.953719,71.0467421 158.117336,61.4026927 147.111631,58.9579412 Z M150.612528,65.2462909 L149.316133,65.2462909 C149.01548,62.7140907 147.774424,60.3826702 145.83382,58.7044966 C148.347734,60.0549928 150.105655,62.4614892 150.612528,65.2462909 Z M130.472168,97.4714845 L130.472168,98.4008546 L128.138315,98.4008546 L128.138315,97.4714845 L130.472168,97.4714845 Z M128.13829,97.0267017 L128.13829,96.0979652 L130.472168,96.0979652 L130.472168,97.0267017 L128.13829,97.0267017 Z M155.863607,98.8456122 L155.863607,99.7743675 L128.138315,99.7743675 L128.138315,98.845631 L155.863607,98.8456122 Z M130.921846,98.4008295 L130.921846,96.0979339 L132.216369,96.0979339 L132.216369,98.4008295 L130.921846,98.4008295 Z M136.382141,97.4714845 L136.382141,98.4008546 L132.666072,98.4008546 L132.666072,97.4714845 L136.382141,97.4714845 Z M132.666072,97.0267017 L132.666072,96.0979652 L136.382129,96.0979652 L136.382129,97.0267017 L132.666072,97.0267017 Z M136.831806,98.400842 L136.831806,96.0979464 L138.126032,96.0979464 L138.126032,98.400842 L136.831806,98.400842 Z M140.903714,97.4714845 L140.903714,98.4008546 L138.575722,98.4008546 L138.575722,97.4714845 L140.903714,97.4714845 Z M138.575722,97.0267017 L138.575722,96.0979652 L140.903714,96.0979652 L140.903714,97.0267017 L138.575722,97.0267017 Z M141.353391,98.400842 L141.353391,96.0979464 L142.647915,96.0979464 L142.647915,98.400842 L141.353391,98.400842 Z M145.425604,97.4714845 L145.425604,98.4008546 L143.097612,98.4008546 L143.097612,97.4714845 L145.425604,97.4714845 Z M143.097612,97.0267017 L143.097612,96.0979652 L145.425604,96.0979652 L145.425604,97.0267017 L143.097612,97.0267017 Z M145.875281,98.400842 L145.875281,96.0979464 L147.169805,96.0979464 L147.169805,98.400842 L145.875281,98.400842 Z M151.274542,97.4714719 L151.274542,98.400842 L147.619495,98.400842 L147.619495,97.4714845 L151.274542,97.4714719 Z M147.619495,97.0266892 L147.619495,96.0979652 L151.274542,96.0979652 L151.274542,97.0267017 L147.619495,97.0266892 Z M151.72422,98.4008295 L151.72422,96.0979339 L153.018743,96.0979339 L153.018743,98.4008295 L151.72422,98.4008295 Z M153.468433,98.4008295 L153.468433,97.4714845 L155.863632,97.4714845 L155.863632,98.4008546 L153.468433,98.4008295 Z M153.468433,97.0266892 L153.468433,96.0979652 L155.863632,96.0979652 L155.863632,97.0267017 L153.468433,97.0266892 Z M128.138315,95.6531951 L128.138315,94.7244398 L155.863632,94.7244398 L155.863632,95.6531951 L128.138315,95.6531951 Z M128.138315,94.2796696 L128.138315,87.072627 L129.077654,87.072627 L129.077654,94.2796696 L128.138315,94.2796696 Z M131.569139,91.100094 C130.96355,91.1006646 130.472763,91.5860825 130.472168,92.1850628 L130.472168,94.2796633 L129.527305,94.2796633 L129.527305,87.072627 L133.605087,87.072627 L133.605087,94.2796633 L132.666072,94.2796633 L132.666072,92.1850628 C132.665481,91.5860947 132.174716,91.1006791 131.569139,91.1000877 L131.569139,91.100094 Z M132.216382,92.1850628 L132.216382,94.2796633 L130.921858,94.2796633 L130.921858,92.1850628 C130.923436,91.8325972 131.212762,91.5476921 131.56912,91.5476921 C131.925478,91.5476921 132.214804,91.8325972 132.216382,92.1850628 Z M134.054745,94.2796633 L134.054745,87.072627 L134.994083,87.072627 L134.994083,94.2796633 L134.054745,94.2796633 Z M137.479068,91.1000877 C136.873487,91.1006722 136.382713,91.5860899 136.382122,92.1850628 L136.382122,94.2796633 L135.443761,94.2796633 L135.443761,87.072627 L139.515041,87.072627 L139.515041,94.2796633 L138.575703,94.2796633 L138.575703,92.1850628 C138.575259,91.5861569 138.0846,91.100707 137.479087,91.1000877 L137.479068,91.1000877 Z M138.126013,92.1850628 L138.126013,94.2796633 L136.831819,94.2796633 L136.831819,92.1850628 C136.831819,91.8315723 137.121541,91.5450116 137.478932,91.5450116 C137.836322,91.5450116 138.126044,91.8315723 138.126044,92.1850628 L138.126013,92.1850628 Z M142.000634,91.1000877 C141.395053,91.1006722 140.90428,91.5860899 140.903689,92.1850628 L140.903689,94.2796633 L139.964718,94.2796633 L139.964718,87.072627 L144.036614,87.072627 L144.036614,94.2796633 L143.097612,94.2796633 L143.097612,92.1850628 C143.097021,91.5860899 142.606247,91.1006722 142.000666,91.1000877 L142.000634,91.1000877 Z M142.647903,92.1850628 L142.647903,94.2796633 L141.353379,94.2796633 L141.353379,92.1850628 C141.354956,91.8325972 141.644283,91.5476921 142.000641,91.5476921 C142.356998,91.5476921 142.646325,91.8325972 142.647903,92.1850628 Z M146.522524,91.1000877 C145.916943,91.1006722 145.42617,91.5860899 145.425579,92.1850628 L145.425579,94.2796633 L144.48624,94.2796633 L144.48624,87.072627 L148.558447,87.072627 L148.558447,94.2796633 L147.619495,94.2796633 L147.619495,92.1850628 C147.618904,91.5860899 147.128131,91.1006722 146.52255,91.1000877 L146.522524,91.1000877 Z M147.169792,92.1850628 L147.169792,94.2796633 L145.875269,94.2796633 L145.875269,92.1850628 C145.876846,91.8325972 146.166173,91.5476921 146.522531,91.5476921 C146.878888,91.5476921 147.168215,91.8325972 147.169792,92.1850628 Z M149.008156,94.2796633 L149.008156,87.072627 L149.947158,87.072627 L149.947158,94.2796633 L149.008156,94.2796633 Z M152.43898,91.1000877 C151.833398,91.1006722 151.342625,91.5860899 151.342034,92.1850628 L151.342034,94.2796633 L150.39686,94.2796633 L150.39686,87.072627 L154.474953,87.072627 L154.474953,94.2796633 L153.53595,94.2796633 L153.53595,92.1850628 C153.535359,91.5860899 153.044586,91.1006722 152.439005,91.1000877 L152.43898,91.1000877 Z M153.086248,92.1850628 L153.086248,94.2796633 L151.791724,94.2796633 L151.791724,92.1850628 C151.793302,91.8325972 152.082628,91.5476921 152.438986,91.5476921 C152.795344,91.5476921 153.08467,91.8325972 153.086248,92.1850628 Z M154.924611,94.2796633 L154.924611,87.072627 L155.863613,87.072627 L155.863613,94.2796633 L154.924611,94.2796633 Z M128.098985,86.6278568 L127.918741,85.6991015 L156.076693,85.6991015 L155.896461,86.6278568 L128.098985,86.6278568 Z M155.947868,85.2543251 L127.903252,85.2543251 L128.110129,83.7227355 L155.885305,83.7227355 L156.092181,85.2543251 L155.947868,85.2543251 Z M153.2405,80.6240301 L153.2405,82.4391138 L150.39686,81.5498369 L150.39686,81.5527854 L133.605087,81.5527854 L133.605087,81.5523274 L130.761448,82.4412969 L130.761448,80.6240301 L153.2405,80.6240301 Z M130.761448,80.1792599 L130.761448,74.6581949 L131.700729,74.6581949 L131.700729,80.1792599 L130.761448,80.1792599 Z M132.150438,80.1792599 L132.150438,74.6581949 L133.605087,74.6581949 L133.605087,80.1792599 L132.150438,80.1792599 Z M134.054764,80.1792599 L134.054764,74.6581949 L135.784726,74.6581949 L135.784726,80.1792599 L134.054764,80.1792599 Z M136.23441,80.1792599 L136.23441,74.6581949 L138.126038,74.6581949 L138.126038,80.1792599 L136.23441,80.1792599 Z M138.575722,80.1792599 L138.575722,74.6581949 L140.55933,74.6581949 L140.55933,80.1792599 L138.575722,80.1792599 Z M141.009014,80.1792599 L141.009014,74.6581949 L142.992343,74.6581949 L142.992343,80.1792599 L141.009014,80.1792599 Z M143.441995,80.1792599 L143.441995,74.6581949 L145.425604,74.6581949 L145.425604,80.1792599 L143.441995,80.1792599 Z M145.875288,80.1792599 L145.875288,74.6581949 L147.743689,74.6581949 L147.743689,80.1792599 L145.875288,80.1792599 Z M148.193373,80.1792599 L148.193373,74.6581949 L149.947189,74.6581949 L149.947189,80.1792599 L148.193373,80.1792599 Z M150.396867,80.1792599 L150.396867,74.6581949 L151.851788,74.6581949 L151.851788,80.1792599 L150.396867,80.1792599 Z M152.301504,80.1792599 L152.301504,74.6581949 L153.2405,74.6581949 L153.2405,80.1792599 L152.301504,80.1792599 Z M149.947183,81.9975618 L149.947183,83.277959 L134.054764,83.277959 L134.054764,81.9975618 L149.947183,81.9975618 Z M133.605093,82.0160558 L133.605093,83.277959 L129.487087,83.277959 L133.605093,82.0160558 Z M150.39686,83.2779653 L150.39686,82.0132955 L154.526524,83.2779653 L150.39686,83.2779653 Z M130.681239,74.2134184 L130.252309,73.2846631 L153.749639,73.2846631 L153.320733,74.2134184 L130.681239,74.2134184 Z M130.761448,72.8398929 L130.761448,71.9111376 L131.70045,71.9111376 L131.70045,72.8398929 L130.761448,72.8398929 Z M133.605087,71.9111376 L133.605087,72.8398929 L132.150127,72.8398929 L132.150127,71.9111376 L133.605087,71.9111376 Z M132.150127,71.4663549 L132.150127,68.7897539 L133.066214,68.7897539 L133.066214,71.4663549 L132.150127,71.4663549 Z M151.851497,71.9111376 L151.851497,72.8398929 L150.39686,72.8398929 L150.39686,71.9111376 L151.851497,71.9111376 Z M150.935721,71.4663549 L150.935721,68.7897539 L151.851497,68.7897539 L151.851497,71.4663549 L150.935721,71.4663549 Z M150.486031,71.4663549 L149.062994,71.4663549 L149.062994,68.7897539 L150.48605,68.7897539 L150.486031,71.4663549 Z M149.947158,71.9111376 L149.947158,72.8398929 L148.193379,72.8398929 L148.193379,71.9111376 L149.947158,71.9111376 Z M148.613316,71.4663549 L146.919583,71.4663549 L146.919583,68.7897539 L148.613316,68.7897539 L148.613316,71.4663549 Z M147.743683,71.9111376 L147.743683,72.8398929 L145.874977,72.8398929 L145.874977,71.9111376 L147.743683,71.9111376 Z M146.469906,71.4663549 L144.616987,71.4663549 L144.616987,68.7897539 L146.469906,68.7897539 L146.469906,71.4663549 Z M145.425274,71.9111376 L145.425274,72.8398929 L143.441945,72.8398929 L143.441945,71.9111376 L145.425274,71.9111376 Z M144.167303,71.4663549 L142.227052,71.4663549 L142.227052,68.7897539 L144.167303,68.7897539 L144.167303,71.4663549 Z M142.992293,71.9111376 L142.992293,72.8398929 L141.008703,72.8398929 L141.008703,71.9111376 L142.992293,71.9111376 Z M141.77735,71.4663549 L139.834334,71.4663549 L139.834334,68.7897539 L141.777375,68.7897539 L141.77735,71.4663549 Z M140.559,71.9111376 L140.559,72.8398929 L138.575671,72.8398929 L138.575671,71.9111376 L140.559,71.9111376 Z M139.384631,71.4663549 L137.532048,71.4663549 L137.532048,68.7897539 L139.384656,68.7897539 L139.384631,71.4663549 Z M138.126025,71.9111376 L138.126025,72.8398929 L136.234105,72.8398929 L136.234105,71.9111376 L138.126025,71.9111376 Z M137.082345,71.4663549 L135.388631,71.4663549 L135.388631,68.7897539 L137.082364,68.7897539 L137.082345,71.4663549 Z M135.784403,71.9111376 L135.784403,72.8398929 L134.054764,72.8398929 L134.054764,71.9111376 L135.784403,71.9111376 Z M134.938935,71.4663549 L133.515897,71.4663549 L133.515897,68.7897539 L134.938954,68.7897539 L134.938935,71.4663549 Z M153.240493,72.8398804 L152.301155,72.8398804 L152.301155,71.9111376 L153.240493,71.9111376 L153.240493,72.8398804 Z M151.932016,68.3450026 L132.071771,68.3450026 L131.64284,67.4156325 L152.360928,67.4156325 L151.932016,68.3450026 Z M151.851788,66.9708497 L132.150419,66.9708497 L132.150419,65.6910799 L151.851788,65.6910799 L151.851788,66.9708497 Z M139.678331,65.2462972 L137.648916,65.2462972 C138.002706,61.8952199 139.263018,59.1490848 140.899921,58.1838436 L141.155268,58.1838436 C140.393801,59.4254085 139.841843,62.0386796 139.678363,65.2462846 L139.678331,65.2462972 Z M141.698131,58.1838059 L142.022345,58.1838059 L142.022345,65.2462846 L140.128446,65.2462846 C140.300736,61.9194854 140.907938,59.1888957 141.698131,58.1838059 Z M144.366169,65.2462846 L142.472022,65.2462846 L142.472022,58.1838059 L142.796275,58.1838059 C143.587317,59.1874027 144.193472,61.9099875 144.366169,65.2462846 Z M143.339987,58.1838059 L143.442921,58.1838059 C145.079514,59.148514 146.340219,61.8950317 146.694313,65.2462595 L144.816271,65.2462595 C144.652366,62.0326697 144.101689,59.4251011 143.339987,58.1838059 Z M148.860804,65.2462846 L147.146591,65.2462595 C146.829385,62.1557472 145.79279,59.6137354 144.353242,58.307862 C146.627342,59.3610812 148.361763,62.0238619 148.860804,65.2462846 Z M142.208779,50.8689679 C143.06608,50.8717364 143.788305,51.5030226 143.896512,52.3441912 L140.520742,52.3441912 C140.629009,51.5029328 141.35138,50.8716324 142.208779,50.8689679 Z M140.275341,52.7889676 L144.201984,52.7889676 L143.732486,53.7177229 L140.693432,53.7177229 L140.275341,52.7889676 Z M143.646703,54.1624931 L143.646703,56.0138746 L142.434861,56.0138746 L142.434861,54.1624931 L143.646703,54.1624931 Z M141.983941,54.1624931 L141.983941,56.0138746 L140.772093,56.0138746 L140.772093,54.1624931 L141.983941,54.1624931 Z M139.984539,56.458626 L144.358393,56.458626 L144.358393,57.7390232 L140.187756,57.7390232 L140.186785,57.7365703 L140.181134,57.7390232 L139.984539,57.7390232 L139.984539,56.458626 Z M139.991275,58.3064505 C138.550871,59.612167 137.513622,62.1550257 137.196607,65.2462658 L135.482121,65.2462658 C135.981816,62.0193513 137.714886,59.3600649 139.991275,58.3064505 Z M138.506334,58.7063284 C136.56638,60.3838826 135.326207,62.7148398 135.026786,65.2462846 L133.730708,65.2462846 C134.23743,62.4627587 135.994064,60.0571458 138.506334,58.7063284 Z M118.993891,72.914634 C118.377984,72.913994 117.821313,72.5515416 117.577228,71.9922349 C117.333143,71.4329283 117.448291,70.7836539 117.870265,70.3399077 C118.29224,69.8961616 118.940399,69.7427458 119.519756,69.9494826 L119.716414,70.0187094 L119.800961,69.8300186 C120.146343,69.0629874 120.91551,68.5686041 121.764438,68.5679899 C122.73276,68.505364 123.609822,69.131149 123.855205,70.0597561 L123.915288,70.3115508 L124.157778,70.2153673 C124.659833,70.0157643 125.233992,70.1343784 125.613296,70.5160593 C125.9926,70.8977402 126.10262,71.467591 125.892201,71.9606569 C125.681781,72.4537228 125.192214,72.7732498 124.651125,72.7706724 L118.993891,72.914634 Z M118.332358,82.203404 C118.327661,79.1601331 118.927934,76.1456386 120.099025,73.3314186 L124.656991,73.2154363 C125.349286,73.2164117 125.980087,72.8224666 126.276832,72.2038198 C126.573578,71.5851731 126.483062,70.8527455 126.044396,70.3230103 C125.605731,69.793275 124.897566,69.5612114 124.225892,69.7270912 C124.011607,69.1100763 123.542171,68.6122903 122.934749,68.3579759 C126.261538,63.8697991 131.106501,60.7117179 136.588453,59.4581116 C134.849309,60.957972 133.67959,62.9998414 133.272602,65.2462846 L131.700729,65.2462846 L131.700729,66.9708372 L130.942928,66.9708372 L131.70045,68.6119538 L131.70045,71.4663423 L130.31177,71.4663423 L130.31177,72.8398678 L129.55239,72.8398678 L130.31177,74.4844473 L130.31177,82.5728999 L127.90244,83.277959 L121.621368,83.277959 L121.436247,84.6514845 L118.462762,84.6514845 C118.376281,83.8382561 118.33276,83.0211184 118.332377,82.203404 L118.332358,82.203404 Z M125.530018,91.0075804 L124.437125,92.0931703 L124.437125,94.2796633 L123.495028,94.2796633 L123.495028,87.072627 L127.688638,87.072627 L127.688638,94.2796633 L126.627921,94.2796633 L126.627921,92.0931703 L125.530018,91.0075804 Z M126.178231,92.2769615 L126.178231,94.2796633 L124.886803,94.2796633 L124.886803,92.2769615 L125.530652,91.6373715 L126.178231,92.2769615 Z M118.520055,85.0962672 L121.376316,85.0962672 L121.329013,85.4473068 C121.327129,85.4709235 121.329103,85.4946861 121.334861,85.5176816 L121.331182,85.5183717 L121.546304,86.6278506 L118.76297,86.6278506 C118.664647,86.1230065 118.584819,85.6119894 118.520055,85.0962672 Z M120.276319,91.1000877 L120.117171,91.1000877 C119.941304,90.6796269 119.779948,90.2520081 119.628664,89.8196906 L120.276319,89.8196906 L120.276319,91.1000877 Z M121.656329,94.1328222 C121.153481,93.2987641 120.703848,92.4344253 120.310062,91.5448642 L120.726022,91.5448642 L120.726022,89.3749016 L119.476245,89.3749016 C119.375944,89.0682399 119.283653,88.7581717 119.196011,88.4461463 L121.65636,88.4461463 L121.656329,94.1328222 Z M121.656329,88.0013823 L119.069691,88.0013823 C118.990136,87.6944885 118.919524,87.3841883 118.852439,87.072627 L121.65636,87.072627 L121.656329,88.0013823 Z M122.015269,83.7227417 L127.65617,83.7227417 L127.449566,85.2543313 L121.808729,85.2543313 L122.015269,83.7227417 Z M121.82404,85.6991015 L127.460799,85.6991015 L127.641119,86.6278568 L122.004169,86.6278568 L121.82404,85.6991015 Z M123.04537,87.072627 L123.04537,94.2796633 L122.106031,94.2796633 L122.106031,87.072627 L123.04537,87.072627 Z M122.704703,95.6533582 L122.662391,95.6533582 C122.444441,95.3485722 122.232224,95.0396897 122.028867,94.7244147 L127.688657,94.7244147 L127.688657,95.65317 L122.704684,95.65317 L122.704703,95.6533582 Z M126.627921,97.0267017 L126.627921,96.0979652 L127.688632,96.0979652 L127.688632,97.0267017 L126.627921,97.0267017 Z M127.688632,97.4714845 L127.688632,98.4008546 L126.627921,98.4008546 L126.627921,97.4714845 L127.688632,97.4714845 Z M124.434024,97.8516514 C124.320327,97.7273255 124.212033,97.5982068 124.100981,97.4714845 L124.434018,97.4714845 L124.434024,97.8516514 Z M124.434024,97.0267394 L123.713125,97.0267394 C123.460723,96.7236765 123.216322,96.4140914 122.97992,96.0979841 L124.434024,96.0979841 L124.434024,97.0267394 Z M124.883714,98.322155 L124.883708,96.0979652 L126.178238,96.0979652 L126.178238,98.4008608 L124.959584,98.4008608 C124.93415,98.3747448 124.909078,98.3483652 124.883708,98.322155 L124.883714,98.322155 Z M125.401682,98.8456499 L127.688638,98.8456499 L127.688638,99.7744052 L126.417677,99.7744052 C126.070407,99.4738537 125.730577,99.1654668 125.401676,98.845631 L125.401682,98.8456499 Z M128.389482,101.306986 C127.892222,100.960846 127.405187,100.601268 126.937078,100.219182 L128.389482,100.219182 L128.389482,101.306986 Z M132.216382,103.47294 C131.777887,103.275956 131.345632,103.068219 130.921858,102.846022 L130.921858,102.597408 C130.923436,102.244942 131.212762,101.960037 131.56912,101.960037 C131.925478,101.960037 132.214804,102.244942 132.216382,102.597408 L132.216382,103.47294 Z M134.299094,104.291955 C133.745861,104.10418 133.199979,103.900866 132.666059,103.674341 L132.666059,102.597408 C132.666059,101.998189 132.174937,101.512427 131.569107,101.512427 C130.963278,101.512427 130.472156,101.998189 130.472156,102.597408 L130.472156,102.603957 C129.914007,102.295725 129.369662,101.966868 128.839121,101.617387 L128.839121,100.219163 L134.299094,100.219163 L134.299094,104.291955 Z M138.126019,105.245252 C137.690283,105.174877 137.259253,105.091253 136.831793,104.997554 L136.831793,102.597408 C136.831793,102.243917 137.121516,101.957357 137.478906,101.957357 C137.836297,101.957357 138.126019,102.243917 138.126019,102.597408 L138.126019,105.245252 Z M139.515009,105.431797 C139.199586,105.399803 138.887289,105.357589 138.575671,105.313406 L138.575671,102.597408 C138.575671,101.998276 138.08462,101.512583 137.478878,101.512583 C136.873135,101.512583 136.382084,101.998276 136.382084,102.597408 L136.382084,104.894639 C135.83005,104.762308 135.285602,104.611676 134.748739,104.442742 L134.748739,100.219163 L139.515009,100.219163 L139.515009,105.431797 Z M142.647903,105.536864 C142.412592,105.543764 142.17817,105.554592 141.941172,105.554592 C141.744051,105.554592 141.549365,105.544636 141.353366,105.53985 L141.353366,102.597408 C141.354944,102.244942 141.64427,101.960037 142.000628,101.960037 C142.356986,101.960037 142.646312,102.244942 142.64789,102.597408 L142.647903,105.536864 Z M144.036582,105.457568 C143.724869,105.484832 143.412661,105.510446 143.09758,105.525571 L143.09758,102.597408 C143.09758,101.998189 142.606458,101.512427 142.000628,101.512427 C141.394798,101.512427 140.903676,101.998189 140.903676,102.597408 L140.903676,105.528558 C140.588716,105.515001 140.276349,105.492222 139.964674,105.466526 L139.964674,100.219163 L144.036582,100.219163 L144.036582,105.457568 Z M147.169786,104.970296 C146.742325,105.066287 146.310817,105.150919 145.875262,105.224192 L145.875262,102.597408 C145.87684,102.244942 146.166166,101.960037 146.522524,101.960037 C146.878882,101.960037 147.168208,102.244942 147.169786,102.597408 L147.169786,104.970296 Z M149.252529,104.402944 C148.716056,104.576206 148.171711,104.731025 147.619495,104.8674 L147.619495,102.597408 C147.619495,101.998189 147.128373,101.512427 146.522543,101.512427 C145.916713,101.512427 145.425591,101.998189 145.425591,102.597408 L145.425591,105.298437 C145.114462,105.344154 144.801349,105.383617 144.486253,105.416829 L144.486253,100.219163 L149.252529,100.219163 L149.252529,104.402944 Z M153.079455,102.785854 C152.656099,103.010918 152.223204,103.22006 151.784931,103.419817 L151.784931,102.597408 C151.786509,102.244942 152.075835,101.960037 152.432193,101.960037 C152.788551,101.960037 153.077877,102.244942 153.079455,102.597408 L153.079455,102.785854 Z M155.168966,101.535174 C154.636365,101.892801 154.085606,102.225189 153.523233,102.539743 C153.492663,101.952996 152.99459,101.497417 152.400793,101.513066 C151.806995,101.528716 151.334158,102.009883 151.335222,102.597408 L151.335222,103.621161 C150.800956,103.851281 150.256611,104.061594 149.702188,104.2521 L149.702188,100.219163 L155.168966,100.219163 L155.168966,101.535174 Z M155.618656,101.218638 L155.618656,100.219163 L156.945527,100.219163 C156.516977,100.568973 156.071752,100.898915 155.618656,101.218638 Z M157.464985,99.7743863 L156.313309,99.7743863 L156.313309,98.845631 L158.480993,98.845631 C158.15206,99.1654668 157.812204,99.4738537 157.464985,99.7743863 Z M157.254792,97.4714845 L157.254792,98.4008546 L156.313309,98.4008546 L156.313309,97.4714845 L157.254792,97.4714845 Z M156.313316,97.0267017 L156.313316,96.0979652 L157.254792,96.0979652 L157.254792,97.0267017 L156.313316,97.0267017 Z M158.999012,98.3220797 C158.973641,98.3483087 158.948531,98.3747259 158.923097,98.400842 L157.704469,98.400842 L157.704469,96.0979464 L158.998993,96.0979464 L158.999012,98.3220797 Z M159.448702,97.8515761 L159.448702,97.4714845 L159.781688,97.4714845 C159.670699,97.5982068 159.56238,97.7272691 159.448683,97.8515949 L159.448702,97.8515761 Z M160.169601,97.0267017 L159.448702,97.0267017 L159.448702,96.0979652 L160.902767,96.0979652 C160.665799,96.4134912 160.421404,96.7230701 160.169582,97.0267017 L160.169601,97.0267017 Z M161.222802,95.6531762 L156.313309,95.6531762 L156.313309,94.7244398 L161.853871,94.7244398 C161.650785,95.0392924 161.440422,95.3488775 161.222783,95.6531951 L161.222802,95.6531762 Z M158.352359,91.0075804 L157.254792,92.0931703 L157.254792,94.2796633 L156.313309,94.2796633 L156.313309,87.072627 L160.387685,87.072627 L160.387685,94.2796633 L159.445587,94.2796633 L159.445587,92.0931703 L158.352359,91.0075804 Z M158.99591,92.2769615 L158.99591,94.2796633 L157.704469,94.2796633 L157.704469,92.2769615 L158.351737,91.6373715 L158.99591,92.2769615 Z M160.837343,94.2796633 L160.837343,87.072627 L161.776345,87.072627 L161.776345,94.2796633 L160.837343,94.2796633 Z M161.878233,86.6278506 L156.354346,86.6278506 L156.534666,85.6990953 L162.058616,85.6990953 L161.878233,86.6278506 Z M156.545854,85.2543251 L156.339251,83.7227417 L161.867108,83.7227417 L162.073984,85.2543313 L156.545854,85.2543251 Z M163.76551,91.1000877 L163.617201,91.1000877 L163.617201,89.8196906 L164.253998,89.8196906 C164.102733,90.2520081 163.941409,90.6796332 163.765516,91.1000877 L163.76551,91.1000877 Z M164.406467,89.3749078 L163.16753,89.3749078 L163.16753,91.5448705 L163.572651,91.5448705 C163.178776,92.4346239 162.729031,93.2991436 162.226048,94.133368 L162.226048,88.4461525 L164.686709,88.4461525 C164.59906,88.758178 164.506814,89.0682461 164.406467,89.3749078 Z M164.813028,88.0013823 L162.226048,88.0013823 L162.226048,87.072627 L165.030274,87.072627 C164.963201,87.3841883 164.892577,87.6944885 164.813028,88.0013823 Z M165.119743,86.6278568 L162.336143,86.6278568 L162.551537,85.518378 L162.547859,85.5176879 C162.553616,85.4946924 162.55559,85.4709298 162.553706,85.4473131 L162.506359,85.0962735 L165.362658,85.0962735 C165.297894,85.6119894 165.218072,86.1230065 165.119743,86.6278568 Z M162.446339,84.651497 L162.261002,83.277959 L156.114291,83.277959 L153.690152,82.5703655 L153.690152,74.4844724 L154.449531,72.8398929 L153.690177,72.8398929 L153.690177,71.4663674 L152.301187,71.4663674 L152.301187,68.6166588 L153.060871,66.970856 L152.301478,66.970856 L152.301478,65.2463035 L151.070609,65.2463035 C150.678051,63.0803696 149.577974,61.1016067 147.939105,59.6135095 C159.217778,62.544626 166.643755,73.1809295 165.419932,84.6514782 L162.446339,84.651497 Z" id="Shape" stroke="#FFFFFF" stroke-width="0.3" fill="#FFFFFF" fill-rule="nonzero"/>
                <text id="Washington,-D.C." font-family="GorditaBold, Gordita" font-size="24" font-weight="bold" letter-spacing="2.0999999" fill="#F9F9F0">
                    <tspan x="31.1785161" y="160">WASHINGTON,</tspan>
                    <tspan x="110.405469" y="191">D.C.</tspan>
                </text>
                <text id="MEETUPS-IN-Copy-7" font-family="GorditaMedium, Gordita" font-size="9" font-weight="400" line-spacing="13" letter-spacing="1.00800014" fill="#F9F9F0">
                    <tspan x="107.272743" y="130">MEETUPS IN</tspan>
                </text>
            </g>
        </g>
    </g>
</svg>